<?xml version="1.0" encoding="utf-8"?>
<svg width="642" height="271" viewBox="0 0 642 271" fill="none" xmlns="http://www.w3.org/2000/svg">
  <defs>
    <clipPath id="clip_path_1">
      <rect width="642" height="271" />
    </clipPath>
  </defs>
  <g clip-path="url(#clip_path_1)">
    <rect width="642" height="271" />
    <path id="Path" d="M231.825 0L0 0L0 76.2026L8.78153 76.2026L8.78153 96.1329L28.6854 76.2026L231.825 76.2026L231.825 0L231.825 0Z" fill="#F0F0F0" fill-rule="evenodd" transform="translate(0 89.101)" />
    <rect id="Rectangle" width="218.946" height="60.962" fill="#FFFFFF" fill-rule="evenodd" transform="translate(6.44 96.521)" />
    <rect id="Rectangle" width="105.417" height="3.203" fill="#F0F0F0" fill-rule="evenodd" transform="translate(25.803 114.906)" />
    <rect id="Rectangle" width="183.733" height="3.203" fill="#F0F0F0" fill-rule="evenodd" transform="translate(25.803 125.987)" />
    <rect id="Rectangle" width="183.553" height="3.203" fill="#F0F0F0" fill-rule="evenodd" transform="translate(25.803 137.068)" />
    <path id="Path" d="M0 20.7078C0 20.7078 1.10504 -2.47694 23.7586 0.217957C23.7586 0.217957 0 20.7078 0 20.7078Z" fill="#F0F0F0" fill-rule="evenodd" transform="translate(389.422 240.518)" />
    <path id="Oval" d="M0 11.3526C0 5.08273 5.07617 0 11.338 0C17.5997 0 22.6759 5.08273 22.6759 11.3526C22.6759 17.6225 17.5997 22.7052 11.338 22.7052C5.07617 22.7052 0 17.6225 0 11.3526Z" fill="#F0F0F0" fill-rule="evenodd" transform="translate(371.683 216.457)" />
    <rect id="Rectangle" width="3.2" height="22.432" fill="#F0F0F0" fill-rule="evenodd" transform="translate(381.176 246.927)" />
    <path id="Oval" d="M0 91.7433C0 41.0749 41.0219 0 91.625 0C142.228 0 183.25 41.0749 183.25 91.7433C183.25 142.412 142.228 183.487 91.625 183.487C41.0219 183.487 0 142.412 0 91.7433Z" fill="#12372A" fill-rule="evenodd" transform="translate(403.988 42.247)" />
    <path id="Path" d="M8.34033 46.501C12.9471 40.9789 19.7627 37.7872 26.9486 37.7872C34.1345 37.7872 40.9502 40.9789 45.5569 46.501C56.3222 36.2107 56.7181 19.1304 46.441 8.35109C36.164 -2.42818 19.1057 -2.82459 8.34033 7.46574C-2.42508 17.756 -2.82095 34.8363 7.45609 45.6156C7.74396 45.9175 8.0387 46.2127 8.34033 46.501C8.34033 46.501 8.34033 46.501 8.34033 46.501Z" fill="#FFFFFF" fill-rule="evenodd" transform="translate(429.589 94.854)" />
    <path id="Path" d="M8.34091 46.501C12.9476 40.9789 19.7633 37.7873 26.9491 37.7873C34.135 37.7873 40.9507 40.9789 45.5574 46.501C53.4414 38.9649 56.0153 27.4156 52.0789 17.2385C48.1426 7.06129 38.4712 0.260529 27.5744 0.00730896C16.6777 -0.245903 6.7016 6.09831 2.29797 16.0817C-2.10568 26.065 -0.0696106 37.7215 7.45673 45.6156C7.74454 45.9175 8.03928 46.2127 8.34091 46.501C8.34091 46.501 8.34091 46.501 8.34091 46.501Z" fill="#FFFFFF" fill-rule="evenodd" transform="translate(502.35 94.854)" />
    <path id="Oval" d="M0 9.28197C0 4.15569 4.15033 0 9.27002 0C14.3897 0 18.54 4.15569 18.54 9.28197C18.54 14.4083 14.3897 18.564 9.27002 18.564C4.15033 18.564 0 14.4083 0 9.28197Z" fill="#12372A" fill-rule="evenodd" transform="translate(438.075 103.367)" />
    <path id="Oval" d="M0 9.28197C0 4.15569 4.15033 0 9.27002 0C14.3897 0 18.54 4.15569 18.54 9.28197C18.54 14.4083 14.3897 18.564 9.27002 18.564C4.15033 18.564 0 14.4083 0 9.28197Z" fill="#12372A" fill-rule="evenodd" transform="translate(510.833 103.367)" />
    <path id="Oval" d="M0 10.7933C0 4.83234 4.82611 0 10.7794 0C16.7327 0 21.5588 4.83234 21.5588 10.7933C21.5588 16.7543 16.7327 21.5866 10.7794 21.5866C4.82611 21.5866 0 16.7543 0 10.7933Z" fill="#40A578" fill-rule="evenodd" transform="translate(418.81 146.133)" />
    <path id="Oval" d="M0 10.7933C0 4.83234 4.82611 0 10.7794 0C16.7327 0 21.5588 4.83234 21.5588 10.7933C21.5588 16.7543 16.7327 21.5867 10.7794 21.5867C4.82611 21.5867 0 16.7543 0 10.7933Z" fill="#40A578" fill-rule="evenodd" transform="translate(542.773 146.133)" />
    <path id="Path" d="M8.08444 0L0 35.0784L13.4736 21.5874L8.08444 0L8.08444 0Z" fill="#40A578" fill-rule="evenodd" transform="translate(483.486 135.339)" />
    <path id="Path" d="M29.624 54.0072L20.4449 46.294L20.6589 54.0072L17.8083 54.0072L17.5801 45.8513L5.18777 54.0072L0 54.0072L17.488 42.4977L16.8102 18.3306L16.3042 0.0781403L19.1482 0L19.6617 18.3306L20.3379 42.4762L34.056 54.0072L29.624 54.0072L29.624 54.0072Z" fill="#12372A" fill-rule="evenodd" transform="translate(503.488 216.248)" />
    <path id="Path" d="M29.6166 54.0072L20.4383 46.294L20.6523 54.0072L17.8091 54.0072L17.5809 45.8513L5.18777 54.0072L0 54.0072L17.4814 42.4977L16.8044 18.3306L16.2982 0.0781403L19.1482 0L19.6617 18.3306L20.3312 42.4762L34.0493 54.0072L29.6166 54.0072L29.6166 54.0072Z" fill="#12372A" fill-rule="evenodd" transform="translate(460.374 216.248)" />
    <path id="Path" d="M29.6434 10.7933C27.1293 10.7933 24.9114 12.7487 23.4287 15.7522C22.1217 11.2358 19.3759 8.095 16.1691 8.095C15.9512 8.11671 15.735 8.15308 15.5219 8.20386C14.2893 3.38181 11.4245 0 8.08453 0C3.61954 0 0 6.0405 0 13.4917C0 20.9428 3.61957 26.9833 8.08453 26.9833C8.30252 26.9616 8.51874 26.9253 8.73178 26.8745C9.96442 31.6965 12.8291 35.0783 16.1691 35.0783C18.6832 35.0783 20.9011 33.1229 22.3839 30.1194C23.6909 34.6358 26.4367 37.7766 29.6434 37.7766C34.1084 37.7766 37.7279 31.7361 37.7279 24.285C37.7279 16.8338 34.1084 10.7933 29.6434 10.7933C29.6434 10.7933 29.6434 10.7933 29.6434 10.7933Z" fill="#12372A" fill-rule="evenodd" transform="translate(467.317 24.708)" />
    <path id="Path" d="M69.3871 8.802C69.3871 8.802 18.9137 0.604752 18.9137 0.604752C16.3702 0.191681 13.7802 -0.222229 11.2286 0.137314C8.67703 0.496872 6.12286 1.75475 4.82208 3.98192C3.54514 6.16826 3.66733 8.90117 5.13431 10.9645C6.60129 13.0279 9.14032 14.0381 11.6215 13.5456C8.86646 13.4562 5.97067 13.397 3.52591 14.672C1.08112 15.9469 -0.650055 19.0439 0.54187 21.5326C0.899506 22.2195 1.38339 22.8326 1.96808 23.3399C5.72311 26.71 11.0782 27.6194 15.7329 25.6773C13.8748 28.3454 10.1877 28.7417 6.99817 29.3595C3.80865 29.9773 0.121552 31.7837 0.00299072 35.0344C-0.130188 38.6869 4.21106 40.6282 7.78491 41.3717C26.8683 45.3034 46.6768 43.6868 64.8725 36.7127C66.9174 36.0081 68.853 35.0186 70.6221 33.7732C74.6722 30.6938 76.5483 25.5264 75.4187 20.5616C74.2892 15.5968 70.3629 11.7529 65.3804 10.7337C65.3804 10.7337 69.3871 8.802 69.3871 8.802Z" fill="#12372A" fill-rule="evenodd" transform="translate(339.839 128.043)" />
    <path id="Path" d="M63.0201 46.2149C54.6896 28.5797 41.4946 13.6988 24.9924 3.32822C23.201 2.11513 21.2479 1.16084 19.1906 0.49353C14.2984 -0.896973 9.0462 0.707138 5.76202 4.59485C2.47778 8.48259 1.76898 13.9348 3.94989 18.5347C3.94989 18.5347 0 16.4891 0 16.4891C7.93018 31.5957 15.8602 46.7024 23.7903 61.809C24.9891 64.0928 26.2153 66.4143 28.0357 68.2402C29.8561 70.0661 32.3953 71.3543 34.9548 71.0568C37.0165 70.825 38.8378 69.6056 39.8392 67.7862C40.8408 65.9667 40.8979 63.7738 39.9926 61.9046C41.1056 63.4753 42.5692 64.7644 44.267 65.6695C46.7539 66.8598 50.2664 66.3841 51.5365 63.9344C51.87 63.2354 52.0687 62.4797 52.1222 61.7069C52.5556 56.6764 50.0632 51.8443 45.7156 49.2863C48.9619 49.1698 51.4943 51.8825 53.9042 54.0637C56.3143 56.2449 59.9719 58.11 62.638 56.2513C65.6337 54.1628 64.5743 49.5219 63.0201 46.2149C63.0201 46.2149 63.0201 46.2149 63.0201 46.2149Z" fill="#12372A" fill-rule="evenodd" transform="translate(564.067 132.055)" />
    <path id="Path" d="M0 0L334.588 0L334.588 109.981L321.914 109.981L321.914 138.744L293.187 109.981L0 109.981L0 0L0 0Z" fill="#CACACA" fill-rule="evenodd" transform="translate(41.434 0)" />
    <rect id="Rectangle" width="315.999" height="87.985" fill="#FFFFFF" fill-rule="evenodd" transform="translate(50.729 10.71)" />
    <rect id="Rectangle" width="152.146" height="4.623" fill="#40A578" fill-rule="evenodd" transform="translate(76.14 36.398)" />
    <rect id="Rectangle" width="265.177" height="4.623" fill="#40A578" fill-rule="evenodd" transform="translate(76.14 52.391)" />
    <rect id="Rectangle" width="264.917" height="4.623" fill="#40A578" fill-rule="evenodd" transform="translate(76.14 68.384)" />
    <path id="Path" d="M283.874 1.48816C283.874 1.48816 0.743134 1.48816 0.743134 1.48816C0.332703 1.48816 0 1.15503 0 0.74408C0 0.33313 0.332703 0 0.743134 0C0.743134 0 283.874 0 283.874 0C284.285 0 284.617 0.33313 284.617 0.74408C284.617 1.15503 284.285 1.48816 283.874 1.48816C283.874 1.48816 283.874 1.48816 283.874 1.48816Z" fill="#CACACA" fill-rule="evenodd" transform="translate(357.383 269.512)" />
  </g>
</svg>