<?xml version="1.0" encoding="utf-8"?>
<svg width="61" height="61" viewBox="0 0 61 61" fill="none" xmlns="http://www.w3.org/2000/svg">
  <g>
    <rect width="61" height="61" />
    <path id="Oval" d="M0 28.8056C0 12.8967 12.8967 0 28.8056 0C44.7144 0 57.6111 12.8967 57.6111 28.8056C57.6111 44.7144 44.7144 57.6111 28.8056 57.6111C12.8967 57.6111 0 44.7144 0 28.8056Z" fill="#FFCB4C" fill-rule="evenodd" transform="translate(1.694 0.031)" />
    <path id="Path" d="M0.591568 2.94609C0.337542 2.74567 0.152664 2.47073 0.0629005 2.15986C-0.05159 1.79748 -0.00849915 1.40367 0.181646 1.07462C0.371792 0.745567 0.691484 0.511589 1.06262 0.429836C8.73507 -1.30019 13.9014 2.73936 14.12 2.9122C14.7707 3.43069 14.8978 4.344 14.4132 4.954C13.9285 5.56061 13.0102 5.63347 12.3612 5.11836C12.1748 4.97603 8.0861 1.85995 1.88612 3.25786C1.42966 3.35522 0.953661 3.24058 0.591566 2.94609C0.591566 2.94609 0.591568 2.94609 0.591568 2.94609Z" fill="#65471B" fill-rule="evenodd" transform="translate(24.019 32.698)" />
    <path id="Oval" d="M0 4.50045C0 2.01492 1.61209 0 3.60069 0C5.5893 0 7.20139 2.01492 7.20139 4.50045C7.20139 6.98597 5.5893 9.00089 3.60069 9.00089C1.61209 9.00089 0 6.98597 0 4.50045Z" fill="#65471B" fill-rule="evenodd" transform="translate(18.629 14.433)" />
    <path id="Oval" d="M0 4.50044C0 2.01492 1.61208 0 3.60069 0C5.5893 0 7.20139 2.01492 7.20139 4.50044C7.20139 6.98597 5.5893 9.00089 3.60069 9.00089C1.61208 9.00089 0 6.98597 0 4.50044Z" fill="#65471B" fill-rule="evenodd" transform="translate(37.701 16.233)" />
    <path id="Path" d="M19.2083 29.3156C19.2083 29.3156 21.3518 28.6192 21.6297 27.0247C21.9228 25.3777 20.5724 25.0473 20.5724 25.0473C20.5724 25.0473 22.3363 24.6949 22.5583 22.7158C22.7667 20.8502 21.0993 20.4062 21.0993 20.4062C21.0993 20.4062 22.743 19.7285 22.8209 17.7985C22.8853 16.1735 21.1349 15.3788 21.1349 15.3788C21.1349 15.3788 29.6715 13.3099 30.5493 13.1066C31.4236 12.9032 32.7859 12.0645 32.3606 10.2362C31.9387 8.40619 30.3205 8.3418 29.4851 8.53666C28.6481 8.73152 18.0578 11.1902 14.4046 12.0408C14.4046 12.0408 11.9663 12.6067 11.9663 12.6067C11.0513 12.8219 10.6362 12.4203 11.2817 11.7392C12.1425 10.8309 12.6932 9.82614 12.8847 8.1588C13.0863 6.40505 12.4916 4.23955 12.151 3.39911C11.5173 1.83852 10.4481 0.604967 9.21282 0.181356C7.28623 -0.479477 5.91712 0.725271 6.59998 2.82638C7.62343 5.96789 6.95243 8.54513 5.18851 10.1006C1.03882 13.7555 -0.891154 16.3616 0.393235 21.916C1.79624 27.9736 7.80982 31.8725 13.8675 30.4695C13.8675 30.4695 19.2083 29.3156 19.2083 29.3156C19.2083 29.3156 19.2083 29.3156 19.2083 29.3156Z" fill="#F19020" fill-rule="evenodd" transform="translate(10.065 30.242)" />
    <path id="Shape" d="M0.821453 3.95334C0.536211 3.80165 0.304813 3.56551 0.158928 3.27726C-0.0195827 2.94185 -0.0491352 2.54692 0.0774727 2.18869C0.204079 1.83045 0.475222 1.54179 0.824843 1.39304C8.05334 -1.70949 13.8704 1.32017 14.1144 1.45065C14.8481 1.84206 15.1446 2.7164 14.7769 3.40604C14.4109 4.09229 13.523 4.3312 12.7893 3.94487C12.5809 3.83812 7.99065 1.51842 2.1516 4.02451C1.7201 4.20216 1.23153 4.17602 0.821456 3.95334C0.821456 3.95334 0.821453 3.95334 0.821453 3.95334ZM21.3835 10.3074C21.1099 10.1368 20.8957 9.88592 20.7701 9.58899C20.6141 9.24192 20.6111 8.84526 20.7619 8.49591C20.9128 8.14655 21.2035 7.87668 21.5631 7.75222C28.9864 5.14955 34.5849 8.56555 34.8187 8.71297C35.5219 9.15352 35.7591 10.0465 35.3474 10.709C34.9373 11.3699 34.0325 11.5478 33.3293 11.1123C33.126 10.9903 28.7086 8.3656 22.7102 10.4701C22.2659 10.6169 21.7792 10.5572 21.3835 10.3074C21.3835 10.3074 21.3835 10.3074 21.3835 10.3074Z" fill="#65471B" transform="translate(14.93 6.808)" />
  </g>
</svg>