<?xml version="1.0" encoding="utf-8"?>
<svg width="20" height="20.074" viewBox="0 0 20 20.074" fill="none" xmlns="http://www.w3.org/2000/svg">
  <defs>
    <clipPath id="clip_path_1">
      <rect width="20" height="20.074" />
    </clipPath>
  </defs>
  <g clip-path="url(#clip_path_1)" transform="translate(0 0)">
    <rect width="20" height="20.074" />
    <rect id="Rectangle" width="182" height="54" fill="#006769" fill-rule="evenodd" fill-opacity="0" transform="translate(-21 -8)" />
    <path id="Path" d="M7.5 0L0 0L0 5.01852L7.5 5.01852L7.5 0L7.5 0Z" fill="#F7F7F7" fill-rule="evenodd" transform="translate(1.25 1.255)" />
    <path id="Path" d="M7.5 0L0 0L0 10.037L7.5 10.037L7.5 0L7.5 0Z" fill="#F7F7F7" fill-rule="evenodd" transform="translate(1.25 8.782)" />
    <path id="Path" d="M0 0L7.5 0L7.5 10.037L0 10.037L0 0L0 0Z" fill="#F7F7F7" fill-rule="evenodd" transform="translate(11.25 1.255)" />
    <path id="Path" d="M7.5 0L0 0L0 5.01852L7.5 5.01852L7.5 0L7.5 0Z" fill="#F7F7F7" fill-rule="evenodd" transform="translate(11.25 13.801)" />
  </g>
</svg>