<?xml version="1.0" encoding="utf-8"?>
<svg width="61.815" height="61.444" viewBox="0 0 61.815 61.444" fill="none" xmlns="http://www.w3.org/2000/svg">
  <g>
    <rect width="61.815" height="61.444" />
    <rect id="Rectangle" width="15.454" height="3.84" fill="#F7F7F7" fill-rule="evenodd" transform="translate(27.044 44.163)" />
    <rect id="Rectangle" width="3.863" height="3.84" fill="#F7F7F7" fill-rule="evenodd" transform="translate(19.317 44.163)" />
    <rect id="Rectangle" width="15.454" height="3.84" fill="#F7F7F7" fill-rule="evenodd" transform="translate(27.044 34.563)" />
    <rect id="Rectangle" width="3.863" height="3.84" fill="#F7F7F7" fill-rule="evenodd" transform="translate(19.317 34.563)" />
    <rect id="Rectangle" width="15.454" height="3.84" fill="#F7F7F7" fill-rule="evenodd" transform="translate(27.044 24.962)" />
    <rect id="Rectangle" width="3.863" height="3.84" fill="#F7F7F7" fill-rule="evenodd" transform="translate(19.317 24.962)" />
    <path id="Shape" d="M38.6346 5.76042L32.8394 5.76042C32.8394 5.76042 32.8394 3.84028 32.8394 3.84028C32.8394 1.71935 31.1097 0 28.976 0C28.976 0 13.5221 0 13.5221 0C11.3884 0 9.65866 1.71935 9.65866 3.84028C9.65866 3.84028 9.65866 5.76042 9.65866 5.76042C9.65866 5.76042 3.86346 5.76042 3.86346 5.76042C1.72973 5.76042 0 7.47977 0 9.60069C0 9.60069 0 49.9236 0 49.9236C0 52.0445 1.72973 53.7639 3.86346 53.7639C3.86346 53.7639 38.6346 53.7639 38.6346 53.7639C40.7684 53.7639 42.4981 52.0445 42.4981 49.9236C42.4981 49.9236 42.4981 9.60069 42.4981 9.60069C42.4981 7.47977 40.7684 5.76042 38.6346 5.76042C38.6346 5.76042 38.6346 5.76042 38.6346 5.76042ZM13.5225 3.84033L28.9763 3.84033L28.9763 11.5209L13.5225 11.5209L13.5225 3.84033ZM38.6344 49.9235L3.86328 49.9235L3.86328 9.60059L9.65848 9.60059L9.65848 15.361L32.8392 15.361L32.8392 9.60059L38.6344 9.60059L38.6344 49.9235Z" fill="#F7F7F7" transform="translate(9.658 3.84)" />
    <rect id="_Transparent_Rectangle_" width="61.815" height="61.444" />
  </g>
</svg>