<?xml version="1.0" encoding="utf-8"?>
<svg width="30" height="27" viewBox="0 0 30 27" fill="none" xmlns="http://www.w3.org/2000/svg">
  <g>
    <rect width="30" height="27" />
    <path id="Shape" d="M16.6667 1.68507C16.6667 1.163 16.4323 0.672566 16.026 0.35616C15.6198 0.0397532 15.0937 -0.0762624 14.5938 0.0503001C14.5938 0.0503001 5.22396 2.42335 5.22396 2.42335C4.11458 2.70284 3.33333 3.71534 3.33333 4.8755C3.33333 4.8755 3.33333 23.6226 3.33333 23.6226C3.33333 23.6226 1.66667 23.6226 1.66667 23.6226C0.744792 23.6226 0 24.3767 0 25.3101C0 26.2435 0.744792 26.9976 1.66667 26.9976C1.66667 26.9976 5 26.9976 5 26.9976L15 26.9976L16.6667 26.9976L16.6667 25.3101L16.6667 1.68507C16.6667 1.68507 16.6667 1.68507 16.6667 1.68507ZM13.3331 13.4976C13.3331 14.431 12.7758 15.1851 12.0831 15.1851C11.3904 15.1851 10.8331 14.431 10.8331 13.4976C10.8331 12.5642 11.3904 11.8101 12.0831 11.8101C12.7758 11.8101 13.3331 12.5642 13.3331 13.4976C13.3331 13.4976 13.3331 13.4976 13.3331 13.4976ZM18.3331 6.7476L23.3331 6.7476C23.3331 6.7476 23.3331 25.3101 23.3331 25.3101C23.3331 26.2435 24.0779 26.9976 24.9998 26.9976C24.9998 26.9976 28.3331 26.9976 28.3331 26.9976C29.255 26.9976 29.9998 26.2435 29.9998 25.3101C29.9998 24.3767 29.255 23.6226 28.3331 23.6226C28.3331 23.6226 26.6664 23.6226 26.6664 23.6226C26.6664 23.6226 26.6664 6.7476 26.6664 6.7476C26.6664 4.88608 25.1717 3.3726 23.3331 3.3726C23.3331 3.3726 18.3331 3.3726 18.3331 3.3726L18.3331 6.7476L18.3331 6.7476Z" fill="#000000" transform="translate(0 0.002)" />
  </g>
</svg>