<?xml version="1.0" encoding="UTF-8" standalone="no"?>
<!-- Uploaded to: SVG Repo, www.svgrepo.com, Generator: SVG Repo Mixer Tools -->

<svg
   width="800px"
   height="800px"
   viewBox="0 0 16 16"
   fill="none"
   version="1.1"
   id="svg2"
   sodipodi:docname="eye-slash.svg"
   inkscape:version="1.4 (e7c3feb, 2024-10-09)"
   xmlns:inkscape="http://www.inkscape.org/namespaces/inkscape"
   xmlns:sodipodi="http://sodipodi.sourceforge.net/DTD/sodipodi-0.dtd"
   xmlns="http://www.w3.org/2000/svg"
   xmlns:svg="http://www.w3.org/2000/svg">
  <defs
     id="defs2" />
  <sodipodi:namedview
     id="namedview2"
     pagecolor="#ffffff"
     bordercolor="#000000"
     borderopacity="0.25"
     inkscape:showpageshadow="2"
     inkscape:pageopacity="0.0"
     inkscape:pagecheckerboard="0"
     inkscape:deskcolor="#d1d1d1"
     inkscape:zoom="1.0075"
     inkscape:cx="398.51117"
     inkscape:cy="400"
     inkscape:window-width="1920"
     inkscape:window-height="1008"
     inkscape:window-x="0"
     inkscape:window-y="40"
     inkscape:window-maximized="1"
     inkscape:current-layer="svg2" />
  <path
     fill-rule="evenodd"
     clip-rule="evenodd"
     d="M16 16H13L10.8368 13.3376C9.96488 13.7682 8.99592 14 8 14C6.09909 14 4.29638 13.1557 3.07945 11.6953L0 8L3.07945 4.30466C3.14989 4.22013 3.22229 4.13767 3.29656 4.05731L0 0H3L16 16ZM5.35254 6.58774C5.12755 7.00862 5 7.48941 5 8C5 9.65685 6.34315 11 8 11C8.29178 11 8.57383 10.9583 8.84053 10.8807L5.35254 6.58774Z"
     fill="#000000"
     id="path1"
     style="fill:#000000;fill-opacity:1" />
  <path
     d="M16 8L14.2278 10.1266L7.63351 2.01048C7.75518 2.00351 7.87739 2 8 2C9.90091 2 11.7036 2.84434 12.9206 4.30466L16 8Z"
     fill="#000000"
     id="path2"
     style="fill:#000000;fill-opacity:1" />
</svg>
