<?xml version="1.0" encoding="utf-8"?>
<svg width="20" height="20" viewBox="0 0 20 20" fill="none" xmlns="http://www.w3.org/2000/svg">
  <g>
    <rect width="20" height="20" />
    <path id="Path" d="M14.1667 0C14.1667 0 2.5 0 2.5 0C1.32149 0 0.732233 0 0.366117 0.3435C0 0.687 0 1.23985 0 2.34555C0 2.34555 0 2.9204 0 2.9204C0 3.78527 0 4.2177 0.216333 4.57618C0.432667 4.93467 0.827892 5.15715 1.61835 5.60213C1.61835 5.60213 4.04587 6.96867 4.04587 6.96867C4.57622 7.26717 4.84139 7.4165 5.03126 7.58133C5.42666 7.92458 5.67007 8.32792 5.78037 8.82267C5.83333 9.06017 5.83333 9.33817 5.83333 9.89408C5.83333 9.89408 5.83333 12.1187 5.83333 12.1187C5.83333 12.8767 5.83333 13.2556 6.04327 13.5511C6.25321 13.8465 6.62607 13.9923 7.37183 14.2838C8.93733 14.8958 9.72008 15.2018 10.2767 14.8537C10.8333 14.5055 10.8333 13.7099 10.8333 12.1187C10.8333 12.1187 10.8333 9.89408 10.8333 9.89408C10.8333 9.33817 10.8333 9.06017 10.8863 8.82267C10.9966 8.32792 11.24 7.92458 11.6354 7.58133C11.8252 7.4165 12.0904 7.26717 12.6208 6.96867C12.6208 6.96867 15.0483 5.60213 15.0483 5.60213C15.8388 5.15715 16.234 4.93467 16.4503 4.57618C16.6667 4.2177 16.6667 3.78527 16.6667 2.9204C16.6667 2.9204 16.6667 2.34555 16.6667 2.34555C16.6667 1.23985 16.6667 0.687 16.3006 0.3435C15.9344 0 15.3452 0 14.1667 0C14.1667 0 14.1667 0 14.1667 0Z" fill="none" stroke-width="1.5" stroke="#F7F7F7" transform="translate(1.667 2.5)" />
  </g>
</svg>