<?xml version="1.0" encoding="utf-8"?>
<svg width="393" height="331" viewBox="0 0 393 331" fill="none" xmlns="http://www.w3.org/2000/svg">
  <defs>
    <clipPath id="clip_path_1">
      <rect width="393" height="331" />
    </clipPath>
  </defs>
  <g clip-path="url(#clip_path_1)">
    <rect width="393" height="331" />
    <path id="Path" d="M320.068 159.753C320.068 164.404 319.872 169.008 319.48 173.565C319.172 177.122 318.751 180.647 318.217 184.14C317.65 187.839 316.956 191.493 316.133 195.102C316.133 195.102 316.133 195.107 316.133 195.107C315.596 197.482 315.005 199.838 314.362 202.175C312.496 208.968 310.175 215.628 307.415 222.111C306.815 223.521 306.195 224.922 305.556 226.313C303.138 231.58 300.431 236.711 297.446 241.68C289.076 255.637 278.628 268.241 266.46 279.06C265.143 280.229 263.808 281.379 262.455 282.509C233.727 306.466 197.467 319.563 160.034 319.506C71.6484 319.506 0 247.983 0 159.753C0 71.5228 71.6484 0.000197772 160.034 0.000197772C196.178 -0.0566803 231.268 12.1563 259.542 34.6341C260.867 35.6824 262.176 36.7544 263.468 37.8499C269.773 43.1874 275.656 49.001 281.067 55.2395C281.067 55.2395 281.072 55.2395 281.072 55.2395C306.275 84.2406 320.125 121.36 320.068 159.753C320.068 159.753 320.068 159.753 320.068 159.753Z" fill="#F2F2F2" fill-rule="evenodd" transform="translate(0 -0)" />
    <path id="Path" d="M25.3882 43.6317C10.1431 34.5741 -1.36327 17.6467 0.13055 0C14.0683 13.3163 32.2753 21.2821 51.5302 22.488C58.9576 22.9262 67.2645 22.6416 72.732 27.6793C76.134 30.8138 77.7177 35.5329 77.9774 40.147C78.2371 44.7613 77.3112 49.351 76.39 53.8801C76.39 53.8801 76.707 54.9896 76.707 54.9896C58.9662 55.0562 40.6333 52.6893 25.3882 43.6317C25.3882 43.6317 25.3882 43.6317 25.3882 43.6317Z" fill="#E6E6E6" fill-rule="evenodd" transform="translate(21.854 143.716)" />
    <path id="Path" d="M0.781256 0.24379C6.88954 13.574 17.0502 24.6441 29.8199 31.8817C32.5651 33.4156 35.4837 34.7332 38.5851 35.3444C41.6128 35.9169 44.7389 35.6696 47.6385 34.6283C50.3616 33.7116 53.0407 32.459 55.9396 32.2191C58.9953 31.9661 61.8241 33.1429 64.0467 35.2041C66.7661 37.726 68.4155 41.0729 69.9146 44.4019C71.579 48.098 73.2492 51.9635 76.4404 54.6215C76.8271 54.9436 76.3039 55.5236 75.9178 55.2021C70.3656 50.5776 69.4594 42.8329 65.0212 37.3864C62.9503 34.845 60.0996 32.9112 56.7131 32.9622C53.7517 33.0068 50.9879 34.2961 48.2387 35.2481C45.352 36.2477 42.4602 36.7173 39.4126 36.2775C36.2951 35.8276 33.3188 34.6211 30.5464 33.164C24.2842 29.8129 18.5887 25.4998 13.6686 20.3827C8.021 14.5736 3.41044 7.8429 0.0364437 0.481796C-0.172194 0.026123 0.573978 -0.208893 0.781256 0.24382C0.781256 0.24382 0.781256 0.24379 0.781256 0.24379Z" fill="#FFFFFF" fill-rule="evenodd" transform="translate(21.575 143.454)" />
    <path id="Path" d="M13.4651 0.66539C10.352 4.74214 4.73857 5.9673 0.205173 3.55942C-0.238144 3.32201 0.110619 2.62315 0.55452 2.86089C4.77343 5.11172 10.0061 3.95848 12.8835 0.143661C13.1866 -0.257202 13.7664 0.2668 13.465 0.665359C13.465 0.665359 13.4651 0.66539 13.4651 0.66539Z" fill="#FFFFFF" fill-rule="evenodd" transform="translate(33.68 172.581)" />
    <path id="Path" d="M7.16951 13.587C6.53516 8.55309 4.02342 3.94275 0.135128 0.675354C-0.250366 0.351929 0.272717 -0.228256 0.657738 0.0947876C4.69762 3.50246 7.30171 8.30551 7.95031 13.5454C8.01179 14.0449 7.23066 14.0838 7.16951 13.587C7.16951 13.587 7.16951 13.587 7.16951 13.587Z" fill="#FFFFFF" fill-rule="evenodd" transform="translate(60.724 165.141)" />
    <path id="Path" d="M0.0993462 5.64909C1.60788 4.34412 2.35796 2.36937 2.09542 0.394028C2.02762 -0.104431 2.80886 -0.142792 2.87621 0.352432C3.15598 2.53525 2.33373 4.71458 0.680944 6.17081C0.533487 6.32443 0.291851 6.33733 0.128841 6.20024C-0.0307045 6.05568 -0.0438557 5.80981 0.0993595 5.64911C0.0993595 5.64911 0.0993462 5.64909 0.0993462 5.64909Z" fill="#FFFFFF" fill-rule="evenodd" transform="translate(30.466 152.012)" />
    <path id="Path" d="M10.2886 0C10.3398 0.310036 10.391 0.620087 10.4481 0.933067C11.158 5.09783 12.2056 9.19813 13.5808 13.1935C13.6822 13.5041 13.7896 13.8173 13.8997 14.1244C17.3155 23.7149 22.4852 32.589 29.1461 40.2956C31.7995 43.3598 34.6826 46.2181 37.7704 48.8457C42.0349 52.4742 46.948 56.0697 49.6822 60.7548C49.973 61.2404 50.2333 61.7435 50.4618 62.2612C50.4618 62.2612 38.849 88.7053 38.849 88.7053C38.7924 88.7521 38.7417 88.8019 38.685 88.8491C38.685 88.8491 38.2697 89.9261 38.2697 89.9261C38.101 89.8017 37.9286 89.6691 37.7599 89.5446C37.6617 89.4729 37.5661 89.3952 37.468 89.3234C37.4033 89.2737 37.3388 89.2237 37.2776 89.1825C37.256 89.1661 37.2346 89.1493 37.219 89.1355C37.1579 89.0943 37.1054 89.0496 37.0503 89.0111C36.085 88.2722 35.1232 87.5253 34.165 86.7704C34.159 86.7677 34.159 86.7677 34.1555 86.7592C26.8689 80.9881 20.0009 74.5591 14.3287 67.2938C14.1581 67.0752 13.9813 66.8542 13.816 66.6235C11.2775 63.3345 9.01249 59.8439 7.04363 56.1865C5.97199 54.1804 5.00277 52.1214 4.13971 50.0174C1.92015 44.5769 0.571663 38.8216 0.143692 32.9628C-0.707737 21.283 2.19226 9.46149 9.70775 0.666252C9.90017 0.44149 10.0901 0.222221 10.2886 0C10.2886 0 10.2886 0 10.2886 0Z" fill="#E6E6E6" fill-rule="evenodd" transform="translate(61.043 109.529)" />
    <path id="Path" d="M2.40537 0.519241C-0.757347 14.8339 0.678665 29.7794 6.50944 43.233C7.77618 46.1077 9.31182 48.9137 11.4196 51.2657C13.4917 53.5425 16.1368 55.2239 19.08 56.1351C21.8072 57.0398 24.7017 57.6499 27.1611 59.2006C29.7534 60.8351 31.3023 63.4749 31.8338 66.4564C32.484 70.1044 31.7824 73.7681 30.9715 77.327C30.0713 81.2785 29.0734 85.3687 30.0183 89.4089C30.1328 89.8985 29.3652 90.0472 29.2508 89.5584C27.6069 82.5291 31.5544 75.8007 31.2957 68.7846C31.1749 65.5108 30.0652 62.2535 27.3304 60.2589C24.939 58.5146 21.9547 57.8829 19.1854 56.9907C16.2777 56.0539 13.6855 54.6909 11.5174 52.5081C9.29965 50.2752 7.65089 47.5232 6.31607 44.6935C3.33716 38.2542 1.39102 31.3873 0.548943 24.3446C-0.456772 16.312 -0.0785828 8.16689 1.66714 0.261642C1.77538 -0.2276 2.51291 0.0332108 2.40536 0.519264C2.40536 0.519264 2.40537 0.519241 2.40537 0.519241Z" fill="#FFFFFF" fill-rule="evenodd" transform="translate(69.236 109.216)" />
    <path id="Path" d="M12.3719 6.22047C7.42742 7.60455 2.20652 5.20906 0.0391083 0.56189C-0.171661 0.105881 0.528282 -0.242493 0.739342 0.214111C2.75037 4.54689 7.62391 6.77098 12.2221 5.45441C12.7059 5.3165 12.8529 6.08339 12.3718 6.2205C12.3718 6.2205 12.3719 6.22047 12.3719 6.22047Z" fill="#FFFFFF" fill-rule="evenodd" transform="translate(61.241 142.007)" />
    <path id="Path" d="M0.0567169 14.9874C2.58633 10.5868 3.36147 5.3961 2.22755 0.450333C2.1148 -0.0395813 2.88238 -0.188431 2.995 0.300888C4.16537 5.44977 3.34772 10.8498 0.705261 15.4234C0.453102 15.8592 -0.194061 15.4208 0.0567322 14.9874C0.0567322 14.9874 0.0567169 14.9874 0.0567169 14.9874Z" fill="#FFFFFF" fill-rule="evenodd" transform="translate(86.816 150.087)" />
    <path id="Path" d="M0.315834 3.17796C2.30737 3.04266 4.09729 1.91675 5.07906 0.181763C5.32556 -0.256966 5.97248 0.181923 5.72757 0.61779C4.63443 2.52881 2.6635 3.7747 0.465538 3.94408C0.255157 3.97811 0.0544586 3.84317 0.00697327 3.63575C-0.0332336 3.42444 0.104561 3.22022 0.315834 3.17799C0.315834 3.17799 0.315834 3.17796 0.315834 3.17796Z" fill="#FFFFFF" fill-rule="evenodd" transform="translate(69.459 122.64)" />
    <path id="Path" d="M19.5875 0.254372L39.1749 229.147L0 232.087C0 232.087 0 3.16653 0 3.16653C4.66808 0.0831032 11.369 -0.399307 19.5875 0.254372C19.5875 0.254372 19.5875 0.254372 19.5875 0.254372Z" fill="#CCCCCC" fill-rule="evenodd" transform="translate(91.269 36.772)" />
    <path id="Path" d="M19.5875 0.254372L0 229.147L39.1749 232.087C39.1749 232.087 39.1749 3.16653 39.1749 3.16653C34.5069 0.0831032 27.806 -0.399307 19.5875 0.254372C19.5875 0.254372 19.5875 0.254372 19.5875 0.254372Z" fill="#CCCCCC" fill-rule="evenodd" transform="translate(187.956 36.772)" />
    <path id="Shape" d="M132.08 242.541C132.08 242.541 7.53271 242.541 7.53271 242.541C3.3744 242.536 0.00465393 239.173 0 235.022C0 235.022 0 7.51949 0 7.51949C0.00475311 3.3685 3.37452 0.00470352 7.53275 0C7.53275 0 132.08 0 132.08 0C136.238 0.00473022 139.608 3.36855 139.613 7.51949C139.613 7.51949 139.613 235.022 139.613 235.022C139.608 239.173 136.238 242.537 132.08 242.541C132.08 242.541 132.08 242.541 132.08 242.541ZM7.53278 2.4962C4.75485 2.49928 2.50367 4.74652 2.50059 7.51957C2.50059 7.51957 2.50059 235.022 2.50059 235.022C2.50377 237.795 4.75502 240.042 7.53298 240.045C7.53298 240.045 132.08 240.045 132.08 240.045C134.858 240.042 137.109 237.795 137.112 235.022C137.112 235.022 137.112 7.51957 137.112 7.51957C137.109 4.7469 134.858 2.4995 132.08 2.49622C132.08 2.49622 7.53278 2.4962 7.53278 2.4962Z" fill="#CCCCCC" transform="translate(89.186 35.778)" />
    <rect id="Rectangle" width="137.112" height="2.496" fill="#CCCCCC" fill-rule="evenodd" transform="translate(90.436 73.636)" />
    <rect id="Rectangle" width="137.112" height="2.496" fill="#CCCCCC" fill-rule="evenodd" transform="translate(90.436 115.238)" />
    <rect id="Rectangle" width="2.501" height="113.574" fill="#CCCCCC" fill-rule="evenodd" transform="translate(132.429 37.026)" />
    <rect id="Rectangle" width="2.501" height="113.574" fill="#CCCCCC" fill-rule="evenodd" transform="translate(183.054 37.026)" />
    <path id="Path" d="M175.454 22.4652C175.454 22.4652 11.2524 22.4652 11.2524 22.4652C5.03786 22.4652 0 17.4362 0 11.2326C0 5.02902 5.03786 0 11.2524 0C11.2524 0 175.454 0 175.454 0C181.668 0 186.706 5.02902 186.706 11.2326C186.706 17.4362 181.668 22.4652 175.454 22.4652C175.454 22.4652 175.454 22.4652 175.454 22.4652Z" fill="#CCCCCC" fill-rule="evenodd" transform="translate(67.723 262.718)" />
    <rect id="Rectangle" width="136.279" height="8.32" fill="#CCCCCC" fill-rule="evenodd" transform="translate(91.269 144.776)" />
    <path id="Path" d="M42.1765 35.4247C42.1765 35.4247 42.0035 35.3414 42.0035 35.3414C32.7134 30.8615 20.5478 30.8655 2.55632 35.356C2.55632 35.356 2.36423 35.404 2.36423 35.404C2.36423 35.404 2.30663 35.2147 2.30663 35.2147C0.403358 28.9851 -1.75265 21.9294 2.29768 18.458C2.35445 8.2715 11.3055 0 22.3001 0C33.2924 0 42.2422 8.26724 42.3023 18.4511C48.3275 23.0497 45.456 29.8452 42.2738 35.2594C42.2738 35.2594 42.1765 35.4247 42.1765 35.4247Z" fill="#2F2E41" fill-rule="evenodd" transform="translate(93.142 135.831)" />
    <path id="Path" d="M43.5311 6.97185C43.1939 8.64282 42.1327 10.0789 40.6328 10.8936C39.133 11.7083 37.3487 11.8181 35.76 11.1932C35.76 11.1932 2.92915 44.1275 2.92915 44.1275L0 33.9013C0 33.9013 32.6071 3.31732 32.6071 3.31732C33.8631 0.664551 36.9082 -0.631241 39.6952 0.301117C42.4821 1.23347 44.1301 4.0993 43.5311 6.97188C43.5311 6.97188 43.5311 6.97185 43.5311 6.97185Z" fill="#FFB6B6" fill-rule="evenodd" transform="translate(148.887 142.472)" />
    <path id="Path" d="M0.596977 26.9564C0.596977 26.9564 -2.38168 33.6947 4.96806 37.8501C12.3178 42.0055 38.0053 36.2644 42.1734 35.4628C46.3415 34.6611 61.9089 11.4052 61.9089 11.4052C61.9089 11.4052 59.7076 0 59.7076 0L39.0616 17.891C39.0616 17.891 0.596977 26.9564 0.596977 26.9564Z" fill="#006769" fill-rule="evenodd" transform="translate(110.68 154.193)" />
    <path id="Path" d="M0.200897 0.158112C0.200897 0.158112 0.617653 8.06256 0.617653 8.06256C0.617653 8.06256 -0.612427 15.0644 0.399231 16.5754C1.40327 18.0788 28.8012 18.2687 28.8012 18.2687C28.8012 18.2687 30.6115 8.5269 32.1708 0C32.1708 0 0.200897 0.158112 0.200897 0.158112Z" fill="#FFB6B6" fill-rule="evenodd" transform="translate(105.655 218.254)" />
    <path id="Path" d="M4.36508 24.25L10.093 23.0951L8.45345 0L0 1.70444L4.36508 24.25L4.36508 24.25Z" fill="#FFB6B6" fill-rule="evenodd" transform="translate(180.263 298.676)" />
    <path id="Path" d="M9.44197 24.4875L14.7668 22.0974L7.85915 0L0 3.52786L9.44197 24.4875L9.44197 24.4875Z" fill="#FFB6B6" fill-rule="evenodd" transform="translate(183.391 268.383)" />
    <path id="Path" d="M99.1577 57.4209L89.1315 63.0881C89.1315 63.0881 64.4046 23.4236 64.4046 23.4236C47.0462 35.0976 30.0718 40.6883 12.9601 43.6716C7.17474 44.6999 1.27621 44.1787 0.16552 38.3007C0.113586 38.0259 0.0721893 37.7496 0.0413208 37.4717C-0.641869 31.0512 7.35882 22.8215 8.37583 14.966C8.37583 14.966 30.2723 13.6539 30.2723 13.6539L32.9725 17.1098C32.9725 17.1098 58.295 1.56866 58.295 1.56866C63.3874 -1.55669 70.0853 0.133759 73.2551 5.34439C73.4224 5.61951 73.5778 5.90146 73.7212 6.19022C73.7212 6.19022 99.1577 57.4209 99.1577 57.4209Z" fill="#2F2E41" fill-rule="evenodd" transform="translate(98.313 222.999)" />
    <path id="Path" d="M97.2847 72.1642L85.8122 73.2285C85.8122 73.2285 65.0107 30.7604 65.0107 30.7604C44.3832 34.3018 24.9231 35.4363 8.09087 31.1523C2.3919 29.7218 -1.09171 23.8476 0.310036 18.0319C0.375549 17.76 0.451309 17.491 0.537315 17.225C2.55181 11.0895 7.82502 6.74826 11.9796 0C11.9796 0 42.3264 0.460175 42.3264 0.460175L38.9368 12.1347C38.9368 12.1347 68.4166 8.32666 68.4166 8.32666C74.345 7.56084 79.7594 11.8445 80.5098 17.8944C80.5494 18.2139 80.5753 18.5346 80.5875 18.8566C80.5875 18.8566 97.2847 72.1642 97.2847 72.1642Z" fill="#2F2E41" fill-rule="evenodd" transform="translate(94.05 234.939)" />
    <path id="Oval" d="M0 12.3009C0 5.50728 5.51698 0 12.3225 0C19.128 0 24.645 5.50728 24.645 12.3009C24.645 19.0944 19.128 24.6017 12.3225 24.6017C5.51698 24.6017 0 19.0944 0 12.3009Z" fill="#FFB6B6" fill-rule="evenodd" transform="translate(105.383 140.617)" />
    <path id="Path" d="M9.7838 0C9.7838 0 21.0824 1.3269 21.0824 1.3269C22.0591 1.44162 22.8554 2.16219 23.0654 3.12129C23.0654 3.12129 24.8622 11.329 24.8622 11.329C24.8622 11.329 36.0632 24.4964 36.0632 24.4964C36.0632 24.4964 40.0853 32.0247 38.5771 40.5568C37.0688 49.0889 36.4059 55.4286 36.4059 55.4286C36.4059 55.4286 6.35954 66.6745 5.354 65.1688C4.34846 63.6631 4.02213 56.824 4.02213 56.824C4.02213 56.824 0 12.1561 0 12.1561C0 12.1561 4.52493 4.62775 7.03879 4.62775C8.66121 4.57314 8.45306 0.92807 9.7838 0C9.7838 0 9.7838 0 9.7838 0Z" fill="#006769" fill-rule="evenodd" transform="translate(100.697 169.659)" />
    <path id="Oval" d="M0 3.43658C0 1.5386 1.28444 0 2.86887 0C4.45328 0 5.73772 1.5386 5.73772 3.43658C5.73772 5.33456 4.45328 6.87317 2.86887 6.87317C1.28444 6.87317 0 5.33456 0 3.43658Z" fill="#006769" fill-rule="evenodd" transform="translate(134.54 220.961)" />
    <path id="Path" d="M0 4.36865L8.73248 0L10.3783 3.83289C10.3783 3.83289 21.4209 6.06116 21.4209 6.06116C22.5404 6.2869 23.3827 7.2131 23.4998 8.34714C23.617 9.4812 22.9818 10.5595 21.9321 11.0086C21.9321 11.0086 11.2628 15.574 11.2628 15.574L7.79576 12.5696L8.7057 16.6682L4.68294 18.3895L0 4.36865Z" fill="#2F2E41" fill-rule="evenodd" transform="translate(181.786 312.611)" />
    <path id="Path" d="M0 4.5213L8.65417 0L10.3673 3.80341C10.3673 3.80341 21.4474 5.83743 21.4474 5.83743C22.5706 6.04349 23.4291 6.95477 23.5663 8.08658C23.7034 9.21835 23.0873 10.3077 22.0457 10.7752C22.0457 10.7752 11.4585 15.5272 11.4585 15.5272L7.93904 12.5841L8.92105 16.666L4.92924 18.4577L0 4.5213Z" fill="#2F2E41" fill-rule="evenodd" transform="translate(190.334 286.511)" />
    <path id="Path" d="M9.18488 14.8917C5.92937 14.897 2.75201 13.8963 0.0889282 12.0271C0.0889282 12.0271 0 11.9649 0 11.9649C0 11.9649 0 11.8566 0 11.8566C0.00751495 5.31137 5.32095 0.00737 11.8776 0C11.8776 0 16.8787 0 16.8787 0C23.4354 0.00743103 28.7487 5.31148 28.7562 11.8566C28.7493 13.3527 27.5498 14.5711 26.0514 14.6039C26.0514 14.6039 9.46603 14.8893 9.46603 14.8893C9.3723 14.8909 9.27828 14.8917 9.18488 14.8917C9.18488 14.8917 9.18488 14.8917 9.18488 14.8917Z" fill="#2F2E41" fill-rule="evenodd" transform="translate(101.48 134.167)" />
    <path id="Oval" d="M0 4.29945C0 1.92493 1.6506 0 3.68671 0C5.72283 0 7.37344 1.92493 7.37344 4.29945C7.37344 6.67398 5.72283 8.59891 3.68671 8.59891C1.6506 8.59891 0 6.67398 0 4.29945Z" fill="#2F2E41" fill-rule="evenodd" transform="translate(125.091 135.484)" />
    <path id="Oval" d="M0 4.00145C0 1.79152 1.79467 0 4.00851 0C6.22234 0 8.01701 1.79152 8.01701 4.00145C8.01701 6.2114 6.22234 8.00291 4.00851 8.00291C1.79467 8.00291 0 6.2114 0 4.00145Z" fill="#2F2E41" fill-rule="evenodd" transform="translate(99.763 134.95)" />
    <path id="Shape" d="M17.2018 0C17.2018 0 4.90221 0 4.90221 0C4.34059 -0.001297 3.80704 0.244934 3.44418 0.672836C2.19862 0.444336 0.947662 1.04422 0.347916 2.15764C-0.251846 3.27104 -0.063385 4.6436 0.814407 5.55482C1.69217 6.46608 3.05869 6.70781 4.1967 6.15315C4.1967 6.15315 5.21681 9.46227 5.21681 9.46227C5.46489 10.2673 6.20999 10.8167 7.05374 10.8166C7.05374 10.8166 15.0504 10.8166 15.0504 10.8166C15.8941 10.8166 16.6391 10.2672 16.8872 9.46227C16.8872 9.46227 19.0387 2.48268 19.0387 2.48268C19.218 1.9008 19.11 1.26846 18.7477 0.778748C18.3853 0.289032 17.8117 4.57764e-05 17.2018 0C17.2018 0 17.2018 0 17.2018 0ZM2.92545 5.61638C1.77461 5.61638 0.841675 4.68507 0.841675 3.53627C0.841675 2.38747 1.77461 1.45615 2.92545 1.45615C2.9635 1.45615 2.9989 1.46535 3.03654 1.46735C2.95367 1.8022 2.96371 2.15321 3.06564 2.48277C3.06564 2.48277 3.94576 5.33867 3.94576 5.33867C3.63568 5.51839 3.28395 5.61412 2.92538 5.61635C2.92538 5.61635 2.92545 5.61638 2.92545 5.61638Z" fill="#3F3D56" transform="translate(197.985 253.774)" />
    <path id="Path" d="M47.3055 33.9012C45.6052 34.0582 43.9226 33.4553 42.7104 32.2548C41.4983 31.0544 40.881 29.3795 41.0248 27.6811C41.0248 27.6811 0 5.73514 0 5.73514L8.97308 0C8.97308 0 47.6783 22.4063 47.6783 22.4063C50.5844 22.8462 52.7016 25.3864 52.6065 28.319C52.5114 31.2517 50.234 33.6498 47.3055 33.9012C47.3055 33.9012 47.3055 33.9012 47.3055 33.9012Z" fill="#FFB6B6" fill-rule="evenodd" transform="translate(112.959 210.842)" />
    <path id="Path" d="M9.38651 0.0303497C9.38651 0.0303497 2.06561 -0.884766 0.186653 7.33585C-1.6923 15.5565 11.1873 38.4736 13.1524 42.2294C15.1175 45.9852 41.9014 54.1994 41.9014 54.1994C41.9014 54.1994 52.2147 48.8221 52.2147 48.8221L29.1221 34.212C29.1221 34.212 9.38651 0.0303497 9.38651 0.0303497Z" fill="#006769" fill-rule="evenodd" transform="translate(97.17 176.216)" />
    <path id="Path" d="M4.5843 0C4.5843 0 7.08482 0 7.08482 0C9.61667 0 11.6691 2.04886 11.6691 4.57625C11.6691 4.57625 11.6691 4.57625 11.6691 4.57625L0 4.57625C0 4.57625 0 4.57625 0 4.57625C0 2.04886 2.05246 0 4.5843 0C4.5843 0 4.5843 0 4.5843 0Z" fill="#CCCCCC" fill-rule="evenodd" transform="translate(153.574 142.28)" />
    <path id="Oval" d="M0 24.7292C0 11.0716 11.0911 0 24.7727 0C38.4542 0 49.5453 11.0716 49.5453 24.7292C49.5453 38.3867 38.4542 49.4584 24.7727 49.4584C11.0911 49.4584 0 38.3867 0 24.7292Z" fill="#FCDC2A" fill-rule="evenodd" transform="translate(54.095 7.439)" />
    <path id="Path" d="M80.653 18.6513C74.0969 11.7858 66.4828 5.52279 57.469 2.21317C54.9582 1.28734 52.3548 0.634255 49.7038 0.265218C49.6825 0.262303 49.6623 0.266611 49.6411 0.264894C49.598 0.253803 49.5542 0.245234 49.5101 0.239232C45.8024 -0.232279 42.0391 -0.00547409 38.4152 0.907877C36.643 1.35181 34.9142 1.95302 33.2493 2.70433C31.5785 3.51799 29.9596 4.43385 28.4019 5.44665C25.1047 7.41686 21.4744 8.76877 17.6902 9.43572C15.7907 9.7771 13.8668 9.96559 11.937 9.99938C10.2626 10.0329 8.68356 10.091 7.09715 10.6948C3.66097 11.9847 1.03777 14.8201 0.0223999 18.3417C-0.0568161 18.6591 0.0785522 18.9912 0.357224 19.1631C0.786362 19.4699 1.2047 19.818 1.65559 20.0914C2.05669 20.2747 2.48508 20.3913 2.92383 20.4367C3.64068 20.5877 4.35842 20.7343 5.07707 20.8764C7.72462 21.4001 10.3832 21.8636 13.0527 22.267C18.4545 23.0833 23.8854 23.6583 29.3454 23.992C40.2836 24.6535 51.2594 24.3242 62.138 23.0082C68.2519 22.269 74.3242 21.2206 80.3316 19.8669C80.579 19.7947 80.7704 19.5984 80.8362 19.3497C80.9019 19.1009 80.8324 18.8359 80.653 18.6513C80.653 18.6513 80.653 18.6513 80.653 18.6513Z" fill="#E6E6E6" fill-rule="evenodd" transform="translate(74.062 12.228)" />
    <path id="Path" d="M57.4689 2.21316C54.9581 1.28734 52.3547 0.634266 49.7038 0.265217C49.6824 0.262302 49.6623 0.266613 49.6411 0.264893C49.5979 0.253803 49.5542 0.245239 49.5101 0.239235C45.8024 -0.232277 42.0391 -0.00547409 38.4152 0.907871C36.643 1.35181 34.9142 1.95303 33.2492 2.70434C31.5784 3.51801 29.9596 4.43386 28.4018 5.44666C25.1046 7.41687 21.4744 8.76878 17.6901 9.43572C15.7907 9.77711 13.8668 9.96559 11.9371 9.99939C10.2626 10.0329 8.68358 10.091 7.09717 10.6948C3.661 11.9847 1.03779 14.82 0.022398 18.3417C-0.0568047 18.659 0.0785561 18.9911 0.357235 19.1631C0.786377 19.4699 1.20473 19.818 1.6556 20.0913C2.05669 20.2746 2.48508 20.3912 2.92384 20.4366C3.64068 20.5876 4.35843 20.7342 5.07709 20.8764C7.72463 21.4 10.3832 21.8635 13.0527 22.267C18.4545 23.0833 23.8854 23.6583 29.3455 23.992C40.2836 24.6534 51.2593 24.3241 62.1379 23.0081C68.2518 22.2689 74.3242 21.2205 80.3317 19.8668C80.5791 19.7946 80.7705 19.5984 80.8363 19.3496C80.9021 19.1009 80.8326 18.8359 80.6532 18.6512C74.0968 11.7858 66.4827 5.52278 57.4689 2.21316C57.4689 2.21316 57.4689 2.21316 57.4689 2.21316Z" fill="#E6E6E6" fill-rule="evenodd" transform="translate(22.574 45.201)" />
    <path id="Path" d="M34.0822 24.9826L15.0315 0L0 8.48438L31.853 46.2434L34.0822 24.9826L34.0822 24.9826Z" fill="#3F3D56" fill-rule="evenodd" transform="translate(224.607 206.783)" />
    <path id="Path" d="M54.4979 56.654C54.921 67.1238 56.5459 77.5105 59.3407 87.6104C58.7406 89.0207 58.121 90.4213 57.4819 91.8122C55.0639 97.0798 52.3564 102.21 49.3719 107.18C41.0019 121.136 30.5538 133.74 18.3862 144.56C17.0693 145.729 15.7343 146.878 14.3812 148.008C6.6671 137.392 2.50374 125.676 0.857544 113.62C0.64917 112.089 0.478317 110.541 0.349121 109.002C0.349121 109.002 0.349121 108.994 0.349121 108.994C0.0330353 105.253 -0.0685272 101.497 0.0448914 97.7446C0.0490723 97.4451 0.0574036 97.1414 0.0699005 96.8377C0.215759 92.8273 0.578323 88.8085 1.1243 84.8271C1.1243 84.8271 1.1243 84.823 1.1243 84.823C1.18683 84.3654 1.24933 83.9077 1.32016 83.4501C1.5202 82.0772 1.74525 80.7044 1.99117 79.3398C3.42218 71.4699 5.41943 63.7131 7.96742 56.1298C7.96742 56.1298 7.96742 56.1257 7.96742 56.1257C8.03828 55.9052 8.10915 55.6888 8.18831 55.4725C8.46336 54.6488 8.7426 53.8334 9.03017 53.018C9.04802 52.9541 9.07027 52.8916 9.09682 52.8308C9.4677 51.7658 9.84694 50.709 10.2345 49.6607C10.3387 49.3695 10.4471 49.0782 10.5596 48.787C10.9972 47.618 11.4432 46.4573 11.8974 45.3132C12.0391 44.9471 12.185 44.581 12.3308 44.2191C12.4434 43.9404 12.5517 43.6616 12.6684 43.387C12.6684 43.387 12.6684 43.3829 12.6684 43.3829C13.3311 41.7479 14.002 40.1448 14.6814 38.5737C16.5859 34.1555 18.5447 29.9994 20.4534 26.1678C20.4534 26.1678 20.4575 26.1637 20.4575 26.1637C28.3801 10.3007 35.5816 0 35.5816 0C35.5816 0 62.6248 8.73648 62.6248 8.73648C59.3991 14.4485 56.9027 22.8729 55.5358 32.8117C54.4826 40.7114 54.1353 48.6888 54.4981 56.6498C54.4981 56.6498 54.4979 56.654 54.4979 56.654Z" fill="#3F3D56" fill-rule="evenodd" transform="translate(248.074 134.5)" />
    <path id="Path" d="M55.1575 12.0959C54.9991 11.7256 54.8199 11.3637 54.6366 11.0017C53.6859 9.16432 52.462 7.48117 51.0066 6.00946C50.7899 5.78896 50.5648 5.56847 50.3315 5.36046C45.2298 0.669632 38.0823 -1.09685 31.3775 0.676025C31.3775 0.676025 31.3608 0.684341 31.3608 0.684341L31.2358 0.717621C31.2358 0.717621 31.265 0.85907 31.265 0.85907C31.39 1.51813 31.5713 2.16531 31.8068 2.79355C31.8693 2.96413 31.9401 3.12637 32.011 3.28862C32.0401 3.36351 32.0776 3.43007 32.111 3.50494C32.111 3.50494 32.1068 3.50911 32.1151 3.50911C32.1151 3.51328 32.1193 3.51743 32.1193 3.52159C32.1985 3.67552 32.2735 3.83362 32.3569 3.98337C32.186 3.82112 32.0235 3.65471 31.8651 3.48415C31.7109 3.32605 31.5692 3.15964 31.4275 2.99324C30.9418 2.42776 30.5027 1.82394 30.1147 1.18768C30.1147 1.18768 30.048 1.07538 30.048 1.07538C30.048 1.07538 29.9313 1.12114 29.9313 1.12114C28.3587 1.66513 26.8585 2.39859 25.4637 3.30524C25.4637 3.30524 25.3137 3.40508 25.3137 3.40508C23.1602 4.81644 20.5078 5.24892 18.0163 4.59489C14.0895 3.5842 9.91806 4.26489 6.51805 6.47116C5.40414 7.19609 4.39703 8.07266 3.52577 9.07545C3.45074 9.16281 3.37573 9.25433 3.30074 9.34171C3.14236 9.53308 2.99234 9.72861 2.84647 9.9283C1.27985 12.0185 0.318314 14.498 0.0667267 17.0964C0.0667267 17.0964 0.0583801 17.1921 0.0583801 17.1921C0.0583801 17.1921 0.137558 17.2462 0.137558 17.2462C1.54764 18.211 3.14255 18.8739 4.82188 19.1932C3.767 19.3402 2.69876 19.3667 1.63786 19.2722C1.63786 19.2722 1.6337 19.2722 1.6337 19.2722C1.15244 19.2325 0.673813 19.1659 0.200058 19.0725C0.200058 19.0725 0.112534 19.0559 0.112534 19.0559L0.108353 19.0559L0 19.0351C0 19.0351 0.0166626 19.2348 0.0166626 19.2348C0.141129 21.7769 0.942459 24.2397 2.33801 26.3696C2.33801 26.3696 2.37968 26.4279 2.37968 26.4279C2.39503 26.4491 2.40895 26.4713 2.42134 26.4944C3.01259 27.3971 3.50446 28.3609 3.88832 29.3691C4.8627 31.8742 5.07721 34.6101 4.50511 37.2361C3.18034 42.9839 5.51492 48.9553 10.3897 52.2878C12.4822 53.7248 14.9205 54.5792 17.4537 54.7632C17.7996 54.7923 18.1497 54.8089 18.4997 54.8089C20.5038 54.8151 22.4869 54.4027 24.3218 53.5983C24.3218 53.5983 24.3885 53.5733 24.3885 53.5733C24.3885 53.5733 24.4051 53.4985 24.4051 53.4985C24.7579 52.3617 25.2536 51.2741 25.8804 50.2618C25.6753 51.0596 25.5717 51.8801 25.5721 52.7038C25.5721 52.7038 25.5721 52.9784 25.5721 52.9784C25.5721 52.9784 25.8096 52.8411 25.8096 52.8411C26.0138 52.7204 26.2222 52.5915 26.4097 52.4708C27.5355 51.737 28.555 50.8523 29.4395 49.8415C29.7855 49.4421 30.1355 49.0552 30.5023 48.6683C30.5023 48.6683 30.5064 48.6642 30.5064 48.6642C31.2191 47.907 31.9734 47.1665 32.7569 46.4593C34.4238 44.9648 36.2077 43.6057 38.0914 42.3947C39.9738 41.1881 41.942 40.1202 43.9802 39.1996C43.9802 39.1996 43.9844 39.1996 43.9844 39.1996C44.2136 39.0915 44.447 38.9875 44.6762 38.8876C45.691 38.4465 46.6681 37.9234 47.5976 37.3234C47.6309 37.3026 47.6601 37.2859 47.6893 37.2651C56.0092 31.8271 59.1685 21.1798 55.1575 12.0957C55.1575 12.0957 55.1575 12.0959 55.1575 12.0959Z" fill="#006769" fill-rule="evenodd" transform="translate(202.468 176.516)" />
    <path id="Path" d="M0.93634 7.19025C0.822647 7.69604 0.736465 8.20764 0.678268 8.72278C-0.0975952 6.27513 -0.210052 3.66603 0.352341 1.16092C0.439117 0.777634 0.504135 0.389847 0.555084 0C1.32512 2.31937 1.4568 4.80266 0.936325 7.19022C0.936325 7.19022 0.93634 7.19025 0.93634 7.19025Z" fill="#000000" fill-rule="evenodd" fill-opacity="0.15" transform="translate(206.723 212.469)" />
    <path id="Path" d="M4.55867 1.87302C3.32417 2.04411 2.07236 2.05008 0.836304 1.89075C0.512497 1.28131 0.233002 0.649429 0 0C1.37621 0.92717 2.92737 1.56448 4.55867 1.87302C4.55867 1.87302 4.55867 1.87302 4.55867 1.87302Z" fill="#000000" fill-rule="evenodd" fill-opacity="0.15" transform="translate(203.416 199.74)" />
    <path id="Path" d="M1.57866 0.226135C1.123 1.38943 0.820221 2.60675 0.677902 3.84769C0.297653 2.66583 0.0732117 1.43958 0.0102234 0.199829C0.0102234 0.199829 0 0 0 0C0 0 0.196655 0.0380859 0.196655 0.0380859C0.6539 0.123779 1.11516 0.186554 1.57869 0.226135C1.57869 0.226135 1.57866 0.226135 1.57866 0.226135Z" fill="#000000" fill-rule="evenodd" fill-opacity="0.15" transform="translate(202.575 195.429)" />
    <path id="Path" d="M6.46524 6.47107C9.86157 4.26161 14.0322 3.57985 17.957 4.59248C20.4493 5.25017 23.1043 4.81819 25.2584 3.40453C25.2584 3.40453 25.4089 3.30551 25.4089 3.30551C26.8022 2.39668 28.3018 1.66147 29.874 1.11623C29.874 1.11623 29.9941 1.0748 29.9941 1.0748C29.9941 1.0748 30.0597 1.18312 30.0597 1.18312C30.6814 2.20909 31.4346 3.14966 32.3002 3.98097C31.7744 3.00313 31.4061 1.94868 31.2091 0.85643C31.2091 0.85643 31.1807 0.712433 31.1807 0.712433C31.1807 0.712433 31.3229 0.67485 31.3229 0.67485C37.5992 -0.983322 44.2914 0.454575 49.3285 4.54356C54.3655 8.63257 57.1401 14.8795 56.7934 21.3513C55.4677 16.0971 52.0902 11.5913 47.4146 8.83942C42.7389 6.08754 37.1543 5.31859 31.9069 6.70418C31.9069 6.70418 31.7647 6.74178 31.7647 6.74178C31.7647 6.74178 31.7931 6.88577 31.7931 6.88577C31.9901 7.97801 32.3583 9.03246 32.8842 10.0103C32.0185 9.17897 31.2654 8.23842 30.6437 7.21246C30.6437 7.21246 30.578 7.10414 30.578 7.10414C30.578 7.10414 30.458 7.14557 30.458 7.14557C28.8857 7.69081 27.3862 8.42604 25.9928 9.33485C25.9928 9.33485 25.8423 9.43387 25.8423 9.43387C23.6882 10.8475 21.0333 11.2795 18.541 10.6218C11.888 8.8985 4.94225 12.1086 1.95427 18.2876C1.3092 17.9781 0.683838 17.6293 0.0816803 17.2432C0.0816803 17.2432 0 17.1916 0 17.1916C0 17.1916 0.00965881 17.0957 0.00965881 17.0957C0.429733 12.758 2.80585 8.84743 6.46524 6.47108C6.46524 6.47108 6.46524 6.47107 6.46524 6.47107Z" fill="#000000" fill-rule="evenodd" fill-opacity="0.15" transform="translate(202.628 176.393)" />
    <path id="Path" d="M169.975 49.363L169.58 49.1009C169.58 49.1009 169.292 49.4753 169.292 49.4753C167.066 52.2724 165.296 55.4018 164.045 58.7485C164.218 54.8931 164.893 51.0765 166.054 47.3953C166.054 47.3953 166.179 47.0084 166.179 47.0084C166.179 47.0084 165.82 46.8046 165.82 46.8046C161.157 44.1688 156.189 42.1122 151.026 40.6807C151.026 40.6807 150.463 40.5309 150.463 40.5309C142.46 38.3388 135.769 32.8504 132.063 25.4376C123.345 8.21324 104.844 -1.81245 85.6243 0.272402C85.6243 0.272402 85.6201 0.272402 85.6201 0.272402C85.5201 0.280722 85.4159 0.293205 85.3159 0.305685C85.1451 0.322327 84.9783 0.343126 84.8117 0.363928C84.4699 0.409691 84.1365 0.455454 83.8031 0.505375C83.5197 0.546976 83.2322 0.592739 82.9487 0.642662C82.7988 0.663465 82.6528 0.688425 82.507 0.717546C82.3612 0.742508 82.2111 0.767471 82.0653 0.796593C82.0653 0.796593 82.0611 0.796593 82.0611 0.796593C79.2629 1.32495 76.5199 2.11185 73.8677 3.14712C73.8677 3.14712 73.8635 3.14712 73.8635 3.14712L73.8635 3.15126C73.8635 3.15126 73.1926 3.41335 73.1926 3.41335C72.5008 3.69625 71.8145 3.99578 71.1338 4.31196C70.9796 4.38268 70.8296 4.45757 70.6754 4.5283C70.6337 4.5491 70.5878 4.5699 70.5462 4.59486C70.1086 4.80287 69.6752 5.01921 69.2459 5.24802C69.1834 5.27714 69.1209 5.31042 69.0584 5.3437C69.0584 5.3437 68.6583 5.55587 68.6583 5.55587C67.7789 6.03014 66.9149 6.53353 66.0661 7.06604C65.9953 7.10764 65.9285 7.14924 65.8577 7.195C65.7827 7.24492 65.7035 7.29485 65.6285 7.34477C65.5826 7.36973 65.5368 7.40302 65.491 7.43214C65.3618 7.51118 65.2367 7.59439 65.1117 7.68176C64.8617 7.84401 64.6116 8.01041 64.3657 8.18098C64.1115 8.35155 63.8615 8.53044 63.6114 8.70933C63.6114 8.70933 63.3614 8.88822 63.3614 8.88822C63.3614 8.88822 63.4072 9.19608 63.4072 9.19608C63.4489 9.44985 63.4864 9.70362 63.5323 9.95324C63.5739 10.2029 63.6156 10.4483 63.6615 10.6938C63.7323 11.1056 63.8115 11.5133 63.8907 11.9086C63.9448 12.1706 63.9949 12.4286 64.0532 12.6824C64.1074 12.9444 64.1657 13.2065 64.2282 13.4686C64.3491 14.0095 64.4783 14.5336 64.6158 15.0495C64.6825 15.3075 64.7533 15.5654 64.8284 15.8192C64.87 15.9731 64.9117 16.127 64.9575 16.2768C64.9909 16.3808 65.0242 16.4848 65.0576 16.5888C65.0659 16.6221 65.0742 16.6595 65.0867 16.697C65.096 16.7322 65.1071 16.7669 65.1201 16.801C65.1659 16.9549 65.2118 17.1047 65.2576 17.2503C65.2826 17.3293 65.3076 17.4084 65.3368 17.4833C65.3952 17.6621 65.4577 17.8452 65.5202 18.0199C65.5869 18.2196 65.6577 18.4193 65.7286 18.6148C65.7452 18.6648 65.7619 18.7105 65.7786 18.7604C65.7911 18.7979 65.8036 18.8353 65.8202 18.8728C65.8369 18.9144 65.8536 18.9601 65.8703 19.0017C65.9411 19.1889 66.0119 19.3803 66.087 19.5675C66.112 19.6341 66.137 19.7048 66.1662 19.7714C66.8418 21.4662 67.6718 23.0955 68.6459 24.6389C67.5664 23.7153 66.5274 22.7362 65.5285 21.7017C63.9863 20.1022 62.5654 18.3904 61.2776 16.5805C61.1734 16.439 61.0692 16.2934 60.9734 16.1478C60.7775 15.8691 60.5858 15.5904 60.3983 15.3075C60.1982 15.0162 60.0065 14.7125 59.819 14.413C59.6939 14.2133 59.5689 14.0095 59.4481 13.8098C59.3272 13.6184 59.2147 13.4312 59.1063 13.2398C59.1063 13.2398 58.7812 12.6824 58.7812 12.6824L58.7771 12.6824L58.7771 12.6865C58.7771 12.6865 58.3186 13.1358 58.3186 13.1358C58.1353 13.3147 57.9519 13.4936 57.7727 13.6725C52.1713 19.2984 48.114 26.2683 45.991 33.912C45.991 33.912 45.9285 34.1408 45.9285 34.1408C45.9285 34.1408 45.866 34.3779 45.866 34.3779C45.7452 34.8023 45.6243 35.2141 45.4951 35.6343C45.4951 35.6343 45.4951 35.6385 45.4951 35.6385C45.3701 36.0545 45.2367 36.4705 45.095 36.8782C44.9658 37.2651 44.8324 37.6479 44.6908 38.0306C44.6449 38.1596 44.5949 38.2885 44.5407 38.4175C44.4532 38.6671 44.3574 38.9126 44.2615 39.1622C44.2157 39.2745 44.1698 39.391 44.124 39.5033C44.0114 39.7779 43.8989 40.0525 43.7864 40.3229C43.7697 40.3645 43.7489 40.4103 43.728 40.4519C43.6947 40.5351 43.6572 40.6183 43.6239 40.6973C43.5363 40.897 43.4447 41.1009 43.3571 41.3005C43.2946 41.4295 43.2363 41.5626 43.1779 41.6916C43.1529 41.7499 43.1237 41.8081 43.0987 41.8663C42.9445 42.1992 42.7862 42.5278 42.6195 42.8523C42.4319 43.2351 42.2402 43.6178 42.036 43.9922C41.8568 44.3417 41.6693 44.6828 41.4734 45.024C41.1358 45.6272 40.7816 46.2263 40.4148 46.8087C40.2731 47.0334 40.1315 47.258 39.9856 47.4827C39.9522 47.5367 39.9189 47.5908 39.8856 47.6408C39.7647 47.8363 39.6397 48.0235 39.5105 48.2149C39.4229 48.3438 39.3354 48.4728 39.2479 48.5976C39.1021 48.8223 38.9479 49.0386 38.7895 49.2508C38.7478 49.3173 38.702 49.3797 38.6561 49.4421C38.4227 49.7666 38.1894 50.0828 37.9518 50.399C37.9435 50.4031 37.9435 50.4073 37.9393 50.4115C37.931 50.4115 37.931 50.4156 37.9268 50.4198C37.8226 50.5571 37.7184 50.6944 37.61 50.8275C37.4683 51.023 37.3141 51.2144 37.1599 51.4016C36.9099 51.7178 36.6474 52.0381 36.3806 52.3501C36.3723 52.3585 36.3681 52.3668 36.3598 52.3709C34.9789 53.9905 33.4831 55.5087 31.8839 56.9139C31.8547 56.9388 31.8339 56.9638 31.8047 56.9846C31.5797 57.1801 31.3546 57.3757 31.1212 57.567C31.0254 57.6461 30.9295 57.7251 30.8336 57.8042C30.6753 57.9373 30.5127 58.0704 30.3544 58.1911C30.3356 58.2102 30.3146 58.2269 30.2918 58.241C30.1501 58.3575 30.0126 58.4656 29.8709 58.5738C29.7001 58.7111 29.5292 58.8401 29.3541 58.969C28.529 59.5931 27.6816 60.1824 26.812 60.7371C26.6828 60.8245 26.5452 60.9119 26.4118 60.9951C26.3327 61.045 26.2535 61.0949 26.1785 61.1365C25.8617 61.332 25.545 61.5234 25.2283 61.7065C24.9115 61.8937 24.5865 62.0726 24.2656 62.2473C23.5779 62.6217 22.8986 63.0128 22.236 63.4205C21.9026 63.6285 21.5692 63.8365 21.2399 64.0487C19.9313 64.8974 18.6713 65.8057 17.4599 66.7736C16.2488 67.7421 15.0873 68.771 13.98 69.8564C13.8425 69.9895 13.7049 70.1268 13.5674 70.2682C13.2924 70.5387 13.0256 70.8132 12.7714 71.0878C12.363 71.508 11.9712 71.9407 11.5837 72.3775C9.53993 74.6924 7.73073 77.2035 6.18254 79.8742C5.40515 81.2078 4.69844 82.5812 4.06538 83.9887C3.58611 85.0413 3.14851 86.1188 2.75259 87.2087C2.49004 87.9368 2.24414 88.6718 2.01492 89.4137C1.90239 89.7839 1.79404 90.1584 1.68985 90.5328C1.33562 91.8016 1.0397 93.083 0.797989 94.3685C0.602097 95.4003 0.443726 96.4334 0.322876 97.4679C0.260361 97.9879 0.210342 98.5079 0.164505 99.0238C0.0571899 100.292 0.00239563 101.561 9.15527e-05 102.831C-0.00746155 106.641 0.456314 110.438 1.38097 114.136C1.58517 114.951 1.81161 115.763 2.06027 116.57C2.1853 116.973 2.31866 117.373 2.45203 117.772C2.7896 118.771 3.16328 119.759 3.5731 120.738C3.819 121.325 4.07738 121.907 4.34825 122.486C6.06987 126.162 8.2668 129.597 10.8829 132.703C11.3122 133.215 11.7553 133.718 12.2124 134.213C12.2166 134.213 12.2124 134.217 12.2124 134.217C13.3465 135.452 14.5472 136.624 15.8091 137.729C15.8091 137.729 15.8132 137.729 15.8132 137.729C16.3175 138.174 16.8301 138.605 17.3511 139.023C17.3552 139.018 17.3552 139.023 17.3552 139.023C17.8803 139.447 18.4096 139.855 18.9514 140.25C19.2223 140.445 19.4973 140.641 19.7766 140.836C20.3225 141.223 20.8796 141.596 21.4478 141.956C21.4478 141.956 21.4519 141.956 21.4519 141.956C22.0187 142.322 22.5939 142.671 23.1773 143.004C24.3484 143.674 25.5486 144.302 26.7822 144.872C26.7822 144.872 26.9906 144.968 26.9906 144.968C26.9906 144.968 27.2032 144.872 27.2032 144.872C29.1811 143.983 31.2201 143.237 33.3044 142.638C33.7628 142.505 34.2255 142.384 34.6839 142.268C35.8425 141.981 37.0094 141.739 38.1846 141.544C37.0396 142.117 35.9341 142.766 34.8756 143.487C34.0546 144.04 33.2461 144.643 32.4334 145.309C32.1625 145.529 31.8916 145.758 31.6207 145.991C31.6207 145.991 30.9456 146.573 30.9456 146.573C30.9456 146.573 31.7916 146.852 31.7916 146.852C32.1 146.952 32.4084 147.052 32.7168 147.143C33.1377 147.277 33.5545 147.397 33.9629 147.51C34.8548 147.759 35.7522 147.98 36.6552 148.171C36.8761 148.217 37.0927 148.263 37.3136 148.308C37.7429 148.392 38.1763 148.475 38.6098 148.55C38.6275 148.554 38.6456 148.557 38.6639 148.558C39.114 148.633 39.5683 148.703 40.0184 148.766C40.856 148.887 41.6937 148.982 42.5314 149.053C42.6231 149.065 42.7148 149.07 42.8107 149.074C43.0149 149.09 43.2149 149.107 43.4191 149.12C43.8692 149.149 44.3235 149.169 44.7778 149.186C44.8111 149.186 44.8403 149.19 44.8736 149.19C45.1028 149.199 45.332 149.207 45.5612 149.211C45.5612 149.211 45.5612 149.215 45.5654 149.211C45.7946 149.215 46.0238 149.219 46.2531 149.219C46.2531 149.219 47.52 149.219 47.52 149.219C47.7575 149.219 47.9951 149.223 48.2368 149.223C48.5702 149.223 48.9078 149.228 49.2412 149.232C49.3287 149.232 49.4204 149.236 49.5121 149.236C50.0455 149.244 50.579 149.257 51.1124 149.269C51.1457 149.269 51.1791 149.273 51.2124 149.273C51.7459 149.29 52.2793 149.307 52.8128 149.332C52.9295 149.336 53.0462 149.34 53.167 149.348C53.6796 149.369 54.1922 149.394 54.7048 149.423C54.8507 149.432 55.0007 149.444 55.1508 149.452C55.5383 149.473 55.9301 149.498 56.3177 149.527C56.5469 149.54 56.772 149.556 57.0012 149.577C57.9263 149.648 58.8474 149.727 59.7726 149.818C60.081 149.843 60.3894 149.877 60.6978 149.91C61.5229 149.997 62.3509 150.093 63.1817 150.197C63.5526 150.239 63.9235 150.289 64.2944 150.338C64.336 150.343 64.3777 150.347 64.4194 150.355C64.8778 150.417 65.3321 150.48 65.7905 150.546C66.0906 150.588 66.3906 150.634 66.6907 150.68C66.9991 150.725 67.3074 150.771 67.6159 150.825C67.7826 150.85 67.9493 150.879 68.1201 150.908C68.5202 150.971 68.9245 151.037 69.3288 151.112C69.3651 151.116 69.4013 151.121 69.4371 151.129C70.2956 151.279 71.1583 151.437 72.0168 151.607C72.5211 151.703 73.0212 151.803 73.5213 151.907C73.913 151.986 74.3048 152.069 74.6965 152.152C74.7632 152.165 74.8299 152.181 74.8966 152.198C74.9115 152.202 74.9269 152.205 74.9424 152.206C75.5342 152.335 76.1301 152.468 76.722 152.61C78.7766 153.084 80.8284 153.611 82.8775 154.191C83.3484 154.32 83.8193 154.457 84.2902 154.594C84.4903 154.653 84.6862 154.711 84.882 154.769C85.2904 154.89 85.6947 155.01 86.1031 155.139C86.4615 155.248 86.8241 155.36 87.1825 155.476C87.4075 155.547 87.6326 155.618 87.8577 155.693C88.2077 155.801 88.5578 155.913 88.9037 156.034C89.1996 156.125 89.4913 156.221 89.7831 156.325C90.1998 156.462 90.6207 156.604 91.0375 156.754C91.1583 156.795 91.2834 156.837 91.4043 156.882C91.9127 157.057 92.4211 157.236 92.9296 157.423C93.4255 157.602 93.9214 157.785 94.4132 157.968C94.755 158.097 95.0967 158.222 95.4342 158.355C95.8135 158.501 96.1928 158.646 96.5678 158.796C97.1096 159.008 97.6555 159.225 98.1973 159.445C98.6974 159.645 99.1934 159.849 99.6935 160.061C99.7851 160.098 99.881 160.136 99.9727 160.177C100.406 160.356 100.84 160.544 101.269 160.731C101.548 160.847 101.823 160.968 102.098 161.088C103.298 161.613 104.497 162.155 105.695 162.715C105.695 162.715 105.699 162.715 105.699 162.715C106.449 163.069 107.212 163.406 107.979 163.726C108.158 163.801 108.337 163.876 108.52 163.947C108.825 164.076 109.133 164.196 109.441 164.321C109.641 164.4 109.841 164.479 110.046 164.554C110.342 164.67 110.642 164.783 110.942 164.891C111.258 165.007 111.571 165.124 111.892 165.232C112.004 165.274 112.117 165.311 112.234 165.353C112.605 165.478 112.975 165.602 113.351 165.723C113.388 165.735 113.426 165.748 113.467 165.76C113.859 165.885 114.251 166.01 114.647 166.127C114.678 166.138 114.71 166.148 114.743 166.156C115.168 166.285 115.601 166.409 116.03 166.53C116.664 166.705 117.301 166.871 117.939 167.025C118.056 167.054 118.172 167.083 118.289 167.108C118.631 167.192 118.968 167.271 119.31 167.346C119.673 167.429 120.04 167.504 120.402 167.578C120.769 167.653 121.136 167.728 121.498 167.795C121.694 167.832 121.89 167.87 122.082 167.903C122.082 167.903 122.594 167.99 122.594 167.99C122.948 168.053 123.303 168.107 123.661 168.165C123.671 168.165 123.681 168.166 123.69 168.169C124.094 168.232 124.495 168.29 124.899 168.34C125.286 168.394 125.674 168.44 126.062 168.485C126.141 168.494 126.224 168.502 126.307 168.51C126.628 168.548 126.949 168.585 127.27 168.614C127.362 168.623 127.454 168.631 127.545 168.639C127.862 168.668 128.179 168.698 128.495 168.718C128.559 168.727 128.623 168.731 128.687 168.731C128.971 168.756 129.254 168.777 129.537 168.789C129.737 168.806 129.933 168.814 130.133 168.827C130.238 168.831 130.338 168.835 130.442 168.839C130.717 168.856 130.992 168.864 131.271 168.872C131.609 168.885 131.946 168.893 132.28 168.901C132.684 168.91 133.092 168.914 133.497 168.914C133.497 168.914 133.505 168.914 133.505 168.914C133.901 168.914 134.301 168.91 134.697 168.901C134.697 168.901 134.847 168.901 134.847 168.901C134.847 168.901 135.284 168.889 135.284 168.889C135.509 168.885 135.735 168.877 135.955 168.868C136.381 168.852 136.801 168.831 137.222 168.806C137.389 168.797 137.56 168.785 137.727 168.777C137.802 168.773 137.881 168.764 137.956 168.76C138.218 168.743 138.477 168.727 138.739 168.706C139.01 168.685 139.285 168.66 139.556 168.631C139.906 168.598 140.256 168.56 140.606 168.523C140.881 168.494 141.157 168.46 141.427 168.427C141.464 168.424 141.5 168.418 141.536 168.411C141.798 168.381 142.061 168.348 142.319 168.311C142.628 168.269 142.932 168.223 143.236 168.178C143.269 168.174 143.299 168.169 143.332 168.165C143.857 168.082 144.386 167.999 144.916 167.903C145.47 167.803 146.024 167.695 146.574 167.583C146.779 167.541 146.979 167.495 147.183 167.454C147.295 167.429 147.412 167.408 147.52 167.383C147.691 167.346 147.858 167.308 148.025 167.267C148.054 167.262 148.087 167.254 148.116 167.25C148.35 167.2 148.579 167.142 148.812 167.083C149.279 166.971 149.738 166.855 150.196 166.73C150.4 166.68 150.604 166.626 150.8 166.572C150.859 166.555 150.917 166.539 150.971 166.522C151.817 166.285 152.656 166.034 153.488 165.769C153.855 165.652 154.218 165.532 154.58 165.403C155.359 165.137 156.132 164.856 156.897 164.562C157.102 164.488 157.306 164.404 157.51 164.325C157.81 164.205 158.11 164.084 158.406 163.963C158.673 163.851 158.939 163.739 159.21 163.622C159.344 163.568 159.477 163.51 159.61 163.452C160.011 163.277 160.411 163.098 160.806 162.919C161.073 162.794 161.336 162.674 161.598 162.549C162.015 162.349 162.428 162.145 162.84 161.941C162.944 161.887 163.044 161.833 163.145 161.783C163.407 161.65 163.67 161.513 163.936 161.38C164.357 161.155 164.778 160.931 165.195 160.698C165.337 160.623 165.474 160.544 165.616 160.465C166.074 160.207 166.529 159.945 166.979 159.678C167.975 159.083 168.957 158.462 169.925 157.814C170.167 157.656 170.409 157.49 170.646 157.328C171.096 157.02 171.538 156.704 171.98 156.388C172.026 156.354 172.067 156.321 172.113 156.292C172.334 156.13 172.555 155.967 172.776 155.801C173.234 155.456 173.688 155.106 174.143 154.748C174.151 154.744 174.164 154.732 174.176 154.723C174.38 154.561 174.584 154.399 174.785 154.237C175.405 153.733 176.018 153.222 176.618 152.693C176.914 152.439 177.206 152.177 177.493 151.915C177.71 151.72 177.927 151.524 178.139 151.325C178.569 150.921 178.99 150.522 179.406 150.114C179.615 149.914 179.819 149.706 180.027 149.498C180.231 149.29 180.44 149.082 180.644 148.87C180.715 148.799 180.786 148.724 180.857 148.649C181.065 148.429 181.273 148.204 181.482 147.984C181.661 147.792 181.836 147.593 182.015 147.393C182.315 147.06 182.619 146.727 182.915 146.39C182.931 146.372 182.948 146.353 182.965 146.336C182.982 146.316 182.999 146.299 183.011 146.282C183.011 146.282 183.007 146.282 183.007 146.282C195.261 132.137 200.85 113.426 198.358 94.892C195.866 76.3579 185.531 59.7802 169.975 49.3615C169.975 49.3615 169.975 49.363 169.975 49.363Z" fill="#006769" fill-rule="evenodd" transform="translate(194.051 27.202)" />
    <path id="Shape" d="M89.3398 8.45353C87.7082 5.82508 86.4583 2.97889 85.6276 0C84.4343 0.129967 83.2486 0.306171 82.0704 0.52862C84.1678 3.45057 86.6083 6.11116 89.3398 8.45353ZM66.6864 17.7317L66.6244 17.9568C66.6029 18.0364 66.5807 18.1164 66.5586 18.1958C66.4369 18.6336 66.3074 19.0681 66.174 19.5007C64.8556 16.092 63.9297 12.5446 63.4143 8.927L63.3658 8.62002L63.6186 8.43966C66.7899 6.16487 70.2343 4.29575 73.8713 2.87601C70.6058 7.35925 68.1724 12.3908 66.6864 17.7317ZM36.3649 52.1015C38.9932 49.7733 41.8773 47.7496 44.9618 46.0691C54.4021 40.9305 61.7578 32.0686 65.5379 21.421C63.071 18.8651 60.9141 16.0282 59.1117 12.9688L58.7857 12.4132L58.3234 12.8628C52.4438 18.5782 48.1905 25.75 45.9984 33.6446L45.9364 33.8698C45.9148 33.9493 45.8926 34.0293 45.8705 34.1088C44.0463 40.7234 40.8028 46.8629 36.3649 52.1015ZM31.8911 56.6442C29.5582 58.7002 27.0033 60.4905 24.2735 61.9821C8.8727 70.3083 -0.510254 86.5902 0.0214691 104.066C0.553177 121.541 10.9087 137.225 26.7873 144.603L26.9981 144.7L27.2083 144.605C30.7103 143.026 34.4027 141.906 38.1931 141.275C35.8273 142.478 33.622 143.973 31.6289 145.724L30.9546 146.306L31.8005 146.585C32.5306 146.826 33.2609 147.047 33.9707 147.244C38.1416 148.404 42.4535 148.98 46.7831 148.955C66.4545 148.83 86.2787 153.369 105.705 162.449C109.036 164.003 112.492 165.278 116.035 166.26C140.409 172.989 166.486 165.107 183.026 146.011C168.652 153.095 152.166 154.639 136.723 150.347C133.18 149.365 129.724 148.09 126.393 146.536C106.967 137.457 87.1428 132.917 67.4713 133.042C63.1418 133.067 58.8298 132.491 54.6589 131.331C53.9491 131.134 53.2188 130.913 52.4887 130.672L51.6428 130.393L52.317 129.811C54.3102 128.06 56.5155 126.565 58.8813 125.362C55.0909 125.993 51.3985 127.113 47.8965 128.692L47.6863 128.787L47.4756 128.69C34.3322 122.58 24.8128 110.679 21.7526 96.5321C18.6924 82.3849 22.4443 67.6236 31.8911 56.6442Z" fill="#000000" fill-rule="evenodd" transform="translate(194.045 27.471)" />
  </g>
</svg>