<?xml version="1.0" encoding="utf-8"?>
<svg width="30" height="28" viewBox="0 0 30 28" fill="none" xmlns="http://www.w3.org/2000/svg">
  <defs>
    <clipPath id="clip_path_1">
      <rect width="30" height="28" />
    </clipPath>
  </defs>
  <g clip-path="url(#clip_path_1)">
    <rect width="30" height="28" />
    <path id="Shape" d="M15.5532 0.217383C15.2407 -0.0724609 14.7667 -0.0724609 14.449 0.217383C14.449 0.217383 0.282319 13.3424 0.282319 13.3424C-0.0614311 13.6596 -0.0978894 14.2174 0.209402 14.5783C0.516694 14.9393 1.04274 14.9775 1.38649 14.6549C1.38649 14.6549 3.3344 12.8502 3.3344 12.8502C3.3344 12.8502 3.3344 23.6236 3.3344 23.6236C3.3344 26.0408 5.19899 27.9986 7.50107 27.9986C7.50107 27.9986 22.5011 27.9986 22.5011 27.9986C24.8032 27.9986 26.6677 26.0408 26.6677 23.6236C26.6677 23.6236 26.6677 12.8502 26.6677 12.8502C26.6677 12.8502 28.6157 14.6549 28.6157 14.6549C28.9594 14.9721 29.4854 14.9393 29.7927 14.5783C30.1 14.2174 30.0636 13.665 29.7198 13.3424C29.7198 13.3424 15.5532 0.217383 15.5532 0.217383C15.5532 0.217383 15.5532 0.217383 15.5532 0.217383ZM5.00118 23.6237L5.00118 11.3026L15.0012 2.0385L25.0012 11.3026C25.0012 11.3026 25.0012 23.6237 25.0012 23.6237C25.0012 25.0729 23.8814 26.2487 22.5012 26.2487C22.5012 26.2487 19.1678 26.2487 19.1678 26.2487C19.1678 26.2487 19.1678 17.4987 19.1678 17.4987C19.1678 16.5307 18.4231 15.7487 17.5012 15.7487C17.5012 15.7487 12.5012 15.7487 12.5012 15.7487C11.5793 15.7487 10.8345 16.5307 10.8345 17.4987C10.8345 17.4987 10.8345 26.2487 10.8345 26.2487C10.8345 26.2487 7.50118 26.2487 7.50118 26.2487C6.12097 26.2487 5.00118 25.0729 5.00118 23.6237C5.00118 23.6237 5.00118 23.6237 5.00118 23.6237ZM12.5012 26.2486L12.5012 17.4986L17.5012 17.4986L17.5012 26.2486L12.5012 26.2486L12.5012 26.2486Z" fill="#000000" transform="translate(-0.001 0.001)" />
  </g>
</svg>