<?xml version="1.0" encoding="utf-8"?>
<svg width="39" height="39" viewBox="0 0 39 39" fill="none" xmlns="http://www.w3.org/2000/svg">
  <g transform="matrix(-1 0 0 1 39 0)">
    <rect width="39" height="39" />
    <path id="Path" d="M0.481824 20.9678C1.1164 21.6023 2.14535 21.6023 2.77991 20.9678C2.77991 20.9678 10.7219 13.0178 10.7219 13.0178C11.9901 11.7485 11.9896 9.69158 10.721 8.42278C10.721 8.42278 2.77407 0.475946 2.77407 0.475946C2.1395 -0.158648 1.11055 -0.158648 0.475958 0.475946C-0.158652 1.11056 -0.158652 2.13944 0.475958 2.77405C0.475958 2.77405 7.27759 9.57572 7.27759 9.57572C7.91232 10.2103 7.91232 11.2392 7.27759 11.8738C7.27759 11.8738 0.481824 18.6697 0.481824 18.6697C-0.152787 19.3043 -0.152787 20.3331 0.481824 20.9678C0.481824 20.9678 0.481824 20.9678 0.481824 20.9678Z" fill="#FFFFFF" transform="translate(15.298 8.758)" />
  </g>
</svg>