<?xml version="1.0" encoding="utf-8"?>
<svg width="210" height="86" viewBox="0 0 210 86" fill="none" xmlns="http://www.w3.org/2000/svg">
  <g>
    <rect width="111" height="45" />
    <path d="M7.90796 68.44Q4.83984 68.44 3.3562 66.6107Q1.88696 64.7813 1.88696 61.7132L1.88696 34.2154Q1.88696 29.7357 4.33569 27.6182Q6.78442 25.4864 10.2126 25.4864Q13.4536 25.4864 15.7151 27.6182Q17.991 29.7357 19.0569 34.345L23.6519 54.3382L25.1931 54.3382L29.7881 34.345Q30.854 29.7357 33.1875 27.6182Q35.521 25.4864 38.762 25.4864Q42.1902 25.4864 44.6389 27.6182Q47.0876 29.7357 47.0876 34.2154L47.0876 61.7132Q47.0876 64.7813 45.5752 66.6107Q44.0771 68.44 41.009 68.44Q38.0562 68.44 36.4573 66.6107Q34.8728 64.7813 34.8728 61.7132L34.8728 45.8397Q34.8728 45.2491 34.7144 44.7593Q34.5703 44.2552 33.9221 44.2552Q33.3892 44.2552 33.1587 44.7593Q32.9282 45.2491 32.7986 45.8397L30.5659 60.7049Q30.1482 63.1248 29.5864 64.8677Q29.0247 66.6107 27.8435 67.5325Q26.6624 68.44 24.4297 68.44Q22.2402 68.44 21.0303 67.5325Q19.8203 66.6107 19.2585 64.8677Q18.6968 63.1248 18.3511 60.7049L16.0464 45.8397Q15.9888 45.2491 15.7439 44.7593Q15.5134 44.2552 14.9229 44.2552Q14.3323 44.2552 14.1594 44.7593Q13.9866 45.2491 13.9866 45.8397L13.9866 61.7132Q13.9866 64.7813 12.4165 66.6107Q10.8608 68.44 7.90796 68.44ZM62.2059 80.5972Q58.2591 80.5972 55.7528 79.3008Q53.2464 78.0045 51.8204 75.8726Q50.6392 74.0433 50.4952 72.0411Q50.3512 70.0389 51.2298 68.296Q52.1229 66.553 53.8946 65.6024Q55.724 64.6085 57.5533 64.8101Q59.3826 65.0118 60.9095 66.1641Q62.4508 67.3165 63.2718 69.1458Q64.1505 71.0904 65.0579 71.9979Q65.9798 72.9197 67.4635 72.3868Q68.8751 71.9258 68.4862 69.794Q68.1116 67.6766 66.9305 64.7813L64.741 64.7813Q62.2059 64.7813 59.6707 62.952Q57.1356 61.1226 55.4215 57.1758L50.5816 45.9549Q49.4581 43.3045 50.3656 41.0718Q51.2874 38.8248 53.7074 37.8165Q55.9544 36.8226 58.1295 37.7012Q60.3189 38.5799 61.5577 41.4752L66.0374 51.9183Q67.161 54.4534 68.4862 55.577Q69.8258 56.7005 71.295 55.9371Q72.5914 55.2169 72.7066 53.9493Q72.8219 52.6817 71.4678 50.8524Q70.8773 50.0313 70.085 49.0374Q69.2928 48.0291 68.6734 46.7039Q68.054 45.3643 68.054 43.7222Q68.054 40.9422 69.941 39.1417Q71.828 37.3411 74.8961 37.3411Q77.6617 37.3411 79.347 39.1129Q81.0323 40.8846 81.0323 43.7222Q81.0323 45.7244 80.557 48.1443Q80.0816 50.5643 79.491 52.6241L75.2418 68.1519Q74.3055 71.6234 72.7642 74.4466Q71.2374 77.2842 68.7022 78.9407Q66.1671 80.5972 62.2059 80.5972ZM103.951 68.44Q100.696 68.44 98.5351 66.4378Q96.3889 64.4212 95.7983 61.2379L94.7468 61.2379L94.7468 74.8067Q94.7468 77.2266 93.3784 78.9119Q92.0244 80.5972 89.2587 80.5972Q86.5939 80.5972 85.1535 78.9119Q83.7131 77.2266 83.7131 74.6915L83.7131 52.6241Q83.7131 49.6712 83.497 47.6402Q83.2953 45.6092 83.1225 43.9527Q82.8776 41.4752 84.1164 39.7322Q85.3552 37.9893 88.1352 37.6436Q91.7363 37.1683 93.2343 38.9112Q94.7468 40.6541 94.7468 44.3128L94.7468 47.136L94.9772 47.1937Q95.2653 44.9034 96.36 42.6851Q97.4548 40.4669 99.457 39.0264Q101.474 37.586 104.542 37.586Q109.67 37.586 112.176 41.6912Q114.682 45.782 114.682 52.6241Q114.682 68.44 103.951 68.44ZM94.5019 52.5089Q94.5019 53.4595 94.7468 53.9781Q95.0925 55.1016 96.2448 55.6058Q97.3972 56.1099 99.7018 56.1099Q102.64 56.1099 103.735 55.2313Q104.83 54.3382 104.83 52.5089Q104.83 50.6219 103.764 49.772Q102.712 48.9078 99.7595 48.9078Q97.3972 48.9078 96.2448 49.4119Q95.0925 49.9161 94.7468 51.0396Q94.5019 51.5726 94.5019 52.5089ZM125.506 68.44Q121.141 68.44 118.693 66.0777Q116.244 63.7154 116.244 59.4661Q116.244 55.2169 119.067 53.3011Q121.905 51.3853 126.327 51.3853Q128.92 51.3853 131.037 51.7454Q133.169 52.0911 134.883 52.7393L135.056 52.7393L135.056 51.8607Q135.056 50.5067 134.048 49.7144Q133.054 48.9078 131.527 48.9654Q130.043 48.9654 129.006 49.1526Q127.983 49.3255 126.442 49.7432Q123.619 50.449 121.545 49.628Q119.485 48.7925 118.721 46.3726Q118.016 43.8375 119.038 42.1234Q120.075 40.4092 122.193 39.473Q124.022 38.5799 126.298 38.0037Q128.574 37.4131 131.224 37.4131Q138.96 37.4131 142.575 41.1583Q146.205 44.9034 146.205 53.69L146.205 62.8367Q146.205 65.2567 144.736 66.8555Q143.266 68.44 140.659 68.44Q137.836 68.44 136.439 66.8555Q135.056 65.2567 135.056 62.952L135.056 61.598L133.875 61.598Q133.875 63.1248 133.313 64.7237Q132.766 66.3226 131.023 67.3885Q129.28 68.44 125.506 68.44ZM126.096 55.5193Q126.096 56.5276 126.831 56.9454Q127.566 57.3487 130.043 57.3487Q132.29 57.3487 133.169 56.9454Q134.062 56.5276 134.062 55.5193Q134.062 54.5687 133.169 54.1942Q132.29 53.8052 130.043 53.8052Q127.566 53.8052 126.831 54.1942Q126.096 54.5687 126.096 55.5193ZM164.637 68.6129Q161.511 68.6129 159.005 67.2012Q156.498 65.7896 155.087 63.168Q153.675 60.532 153.675 56.9886L153.675 46.6031L151.486 46.9056Q149.714 47.136 148.36 45.6668Q147.006 44.1976 147.006 41.9505Q147.006 39.7034 148.36 38.263Q149.714 36.8226 151.486 37.053L153.675 37.3411L153.603 33.3367Q153.545 30.9744 154.957 29.5916Q156.383 28.2088 159.091 28.2088Q161.814 28.2088 163.283 29.5916Q164.766 30.9744 164.637 33.3367L164.522 37.3411L167.647 36.9378Q170.845 36.4625 172.487 38.0901Q174.144 39.7034 174.144 41.9505Q174.144 44.1976 172.516 45.8253Q170.903 47.4385 167.835 47.0208L164.522 46.6031L164.522 55.4041Q164.522 56.1675 165.055 56.7869Q165.587 57.4063 166.351 57.1758Q167.244 56.931 168.209 56.1675Q169.189 55.4041 170.715 55.4041Q173.02 55.4041 174.259 57.0606Q175.498 58.7027 175.498 61.1226Q175.498 63.0096 174.172 64.7525Q172.847 66.4954 170.427 67.5613Q168.007 68.6129 164.637 68.6129ZM183.963 68.44Q181.356 68.44 179.858 66.8843Q178.36 65.3143 178.36 63.0096L178.36 28.857Q178.36 26.3795 179.858 24.6653Q181.356 22.9512 184.136 22.9512Q186.844 22.9512 188.227 24.6653Q189.624 26.3795 189.624 28.9146L189.624 46.5455L190.69 46.5455Q190.69 43.1893 191.9 41.2447Q193.11 39.3001 195.026 38.4503Q196.941 37.586 198.944 37.586Q202.487 37.586 204.345 39.3289Q206.203 41.0574 206.88 43.9527Q207.557 46.848 207.557 50.2618L207.557 63.0096Q207.557 65.4295 205.987 66.942Q204.432 68.44 201.839 68.44Q199.174 68.44 197.633 66.942Q196.106 65.4295 196.106 63.0096L196.106 52.5665Q196.106 50.449 195.285 49.2679Q194.464 48.0867 192.865 48.0867Q191.281 48.0867 190.445 49.3831Q189.624 50.6795 189.624 52.6817L189.624 63.0096Q189.624 65.3143 188.112 66.8843Q186.614 68.44 183.963 68.44Z" fill="#40A578" />
  </g>
</svg>