<?xml version="1.0" encoding="utf-8"?>
<svg width="673" height="405" viewBox="0 0 673 405" fill="none" xmlns="http://www.w3.org/2000/svg">
  <g>
    <rect width="673" height="405" />
    <path id="Shape" d="M1.10517 60.7605C1.06015 60.5621 -3.29413 40.6885 5.59839 24.1823C14.4909 7.67682 33.4727 0.397583 33.6634 0.325653C33.6634 0.325653 34.5309 0 34.5309 0C34.5309 0 34.7359 0.90506 34.7359 0.90506C34.7809 1.10349 39.1351 20.977 30.2426 37.4832C21.3506 53.9887 2.36837 61.268 2.17765 61.3399C2.17765 61.3399 1.30971 61.6656 1.30971 61.6656C1.30971 61.6656 1.10517 60.7605 1.10517 60.7605ZM33.3412 2.20859C29.539 3.84561 14.5328 11.0103 7.02236 24.9507C-0.488857 38.8927 1.7773 55.3799 2.49992 59.4571C6.30054 57.824 21.3009 50.6704 28.8188 36.715C36.3296 22.7737 34.0643 6.28799 33.3412 2.20853C33.3412 2.20853 33.3412 2.20859 33.3412 2.20859Z" fill="#F1F1F1" transform="translate(34.008 343.334)" />
    <path id="Path" d="M22.1348 6.73621C6.15452 16.3591 0 35.4729 0 35.4729C0 35.4729 19.7546 38.9848 35.7349 29.3619C51.7151 19.739 57.8696 0.625214 57.8696 0.625214C57.8696 0.625214 38.115 -2.88672 22.1348 6.73621C22.1348 6.73621 22.1348 6.73621 22.1348 6.73621Z" fill="#F1F1F1" fill-rule="evenodd" transform="translate(35.32 368.292)" />
    <path id="Path" d="M28.281 29.0658C28.7742 26.5172 28.1142 23.8808 26.4786 21.866C24.8429 19.8513 22.3997 18.6651 19.8063 18.6268C19.8063 18.6268 12.4061 0 12.4061 0L0 1.74036C0 1.74036 10.8196 27.8981 10.8196 27.8981C11.049 32.3611 14.5772 35.9469 19.0321 36.2449C23.487 36.5427 27.4605 33.4585 28.281 29.0658C28.281 29.0658 28.281 29.0658 28.281 29.0658Z" fill="#9F616A" fill-rule="evenodd" transform="translate(271.174 191.698)" />
    <path id="Path" d="M27.7988 139.339L23.9547 130.164L0 84.5249L1.30251 0.075943C1.30251 0.075943 1.55258 0.0427628 1.55258 0.0427628C16.8806 -1.98422 27.2514 68.705 27.6855 71.7154C27.6855 71.7154 42.8206 123.525 42.8206 123.525L46.4235 134.945L27.7988 139.339Z" fill="#006769" fill-rule="evenodd" transform="translate(248.801 74.88)" />
    <path id="Path" d="M0.00242615 44.9651L11.6492 44.9643L17.1896 0L0 0.000823975L0.00242615 44.9651L0.00242615 44.9651Z" fill="#9F616A" fill-rule="evenodd" transform="translate(239.789 347.328)" />
    <path id="Path" d="M0 0.000946045L22.937 0C22.937 0 22.9379 0 22.9379 0C31.0105 0.000457764 37.5546 6.55029 37.5552 14.6302C37.5552 14.6302 37.5552 15.1056 37.5552 15.1056L0.000671387 15.107L0 0.000946045Z" fill="#2F2E41" fill-rule="evenodd" transform="translate(236.821 388.486)" />
    <path id="Path" d="M0 36.8911L9.55634 43.5559L39.7869 9.83691L25.6833 0L0 36.8911L0 36.8911Z" fill="#9F616A" fill-rule="evenodd" transform="translate(132.703 337.641)" />
    <path id="Path" d="M8.62848 0L27.4472 13.1252C27.4472 13.1252 27.448 13.1258 27.448 13.1258C34.0708 17.7458 35.6982 26.8644 31.0832 33.4937C31.0832 33.4937 30.8116 33.8838 30.8116 33.8838L0 12.3939L8.62848 0Z" fill="#2F2E41" fill-rule="evenodd" transform="translate(123.811 369.71)" />
    <path id="Path" d="M90.299 179.911L89.7957 95.561L82.4674 42.5226L68.8046 89.165L68.778 89.2033L19.2657 161.149L0 151.379C0 151.379 0.10556 151.128 0.10556 151.128C1.28293 148.325 29.0262 82.494 36.4833 82.494C37.8053 82.5866 39.0882 82.0224 39.9141 80.9851C42.1028 78.0598 40.3204 71.8525 40.3021 71.7902C38.1674 62.9304 43.5348 59.913 44.6038 59.4092C44.6038 59.4092 47.4792 0 47.4792 0L47.7772 0.0205688L125.727 5.49315L122.457 79.7706L115.422 177.089L115.18 177.116L90.299 179.911Z" fill="#2F2E41" fill-rule="evenodd" transform="translate(143.092 201.813)" />
    <path id="Path" d="M84.17 149.684L83.8329 149.656L0 142.892L0.20694 115.129L4.3101 42.6387L4.33337 42.5884L21.0432 6.27879L32.8884 0.910278L50.1704 0L50.2126 0.0105743L65.9844 3.92161L82.3912 121.805L84.17 149.684Z" fill="#006769" fill-rule="evenodd" transform="translate(185.84 70.787)" />
    <path id="Oval" d="M0 22.0963C0 9.89287 9.88396 0 22.0764 0C34.2689 0 44.1529 9.89287 44.1529 22.0963C44.1529 34.2998 34.2689 44.1927 22.0764 44.1927C9.88396 44.1927 0 34.2998 0 22.0963Z" fill="#9F616A" fill-rule="evenodd" transform="translate(206.055 20)" />
    <path id="Path" d="M2.88672 32.3813C2.88672 32.3813 2.88672 23.7737 2.88672 23.7737C2.88672 23.7737 -4.04863 15.5982 3.58026 13.5388C3.58026 13.5388 5.66086 -7.05523 23.6927 2.55533C23.6927 2.55533 48.6598 -1.56349 45.8857 12.8524C45.8857 12.8524 52.1275 9.08885 50.0469 18.6994C50.0469 18.6994 46.0229 34.1803 46.0229 34.1803C46.0229 34.1803 47.9663 23.9541 41.7245 22.5811C41.7245 22.5811 38.2568 20.5217 38.2568 20.5217C38.2568 20.5217 28.5474 30.1322 13.9832 18.4623C13.9832 18.4623 7.74142 16.9712 8.43497 23.1494C9.12851 29.3276 2.88672 32.3813 2.88672 32.3813C2.88672 32.3813 2.88672 32.3813 2.88672 32.3813Z" fill="#2F2E41" fill-rule="evenodd" transform="translate(203.047 15.261)" />
    <path id="Path" d="M32.7211 25.7426C32.7493 23.1467 31.6273 20.6717 29.657 18.9835C27.6867 17.2952 25.0705 16.5672 22.5123 16.9952C22.5123 16.9952 11.8926 0 11.8926 0L0 3.94043C0 3.94043 15.3339 27.7302 15.3339 27.7302C16.3597 32.0795 20.4735 34.9735 24.9096 34.4664C29.3456 33.9593 32.7016 30.2115 32.7211 25.7426C32.7211 25.7426 32.7211 25.7426 32.7211 25.7426Z" fill="#9F616A" fill-rule="evenodd" transform="translate(193.112 173.995)" />
    <path id="Path" d="M19.2126 117.63L0 78.5879C0 78.5879 0.016983 78.493 0.016983 78.493C0.0944061 78.0607 7.82816 35.0806 13.7431 19.2824C19.6954 3.38415 27.8431 0.192154 28.187 0.0640488C28.187 0.0640488 28.3589 0 28.3589 0L35.6645 7.01383L25.5445 74.6225L36.453 107.229L19.2126 117.63Z" fill="#006769" fill-rule="evenodd" transform="translate(179.193 76.75)" />
    <rect id="Rectangle" width="37.2" height="37.233" fill="#F1F1F1" fill-rule="evenodd" transform="translate(635.8 0)" />
    <rect id="Rectangle" width="37.2" height="37.233" fill="#F1F1F1" fill-rule="evenodd" transform="translate(344.671 144.887)" />
    <path id="Path" d="M0 149.022L294.102 149.022L294.102 0L0 0L0 149.022Z" fill="#FFFFFF" fill-rule="evenodd" transform="translate(365.55 16.783)" />
    <path id="Shape" d="M298.954 153.879L0 153.879L0 0L298.954 0L298.954 153.879ZM4.85208 149.022L294.102 149.022L294.102 4.85653L4.85208 4.85653L4.85208 149.022Z" fill="#E5E5E5" transform="translate(363.123 14.354)" />
    <rect id="Rectangle" width="226.278" height="7.511" fill="#E5E5E5" fill-rule="evenodd" transform="translate(400.851 69.057)" />
    <rect id="Rectangle" width="226.278" height="7.511" fill="#E5E5E5" fill-rule="evenodd" transform="translate(400.851 87.271)" />
    <rect id="Rectangle" width="42.052" height="6.518" fill="#006769" fill-rule="evenodd" transform="translate(585.077 114.166)" />
    <path id="Path" d="M308.921 1.61884C308.921 1.61884 0.808694 1.61884 0.808694 1.61884C0.362059 1.61884 0 1.25647 0 0.809418C0 0.362366 0.362059 0 0.808694 0C0.808694 0 308.921 0 308.921 0C309.368 0 309.73 0.362366 309.73 0.809418C309.73 1.25647 309.368 1.61884 308.921 1.61884C308.921 1.61884 308.921 1.61884 308.921 1.61884Z" fill="#CBCBCB" fill-rule="evenodd" transform="translate(0 403.348)" />
  </g>
</svg>