<?xml version="1.0" encoding="utf-8"?>
<svg width="616" height="368" viewBox="0 0 616 368" fill="none" xmlns="http://www.w3.org/2000/svg">
  <g>
    <rect width="616" height="368" />
    <path id="Path" d="M11.6197 117.807C3.73328 111.149 -1.0571 100.63 0.199188 90.3891C1.45547 80.1487 9.23636 70.7346 19.3294 68.5601C29.4224 66.3855 40.9277 72.4051 43.9933 82.2569C45.6805 63.263 47.6245 43.4732 57.7307 27.2982C66.8815 12.652 82.7309 2.17215 99.9081 0.297287C117.085 -1.57758 135.171 5.50351 145.883 19.0509C156.596 32.5983 159.219 52.2933 151.716 67.8468C146.189 79.3045 136.006 87.8315 125.337 94.7686C90.8607 116.996 49.511 126.035 8.89597 120.223C8.89597 120.223 11.6197 117.807 11.6197 117.807Z" fill="#F2F2F2" fill-rule="evenodd" transform="translate(460.005 246.031)" />
    <path id="Path" d="M82.6686 0.390305C68.4953 11.9258 55.4928 24.8273 43.8491 38.9084C25.6269 60.8697 10.8812 85.4923 0.125885 111.919C-0.661469 113.846 2.47147 114.686 3.25 112.779C20.8476 69.8311 48.9406 31.9772 84.9595 2.67941C86.577 1.36333 84.2728 -0.914948 82.6686 0.390259C82.6686 0.390259 82.6686 0.390305 82.6686 0.390305Z" fill="#FFFFFF" fill-rule="evenodd" transform="translate(506.233 251.537)" />
    <path id="Path" d="M198.3 161.809C209.132 152.663 215.712 138.215 213.987 124.149C212.261 110.084 201.574 97.154 187.711 94.1672C173.848 91.1804 158.046 99.4483 153.835 112.98C151.518 86.8917 148.848 59.7105 134.967 37.494C122.398 17.3775 100.629 2.98338 77.0362 0.40831C53.4433 -2.16675 28.6031 7.55905 13.8891 26.1664C-0.82494 44.7738 -4.42761 71.8249 5.87771 93.1876C13.4693 108.925 27.4556 120.637 42.1098 130.165C88.8618 160.563 146.857 173.241 202.041 165.126C202.041 165.126 198.3 161.809 198.3 161.809Z" fill="#F2F2F2" fill-rule="evenodd" transform="translate(0 200.221)" />
    <path id="Path" d="M3.90271 0.535767C23.3698 16.3798 41.2289 34.1002 57.2215 53.4406C73.2164 72.7609 87.2983 93.586 99.2692 115.623C105.96 127.985 111.971 140.703 117.275 153.719C118.356 156.367 114.053 157.52 112.984 154.901C103.59 131.953 91.9674 109.98 78.2835 89.2969C64.666 68.689 49.08 49.4496 31.7446 31.849C21.9397 21.899 11.5947 12.4952 0.756496 3.68021C-1.46506 1.87257 1.69984 -1.25667 3.90305 0.536057C3.90305 0.536057 3.90271 0.535767 3.90271 0.535767Z" fill="#FFFFFF" fill-rule="evenodd" transform="translate(33.317 207.783)" />
    <path id="Path" d="M258.437 367.194L0 367.194C0 367.194 0 102.234 0 102.234C0 45.862 45.8972 0 102.312 0C102.312 0 156.124 0 156.124 0C212.54 0 258.437 45.862 258.437 102.234C258.437 102.234 258.437 367.194 258.437 367.194Z" fill="#F2F2F2" fill-rule="evenodd" transform="translate(183.738 0)" />
    <path id="Path" d="M204.626 367.192L0.000350952 367.192C0.000350952 367.192 0.000350952 102.232 0.000350952 102.232C-0.056015 80.6308 6.78935 59.5762 19.5397 42.1331C20.0098 41.4929 20.4786 40.8611 20.9621 40.2361C27.1293 32.1537 34.4685 25.0356 42.7374 19.1168C43.2045 18.7772 43.6734 18.4435 44.1493 18.1097C51.0685 13.3252 58.5532 9.41395 66.433 6.46498C66.901 6.28776 67.3774 6.11019 67.8538 5.93988C74.9804 3.39855 82.368 1.65775 89.8801 0.749641C90.3458 0.686076 90.8239 0.636329 91.3021 0.586583C98.6226 -0.195529 106.006 -0.195529 113.326 0.586594C113.803 0.63634 114.281 0.686087 114.752 0.750342C122.262 1.65853 129.648 3.3991 136.773 5.9399C137.249 6.11021 137.726 6.28778 138.195 6.46534C145.978 9.37712 153.374 13.2301 160.22 17.9381C160.696 18.2646 161.172 18.5983 161.641 18.932C166.276 22.238 170.629 25.9211 174.657 29.9436C177.887 33.1702 180.897 36.6095 183.667 40.2385C184.148 40.8614 184.617 41.4932 185.086 42.1323C197.837 59.5758 204.682 80.631 204.626 102.232C204.626 102.232 204.626 367.192 204.626 367.192Z" fill="#CCCCCC" fill-rule="evenodd" transform="translate(183.738 0.002)" />
    <path id="Oval" d="M0 11.3201C0 5.06816 5.07205 0 11.3287 0C17.5854 0 22.6575 5.06816 22.6575 11.3201C22.6575 17.572 17.5854 22.6401 11.3287 22.6401C5.07205 22.6401 0 17.572 0 11.3201Z" fill="#006769" fill-rule="evenodd" transform="translate(360.395 226.048)" />
    <path id="Path" d="M12.8107 33.4565L4.13004 33.4565L0 0L12.8121 0.000701904L12.8107 33.4565L12.8107 33.4565Z" fill="#FFB8B8" fill-rule="evenodd" transform="translate(408.193 325.802)" />
    <path id="Path" d="M10.5406 0L27.2816 0L27.2816 10.5325L0 10.5325C0 10.5325 0 10.5325 0 10.5325C0.00198364 4.71191 4.72278 -0.00201416 10.5442 0C10.5442 0 10.5406 0 10.5406 0Z" fill="#2F2E41" fill-rule="evenodd" transform="translate(395.582 356.78)" />
    <path id="Path" d="M12.8107 33.4565L4.13004 33.4565L0 0L12.8121 0.000701904L12.8107 33.4565L12.8107 33.4565Z" fill="#FFB8B8" fill-rule="evenodd" transform="translate(451.384 325.802)" />
    <path id="Path" d="M10.5406 0L27.2816 0L27.2816 10.5325L0 10.5325C0 10.5325 0 10.5325 0 10.5325C0.00198364 4.71191 4.72278 -0.00201416 10.5442 0C10.5442 0 10.5406 0 10.5406 0Z" fill="#2F2E41" fill-rule="evenodd" transform="translate(438.773 356.78)" />
    <path id="Path" d="M1.31281 92.4776C0.0486145 90.6165 -0.325623 88.2915 0.290741 86.1281C0.907135 83.9648 2.45081 82.1853 4.50644 81.2686C4.50644 81.2686 34.0148 0 34.0148 0L48.5348 7.91792C48.5348 7.91792 14.8426 85.5811 14.8426 85.5811C16.1843 89.2136 14.595 93.2748 11.1432 95.0343C7.69141 96.7937 3.4682 95.6954 1.31281 92.4776C1.31281 92.4776 1.31281 92.4776 1.31281 92.4776Z" fill="#FFB8B8" fill-rule="evenodd" transform="translate(376.145 147.132)" />
    <path id="Path" d="M11.1898 97.4417C9.23697 96.3229 7.88034 94.3972 7.48499 92.1829C7.08963 89.9685 7.69614 87.6929 9.14136 85.9684C9.14136 85.9684 0 0 0 0L16.5242 0.754364C16.5242 0.754364 20.3233 85.3155 20.3233 85.3155C23.1232 87.9923 23.4769 92.3386 21.1467 95.4323C18.8165 98.5259 14.5389 99.3892 11.1898 97.4416C11.1898 97.4416 11.1898 97.4417 11.1898 97.4417Z" fill="#FFB8B8" fill-rule="evenodd" transform="translate(448.57 157.439)" />
    <path id="Oval" d="M0 17.377C0 7.77996 7.78592 0 17.3903 0C26.9948 0 34.7807 7.77996 34.7807 17.377C34.7807 26.9741 26.9948 34.754 17.3903 34.754C7.78592 34.754 0 26.9741 0 17.377Z" fill="#FFB8B8" fill-rule="evenodd" transform="translate(416.009 97.325)" />
    <path id="Path" d="M52.4286 96.8391L0 96.8391C0 96.8391 0.0630798 96.4314 0.0630798 96.4314C0.157318 95.8221 9.40701 35.2755 2.58499 15.4675C1.16727 11.4362 3.02097 6.9856 6.88235 5.14966C6.88235 5.14966 6.88254 5.14966 6.88254 5.14966C16.6335 0.561249 35.3513 -5.08876 51.1496 8.62292C55.8629 12.7811 58.344 18.9126 57.8473 25.1757C57.8473 25.1757 52.4286 96.8391 52.4286 96.8391Z" fill="#006769" fill-rule="evenodd" transform="translate(407.221 138.49)" />
    <path id="Path" d="M23.6039 38.3913L0 33.6063C0 33.6063 11.0641 7.40759 11.0641 7.40759C12.4424 2.12381 17.8408 -1.04817 23.1318 0.316788C28.4228 1.68173 31.6098 7.06854 30.2561 12.3587C30.2561 12.3587 23.6039 38.3913 23.6039 38.3913Z" fill="#006769" fill-rule="evenodd" transform="translate(393.686 144.322)" />
    <path id="Path" d="M1.6134 45.4649C1.6134 45.4649 0.194397 12.9612 0.194397 12.9612C-0.881683 6.85098 2.61877 1.07487 8.00226 0.130722C13.3873 -0.809967 18.6454 3.42781 19.7263 9.58289C19.7263 9.58289 25.0601 39.9544 25.0601 39.9544L1.6134 45.4649Z" fill="#006769" fill-rule="evenodd" transform="translate(445.907 146.133)" />
    <path id="Path" d="M53.5086 0C61.9447 32.1042 62.865 72.922 60.5891 117.446C60.5891 117.446 49.2604 116.031 49.2604 116.031L28.727 31.1302L17.3983 117.446C17.3983 117.446 4.65347 116.738 4.65347 116.738C0.845978 70.0219 -2.86124 29.9166 3.23737 3.53752C3.23737 3.53752 53.5086 0 53.5086 0Z" fill="#2F2E41" fill-rule="evenodd" transform="translate(404.396 231.438)" />
    <path id="Path" d="M32.3374 38.8149C29.0932 42.2681 23.0682 40.4143 22.6454 35.6968C22.6123 35.3306 22.6147 34.962 22.6526 34.5962C22.8709 32.5065 24.079 30.6093 23.7897 28.403C23.7242 27.8538 23.5194 27.3305 23.1948 26.8826C20.6096 23.4234 14.5409 28.4298 12.101 25.2983C10.6049 23.3781 12.3635 20.3549 11.2155 18.2087C9.7002 15.3762 5.21207 16.7735 2.39755 15.2223C-0.733948 13.4963 -0.546661 8.69537 1.51471 5.77518C4.02866 2.21389 8.43634 0.313599 12.7892 0.0397339C17.142 -0.234131 21.4648 0.941628 25.5285 2.52409C30.1458 4.32211 34.7244 6.80697 37.5658 10.8638C41.0212 15.7974 41.3537 22.43 39.6256 28.1989C38.5744 31.7081 34.9867 35.995 32.3374 38.8149C32.3374 38.8149 32.3374 38.8149 32.3374 38.8149Z" fill="#2F2E41" fill-rule="evenodd" transform="translate(412.52 89.317)" />
    <path id="Path" d="M523.585 1.68481C523.585 1.68481 0.838684 1.68481 0.838684 1.68481C0.374786 1.6824 2.28882e-05 1.30594 0 0.842407C0 0.378876 0.374786 0.00241089 0.838684 0C0.838684 0 523.585 0 523.585 0C524.049 0.00241089 524.423 0.378876 524.423 0.842407C524.423 1.30594 524.049 1.6824 523.585 1.68481C523.585 1.68481 523.585 1.68481 523.585 1.68481Z" fill="#3F3D56" fill-rule="evenodd" transform="translate(71.161 365.965)" />
    <path id="Path" d="M96.6483 214.374C96.6483 214.374 4.60229 214.374 4.60229 214.374C2.07831 214.387 0.0195312 212.357 0 209.835C0 209.835 0 4.53893 0 4.53893C0.0195312 2.01688 2.07832 -0.0135117 4.60234 6.86646e-05C4.60234 6.86646e-05 96.6483 6.86646e-05 96.6483 6.86646e-05C99.1723 -0.0135117 101.231 2.01689 101.251 4.53893C101.251 4.53893 101.251 209.835 101.251 209.835C101.231 212.357 99.1723 214.387 96.6483 214.374C96.6483 214.374 96.6483 214.374 96.6483 214.374Z" fill="#FFFFFF" fill-rule="evenodd" transform="translate(235.425 76.057)" />
    <rect id="Rectangle" width="101.251" height="1.415" fill="#CCCCCC" fill-rule="evenodd" transform="translate(235.425 142.484)" />
    <rect id="Rectangle" width="101.251" height="1.415" fill="#CCCCCC" fill-rule="evenodd" transform="translate(235.779 223.218)" />
    <rect id="Rectangle" width="1.416" height="215.081" fill="#CCCCCC" fill-rule="evenodd" transform="translate(267.287 76.057)" />
    <rect id="Rectangle" width="1.416" height="215.081" fill="#CCCCCC" fill-rule="evenodd" transform="translate(302.69 76.057)" />
  </g>
</svg>