<?xml version="1.0" encoding="UTF-8" standalone="no"?>
<!-- Uploaded to: SVG Repo, www.svgrepo.com, Generator: SVG Repo Mixer Tools -->

<svg
   fill="#000000"
   width="800px"
   height="800px"
   viewBox="0 0 32 32"
   id="icon"
   version="1.1"
   sodipodi:docname="password-svgrepo-com.svg"
   inkscape:version="1.4 (e7c3feb, 2024-10-09)"
   xmlns:inkscape="http://www.inkscape.org/namespaces/inkscape"
   xmlns:sodipodi="http://sodipodi.sourceforge.net/DTD/sodipodi-0.dtd"
   xmlns="http://www.w3.org/2000/svg"
   xmlns:svg="http://www.w3.org/2000/svg">
  <sodipodi:namedview
     id="namedview1"
     pagecolor="#ffffff"
     bordercolor="#000000"
     borderopacity="0.25"
     inkscape:showpageshadow="2"
     inkscape:pageopacity="0.0"
     inkscape:pagecheckerboard="0"
     inkscape:deskcolor="#d1d1d1"
     inkscape:zoom="1.0075"
     inkscape:cx="399.50372"
     inkscape:cy="400"
     inkscape:window-width="1920"
     inkscape:window-height="1008"
     inkscape:window-x="0"
     inkscape:window-y="40"
     inkscape:window-maximized="1"
     inkscape:current-layer="icon" />
  <defs
     id="defs1">
    <style
       id="style1">
      .cls-1 {
        fill: none;
      }
    </style>
  </defs>
  <path
     d="M21,2a8.9977,8.9977,0,0,0-8.6119,11.6118L2,24v6H8L18.3881,19.6118A9,9,0,1,0,21,2Zm0,16a7.0125,7.0125,0,0,1-2.0322-.3022L17.821,17.35l-.8472.8472-3.1811,3.1812L12.4141,20,11,21.4141l1.3787,1.3786-1.5859,1.586L9.4141,23,8,24.4141l1.3787,1.3786L7.1716,28H4V24.8284l9.8023-9.8023.8472-.8474-.3473-1.1467A7,7,0,1,1,21,18Z"
     id="path1"
     style="fill:#40a578;fill-opacity:1" />
  <circle
     cx="22"
     cy="10"
     r="2"
     id="circle1"
     style="fill:#40a578;fill-opacity:1" />
  <rect
     id="_Transparent_Rectangle_"
     data-name="&lt;Transparent Rectangle&gt;"
     class="cls-1"
     width="32"
     height="32" />
</svg>
