<?xml version="1.0" encoding="utf-8"?>
<svg width="23" height="26" viewBox="0 0 23 26" fill="none" xmlns="http://www.w3.org/2000/svg">
  <g>
    <rect width="23" height="26" />
    <path id="Shape" d="M15.6072 6.5C15.6072 4.25634 13.7684 2.4375 11.5001 2.4375C9.23174 2.4375 7.39291 4.25634 7.39291 6.5C7.39291 8.74366 9.23174 10.5625 11.5001 10.5625C13.7684 10.5625 15.6072 8.74366 15.6072 6.5C15.6072 6.5 15.6072 6.5 15.6072 6.5ZM4.92873 6.5C4.92873 2.91015 7.87086 0 11.5002 0C15.1295 0 18.0716 2.91015 18.0716 6.5C18.0716 10.0899 15.1295 13 11.5002 13C7.87086 13 4.92873 10.0899 4.92873 6.5C4.92873 6.5 4.92873 6.5 4.92873 6.5ZM2.5312 23.5625C2.5312 23.5625 20.4743 23.5625 20.4743 23.5625C20.0174 20.348 17.2245 17.875 13.8515 17.875C13.8515 17.875 9.15911 17.875 9.15911 17.875C5.78611 17.875 2.99326 20.348 2.53634 23.5625C2.53634 23.5625 2.5312 23.5625 2.5312 23.5625ZM0 24.4918C0 19.4898 4.09688 15.4375 9.1538 15.4375C9.1538 15.4375 13.8462 15.4375 13.8462 15.4375C18.9031 15.4375 23 19.4898 23 24.4918C23 25.3246 22.3172 26 21.4752 26C21.4752 26 1.52478 26 1.52478 26C0.682813 26 0 25.3246 0 24.4918C0 24.4918 0 24.4918 0 24.4918Z" fill="#000000" />
  </g>
</svg>