<?xml version="1.0" encoding="utf-8"?>
<svg width="18" height="24" viewBox="0 0 18 24" fill="none" xmlns="http://www.w3.org/2000/svg">
  <g>
    <rect width="18" height="24" />
    <path id="Path" d="M3.42188 0.330828C2.72813 -0.0957342 1.85625 -0.109797 1.14844 0.288641C0.440625 0.687078 0 1.43708 0 2.2527C0 2.2527 0 18.7527 0 18.7527C0 19.5683 0.440625 20.3183 1.14844 20.7168C1.85625 21.1152 2.72813 21.0965 3.42188 20.6746C3.42188 20.6746 16.9219 12.4246 16.9219 12.4246C17.5922 12.0168 18 11.2902 18 10.5027C18 9.7152 17.5922 8.99333 16.9219 8.58083C16.9219 8.58083 3.42188 0.330828 3.42188 0.330828C3.42188 0.330828 3.42188 0.330828 3.42188 0.330828Z" fill="#000000" fill-rule="evenodd" transform="translate(0 1.497)" />
  </g>
</svg>