<?xml version="1.0" encoding="utf-8"?>
<svg width="457" height="518" viewBox="0 0 457 518" fill="none" xmlns="http://www.w3.org/2000/svg">
  <defs>
    <clipPath id="clip_path_1">
      <rect width="457" height="518" />
    </clipPath>
  </defs>
  <g clip-path="url(#clip_path_1)">
    <rect width="457" height="518" />
    <path id="Path" d="M16.2836 179.838C18.3847 180.959 20.9633 180.65 22.7385 179.063C24.5137 177.477 25.1071 174.951 24.224 172.742C24.3394 172.168 24.4225 171.756 24.538 171.182C29.0768 166.951 35.7322 165.893 41.3618 168.508C46.9914 171.124 50.4691 176.889 50.153 183.082C49.4507 200.155 50.2951 218.578 38.933 232.341C90.7908 190.019 114.436 117.921 98.5992 53.0759C90.8285 42.2615 87.2034 27.895 90.6883 14.8763C95.0613 19.124 103.586 17.9829 102.283 10.6295C101.584 7.72336 100.861 4.82596 100.162 1.91982C130.031 -9.72049 137.829 34.6344 102.448 52.6935C105.319 65.0218 106.891 77.6161 107.139 90.2709C111.133 78.8601 117.782 68.5594 126.54 60.216C135.019 52.5914 146.231 48.1078 156.662 42.9923C169.354 36.751 183.441 49.1243 178.443 62.3333C169.994 61.2536 164.016 71.3398 171.683 76.76C158.216 99.3478 132.395 113.705 106.159 113.933C103.506 139.706 95.3831 164.619 82.3315 187.011C99.0911 161.559 131.525 168.887 157.157 167.803C160.632 167.365 164.038 169.02 165.838 172.021C167.638 175.021 167.492 178.801 165.466 181.655C162.094 181.457 158.711 181.594 155.366 182.065C152.142 182.542 149.567 184.992 148.934 188.184C148.3 191.377 149.745 194.622 152.543 196.291C130.058 216.878 95.2164 221.303 67.8711 208.167C59.7863 218.338 50.665 227.642 40.6543 235.929C40.6543 235.929 0 216.575 0 216.575C0.0694885 216.054 0.160736 215.526 0.244843 215.013C3.8952 217.04 7.78033 218.614 11.8136 219.699C7.47653 203.186 2.64374 193.515 16.2822 179.838C16.2822 179.838 16.2836 179.838 16.2836 179.838Z" fill="#F2F2F2" fill-rule="evenodd" transform="translate(277.523 203.673)" />
    <path id="Path" d="M198.69 133.176C197.167 135.006 194.662 135.691 192.419 134.89C190.176 134.09 188.672 131.975 188.656 129.596C188.332 129.108 188.1 128.757 187.776 128.269C181.974 126.061 175.411 127.588 171.185 132.131C166.959 136.674 165.916 143.323 168.547 148.94C175.646 164.487 181.822 181.867 197.543 190.334C133.532 170.674 84.4031 112.81 74.5788 46.7883C77.6911 33.8453 75.6223 19.1744 67.478 8.43024C65.0324 14.0116 56.7065 16.1662 55.1356 8.86528C54.6853 5.91054 54.2608 2.95473 53.8102 0C21.752 0.471664 31.2819 44.4878 70.8695 47.8842C72.8675 60.3832 76.1683 72.6393 80.7182 84.4527C72.7095 75.3895 62.6608 68.3547 51.3987 63.9269C40.6661 60.0598 28.589 60.1313 16.9968 59.3231C2.88482 58.3244 -5.48788 75.0904 4.12915 85.4409C11.5464 81.2581 20.8928 88.347 15.8389 96.2552C36.8418 112.101 66.1782 115.67 90.5617 105.998C102.753 128.868 119.685 148.88 140.23 164.701C115.095 147.443 87.825 166.448 63.6766 175.1C60.2931 176.004 57.7642 178.82 57.2306 182.277C56.697 185.734 58.2595 189.179 61.2134 191.059C64.2617 189.606 67.4469 188.458 70.7223 187.634C73.888 186.861 77.1981 188.16 78.9905 190.878C80.7829 193.596 80.6704 197.147 78.7094 199.746C107.309 210.342 141.248 201.314 161.612 178.846C172.941 185.22 184.902 190.401 197.304 194.305C197.304 194.305 227.645 161.065 227.645 161.065C227.384 160.609 227.1 160.154 226.828 159.71C224.213 162.963 221.21 165.884 217.884 168.408C215.664 151.482 216.487 140.704 198.691 133.176C198.691 133.176 198.69 133.176 198.69 133.176Z" fill="#F2F2F2" fill-rule="evenodd" transform="translate(23.28 211.274)" />
    <path id="Path" d="M30.325 203.993C32.6951 203.754 34.6629 202.061 35.251 199.755C35.8391 197.45 34.9219 195.023 32.9552 193.681C32.7307 193.14 32.5695 192.752 32.3451 192.211C33.7508 186.171 38.6853 181.587 44.8187 180.623C50.9521 179.66 57.0576 182.509 60.2523 187.826C69.2006 202.39 80.1862 217.213 78.4378 234.966C97.8604 170.956 77.2398 97.9381 27.8925 52.9255C15.4044 48.2752 4.37488 38.3675 0 25.6196C6.00153 26.7107 12.4411 21.0166 7.25465 15.6376C5.05209 13.6143 2.83423 11.6117 0.631851 9.58827C18.9285 -16.7068 50.1637 15.7718 30.8745 50.4647C40.1396 59.1008 48.4754 68.6805 55.7459 79.0477C52.6914 67.3511 52.461 55.0973 55.0735 43.2944C57.8559 32.2432 64.6604 22.2779 70.4636 12.2231C77.5158 -0.0256895 96.117 2.40195 99.3425 16.1501C91.7258 19.9586 92.3934 31.6608 101.784 31.8908C103.215 58.1407 89.7942 84.4375 68.1425 99.2356C80.3284 122.109 87.493 147.313 89.1587 173.17C88.8627 142.708 119.878 130.731 140.551 115.557C143.192 113.259 146.943 112.737 150.112 114.225C153.282 115.714 155.271 118.933 155.182 122.43C152.272 124.144 149.54 126.142 147.026 128.395C144.616 130.586 143.847 134.053 145.103 137.056C146.359 140.059 149.371 141.949 152.625 141.776C145.452 171.387 118.999 194.462 88.9649 198.784C87.9313 211.729 85.5535 224.532 81.8698 236.986C81.8698 236.986 37.3159 243.557 37.3159 243.557C37.0831 243.086 36.8639 242.597 36.647 242.124C40.8094 241.775 44.9131 240.918 48.8668 239.572C36.0483 228.279 26.637 222.942 30.3238 203.994C30.3238 203.994 30.325 203.993 30.325 203.993Z" fill="#F2F2F2" fill-rule="evenodd" transform="translate(199.454 0)" />
    <path id="Path" d="M36.835 84.4576C16.5514 84.4576 5.54942 81.9821 1.70721 76.6979C-1.68317 72.0356 0.589706 65.8838 3.22166 58.7611C5.1132 53.6413 7.25691 47.8388 7.25691 42.0958C7.25691 14.1633 21.4382 0 49.4063 0C63.3217 0 78.2628 7.38264 89.3741 19.7489C99.4752 30.9911 104.507 44.4461 103.18 56.6636C103.18 56.6636 103.18 56.6636 103.18 56.6636C102.092 66.6833 97.4218 73.2726 88.4841 77.4015C88.4841 77.4015 87.9613 77.6429 87.9613 77.6429C87.9613 77.6429 87.8128 77.0872 87.8128 77.0872C87.041 74.2115 85.7347 71.5062 83.9621 69.1125C83.7895 72.87 82.8412 76.5512 81.1763 79.9252C81.1763 79.9252 81.0812 80.1175 81.0812 80.1175C81.0812 80.1175 80.8749 80.1765 80.8749 80.1765C70.7591 83.0542 58.7537 83.8338 49.4247 84.1911C44.8842 84.3678 40.6876 84.4567 36.835 84.4576C36.835 84.4576 36.835 84.4576 36.835 84.4576Z" fill="#2F2E41" fill-rule="evenodd" transform="translate(237.755 105.268)" />
    <path id="Path" d="M138.3 41.3067C136.722 36.6762 133.005 33.0901 128.317 31.6763C123.628 30.2624 118.545 31.1945 114.665 34.1793C114.665 34.1793 47.9466 74.0177 47.9466 74.0177C47.9466 74.0177 27.0693 23.1418 27.0693 23.1418C30.6874 17.8407 30.4746 10.8153 26.5423 5.74223C22.61 0.669205 15.8532 -1.2966 9.80824 0.873566C3.76318 3.04376 -0.194107 8.85593 0.00735474 15.2683C0.208801 21.6808 4.52319 27.2337 10.6926 29.0211C11.9793 43.692 19.1305 109.266 44.0082 106.882C64.9191 104.878 116.849 70.3377 132.979 58.3615C138.273 54.4342 140.423 47.5424 138.3 41.3067C138.3 41.3067 138.3 41.3067 138.3 41.3067Z" fill="#FFB6B6" fill-rule="evenodd" transform="translate(141.817 187.337)" />
    <path id="Path" d="M124.907 162.51L66.8382 162.51L57.1003 114.424L53.9415 162.51C53.9415 162.51 0 162.51 0 162.51C0.0184479 124.814 1.98569 87.0782 5.89401 49.5182C5.89401 49.5182 6.56259 47.2441 6.56259 47.2441L7.61877 43.6054L8.28735 41.3216L19.4497 3.03867L20.3314 0C20.3314 0 87.5475 0 87.5475 0C91.4155 3.62872 94.9833 7.56409 98.2158 11.7675C99.3107 13.161 100.454 14.6707 101.627 16.2964C102.44 17.448 103.283 18.6577 104.126 19.9254C111.616 31.0612 117.214 43.3552 120.695 56.3116C120.695 56.3116 120.695 56.3213 120.695 56.3213C121.287 58.5374 121.81 60.8051 122.265 63.1244C122.265 63.1244 122.265 63.1341 122.265 63.1341C122.672 65.1954 123.031 67.2856 123.312 69.4243C123.525 70.9823 123.709 72.5597 123.845 74.1564C124.652 83.0025 124.369 91.9141 123.002 100.691C123.002 100.691 124.907 162.51 124.907 162.51Z" fill="#2F2E41" fill-rule="evenodd" transform="translate(205.489 355.491)" />
    <path id="Oval" d="M0 5.43008C0 2.43113 3.16682 0 7.07329 0C10.9798 0 14.1466 2.43113 14.1466 5.43008C14.1466 8.42905 10.9798 10.8602 7.07329 10.8602C3.16682 10.8602 0 8.42905 0 5.43008Z" fill="#E6E6E6" fill-rule="evenodd" transform="translate(13.601 68.135)" />
    <path id="Oval" d="M0 5.43008C0 2.43113 3.16682 0 7.07329 0C10.9798 0 14.1466 2.43113 14.1466 5.43008C14.1466 8.42903 10.9798 10.8602 7.07329 10.8602C3.16682 10.8602 0 8.42903 0 5.43008Z" fill="#3F3D56" fill-rule="evenodd" transform="translate(61.082 62.051)" />
    <path id="Oval" d="M0 5.43008C0 2.43113 3.16682 0 7.07329 0C10.9798 0 14.1466 2.43113 14.1466 5.43008C14.1466 8.42904 10.9798 10.8602 7.07329 10.8602C3.16682 10.8602 0 8.42904 0 5.43008Z" fill="#FF6584" fill-rule="evenodd" transform="translate(9.482 108.593)" />
    <path id="Oval" d="M0 4.55864C0 2.04097 1.48187 0 3.30985 0C5.13783 0 6.6197 2.04097 6.6197 4.55864C6.6197 7.07631 5.13783 9.11728 3.30985 9.11728C1.48187 9.11728 0 7.07631 0 4.55864Z" fill="#E6E6E6" fill-rule="evenodd" transform="translate(0.283 127.558)" />
    <path id="Oval" d="M0 4.55864C0 2.04097 1.48187 0 3.30985 0C5.13783 0 6.6197 2.04097 6.6197 4.55864C6.6197 7.07631 5.13783 9.11728 3.30985 9.11728C1.48187 9.11728 0 7.07631 0 4.55864Z" fill="#3F3D56" fill-rule="evenodd" transform="translate(0 157.772)" />
    <path id="Oval" d="M0 4.55864C0 2.04098 1.48187 0 3.30985 0C5.13783 0 6.61971 2.04098 6.61971 4.55864C6.61971 7.07631 5.13783 9.11729 3.30985 9.11729C1.48187 9.11729 0 7.07631 0 4.55864Z" fill="#E6E6E6" fill-rule="evenodd" transform="translate(41.674 95.19)" />
    <path id="Oval" d="M0 4.55864C0 2.04098 1.48187 0 3.30985 0C5.13783 0 6.61971 2.04098 6.61971 4.55864C6.61971 7.07631 5.13783 9.11729 3.30985 9.11729C1.48187 9.11729 0 7.07631 0 4.55864Z" fill="#FF6584" fill-rule="evenodd" transform="translate(16.667 89.125)" />
    <path id="Oval" d="M0 4.55864C0 2.04097 1.48187 0 3.30985 0C5.13784 0 6.61971 2.04097 6.61971 4.55864C6.61971 7.0763 5.13784 9.11728 3.30985 9.11728C1.48187 9.11728 0 7.0763 0 4.55864Z" fill="#3F3D56" fill-rule="evenodd" transform="translate(43.173 61.303)" />
    <path id="Oval" d="M0 6.12173C0 2.74078 2.90157 0 6.48083 0C10.0601 0 12.9617 2.74078 12.9617 6.12173C12.9617 9.50269 10.0601 12.2435 6.48083 12.2435C2.90157 12.2435 0 9.50269 0 6.12173Z" fill="#E6E6E6" fill-rule="evenodd" transform="translate(47.818 268.619)" />
    <path id="Oval" d="M0 6.12173C0 2.7408 2.90156 0 6.48082 0C10.0601 0 12.9616 2.7408 12.9616 6.12173C12.9616 9.50269 10.0601 12.2435 6.48082 12.2435C2.90156 12.2435 0 9.50269 0 6.12173Z" fill="#3F3D56" fill-rule="evenodd" transform="translate(19.854 229.814)" />
    <path id="Oval" d="M0 6.12173C0 2.7408 2.90157 0 6.48083 0C10.0601 0 12.9617 2.7408 12.9617 6.12173C12.9617 9.50269 10.0601 12.2435 6.48083 12.2435C2.90157 12.2435 0 9.50269 0 6.12173Z" fill="#FF6584" fill-rule="evenodd" transform="translate(85.403 252.971)" />
    <path id="Oval" d="M0 3.90201C0 1.74698 1.81964 0 4.06429 0C6.30892 0 8.12856 1.74698 8.12856 3.90201C8.12856 6.05704 6.30892 7.80402 4.06429 7.80402C1.81964 7.80402 0 6.05704 0 3.90201Z" fill="#E6E6E6" fill-rule="evenodd" transform="translate(109.923 257.961)" />
    <path id="Oval" d="M0 3.90201C0 1.74698 1.81964 0 4.06429 0C6.30893 0 8.12857 1.74698 8.12857 3.90201C8.12857 6.05702 6.30893 7.804 4.06429 7.804C1.81964 7.804 0 6.05702 0 3.90201Z" fill="#3F3D56" fill-rule="evenodd" transform="translate(136.66 243.822)" />
    <path id="Oval" d="M0 3.90198C0 1.74698 1.81964 0 4.06429 0C6.30892 0 8.12857 1.74698 8.12857 3.90198C8.12857 6.05699 6.30892 7.80397 4.06429 7.80397C1.81964 7.80397 0 6.05699 0 3.90198Z" fill="#E6E6E6" fill-rule="evenodd" transform="translate(61.716 237.021)" />
    <path id="Oval" d="M0 3.90201C0 1.74698 1.81964 0 4.06429 0C6.30892 0 8.12856 1.74698 8.12856 3.90201C8.12856 6.05704 6.30892 7.80402 4.06429 7.80402C1.81964 7.80402 0 6.05704 0 3.90201Z" fill="#FF6584" fill-rule="evenodd" transform="translate(68.282 261.871)" />
    <path id="Oval" d="M0 3.90201C0 1.74699 1.81964 0 4.06428 0C6.30892 0 8.12856 1.74699 8.12856 3.90201C8.12856 6.05704 6.30892 7.80402 4.06428 7.80402C1.81964 7.80402 0 6.05704 0 3.90201Z" fill="#3F3D56" fill-rule="evenodd" transform="translate(31.164 251.84)" />
    <path id="Oval" d="M0 6.93738C0 3.10597 2.50635 0 5.59808 0C8.6898 0 11.1962 3.10597 11.1962 6.93738C11.1962 10.7688 8.6898 13.8748 5.59808 13.8748C2.50635 13.8748 0 10.7688 0 6.93738Z" fill="#E6E6E6" fill-rule="evenodd" transform="translate(238.912 17.103)" />
    <path id="Oval" d="M0 6.93738C0 3.10597 2.50633 0 5.59805 0C8.68979 0 11.1961 3.10597 11.1961 6.93738C11.1961 10.7688 8.68979 13.8748 5.59805 13.8748C2.50633 13.8748 0 10.7688 0 6.93738Z" fill="#3F3D56" fill-rule="evenodd" transform="translate(249.14 63.809)" />
    <path id="Oval" d="M0 6.93738C0 3.10597 2.50633 0 5.59805 0C8.68979 0 11.1961 3.10597 11.1961 6.93738C11.1961 10.7688 8.68979 13.8748 5.59805 13.8748C2.50633 13.8748 0 10.7688 0 6.93738Z" fill="#FF6584" fill-rule="evenodd" transform="translate(198.197 16.551)" />
    <path id="Oval" d="M0 3.38136C0 1.51389 2.01862 0 4.50871 0C6.99881 0 9.01743 1.51389 9.01743 3.38136C9.01743 5.24883 6.99881 6.76272 4.50871 6.76272C2.01862 6.76272 0 5.24883 0 3.38136Z" fill="#E6E6E6" fill-rule="evenodd" transform="translate(180.105 8.795)" />
    <path id="Oval" d="M0 3.38136C0 1.51389 2.01862 0 4.50871 0C6.99881 0 9.01743 1.51389 9.01743 3.38136C9.01743 5.24883 6.99881 6.76272 4.50871 6.76272C2.01862 6.76272 0 5.24883 0 3.38136Z" fill="#3F3D56" fill-rule="evenodd" transform="translate(149.942 11.162)" />
    <path id="Oval" d="M0 3.38136C0 1.51389 2.01862 0 4.50871 0C6.99881 0 9.01743 1.51389 9.01743 3.38136C9.01743 5.24884 6.99881 6.76273 4.50871 6.76273C2.01862 6.76273 0 5.24884 0 3.38136Z" fill="#E6E6E6" fill-rule="evenodd" transform="translate(216.015 47.138)" />
    <path id="Oval" d="M0 3.38136C0 1.51389 2.01862 0 4.50871 0C6.99881 0 9.01743 1.51389 9.01743 3.38136C9.01743 5.24883 6.99881 6.76272 4.50871 6.76272C2.01862 6.76272 0 5.24883 0 3.38136Z" fill="#FF6584" fill-rule="evenodd" transform="translate(219.872 21.727)" />
    <path id="Oval" d="M0 3.38136C0 1.51389 2.01862 0 4.5087 0C6.99878 0 9.0174 1.51389 9.0174 3.38136C9.0174 5.24884 6.99878 6.76273 4.5087 6.76273C2.01862 6.76273 0 5.24884 0 3.38136Z" fill="#3F3D56" fill-rule="evenodd" transform="translate(249.945 45.66)" />
    <path id="Path" d="M43.4806 1.64587L75.4715 0C75.4715 0 90.3304 23.449 90.3304 23.449C90.3304 23.449 118.288 28.1172 116.35 61.0197C114.412 93.9221 82.334 122.794 82.334 122.794C82.334 122.794 83.7053 139.928 83.7053 139.928L81.3238 146.724L81.6292 150.54L84.878 154.582L85.2125 158.761L82.334 165.374L86.2484 171.705L3.95154 163.742L0.942139 152.793L5.33215 146.914L2.88004 139.245L6.56647 131.869C6.56647 131.869 8.48875 108.44 8.48875 108.44C8.48875 108.44 -12.5415 76.885 11.6006 53.1184C11.6006 53.1184 21.2901 36.6671 21.2901 36.6671L32.1318 23.4565L43.4806 1.64587Z" fill="#006769" fill-rule="evenodd" transform="translate(221.299 195.856)" />
    <path id="Oval" d="M0 33.8549C0 15.1574 15.1767 0 33.898 0C52.6194 0 67.796 15.1574 67.796 33.8549C67.796 52.5525 52.6194 67.7099 33.898 67.7099C15.1767 67.7099 0 52.5525 0 33.8549Z" fill="#FFB6B6" fill-rule="evenodd" transform="translate(246.785 123.17)" />
    <path id="Path" d="M41.7047 41.0465C38.7836 41.0465 35.8642 40.9643 32.9463 40.7999C32.9463 40.7999 32.4249 40.7706 32.4249 40.7706C32.4249 40.7706 32.4935 40.2536 32.4935 40.2536C32.9233 37.0221 32.6815 33.7368 31.7829 30.6029C30.2569 34.1713 27.9865 37.3737 25.1233 39.9965C25.1233 39.9965 24.9615 40.1444 24.9615 40.1444C24.9615 40.1444 24.7438 40.1208 24.7438 40.1208C16.8192 39.255 8.96664 37.8247 1.24614 35.8407C1.24614 35.8407 0.950439 35.7651 0.950439 35.7651C0.950439 35.7651 0.891357 35.4665 0.891357 35.4665C0.314743 32.6385 0.0162048 29.7611 0 26.8752C0 17.86 3.27257 10.2722 9.21544 5.50973C15.6835 0.325722 24.9557 -1.26856 35.3326 1.01796C35.3326 1.01796 68.5145 1.01796 68.5145 1.01796C76.11 1.0265 82.2652 7.17391 82.2737 14.7598C82.2737 14.7598 82.2737 35.7457 82.2737 35.7457C82.2737 35.7457 81.9118 35.8402 81.9118 35.8402C68.7874 39.2851 55.2748 41.0348 41.7046 41.0465C41.7046 41.0465 41.7047 41.0465 41.7047 41.0465Z" fill="#2F2E41" fill-rule="evenodd" transform="translate(234.44 113.927)" />
    <path id="Path" d="M3.92253 50.9281C0.829708 52.0579 -0.763847 55.4748 0.360405 58.5662C0.360405 58.5662 36.1566 156.663 36.1566 156.663C37.2877 159.752 40.7089 161.343 43.8043 160.221C43.8043 160.221 182.735 109.652 182.735 109.652C185.828 108.523 187.422 105.106 186.297 102.014C186.297 102.014 150.501 3.91776 150.501 3.91776C149.37 0.828812 145.949 -0.762825 142.854 0.359856C142.854 0.359856 3.92253 50.9281 3.92253 50.9281Z" fill="#CCCCCC" fill-rule="evenodd" transform="translate(40.922 66.387)" />
    <path id="Path" d="M126.126 118.168C126.126 118.168 41.0858 149.121 41.0858 149.121C37.7543 150.329 34.0721 148.616 32.8548 145.292C32.8548 145.292 0.387909 56.3189 0.387909 56.3189C-0.822128 52.9916 0.892994 49.3141 4.22178 48.0982C4.22178 48.0982 135.302 0.387352 135.302 0.387352C138.634 -0.821053 142.316 0.891975 143.533 4.21659C143.533 4.21659 159.221 47.2073 159.221 47.2073C169.665 75.9282 154.86 107.672 126.126 118.168C126.126 118.168 126.126 118.168 126.126 118.168Z" fill="#FFFFFF" fill-rule="evenodd" transform="translate(45.823 71.284)" />
    <path id="Path" d="M22.9695 3.97792C22.9695 3.97792 2.7611 11.3334 2.7611 11.3334C2.07124 11.5861 1.29881 11.4514 0.735405 10.9803C0.172035 10.5092 -0.0964279 9.77339 0.0313416 9.05074C0.159119 8.32808 0.663673 7.72862 1.35455 7.4787C1.35455 7.4787 21.563 0.123192 21.563 0.123192C22.628 -0.262115 23.8044 0.286507 24.1923 1.3495C24.5802 2.41246 24.0332 3.58842 22.9696 3.97789C22.9696 3.97789 22.9695 3.97792 22.9695 3.97792Z" fill="#006769" fill-rule="evenodd" transform="translate(87.789 121.199)" />
    <path id="Path" d="M68.2671 3.97723C68.2671 3.97723 2.75803 27.8213 2.75803 27.8213C2.06849 28.0725 1.29713 27.9372 0.734619 27.4663C0.172073 26.9954 -0.0960922 26.2606 0.0311432 25.5386C0.158356 24.8166 0.661667 24.2173 1.35136 23.9666C1.35136 23.9666 66.8605 0.122498 66.8605 0.122498C67.9252 -0.261513 69.1002 0.287292 69.4878 1.34952C69.8754 2.41174 69.3294 3.58692 68.2671 3.9772C68.2671 3.9772 68.2671 3.97723 68.2671 3.97723Z" fill="#006769" fill-rule="evenodd" transform="translate(90.668 112.594)" />
    <path id="Path" d="M68.2702 3.97926C68.2702 3.97926 2.7611 27.8233 2.7611 27.8233C2.07124 28.076 1.29881 27.9413 0.735405 27.4702C0.172035 26.9991 -0.0964279 26.2633 0.0313416 25.5407C0.159119 24.818 0.663673 24.2186 1.35455 23.9686C1.35455 23.9686 66.8636 0.124565 66.8636 0.124565C67.9295 -0.263367 69.1084 0.285049 69.4968 1.34952C69.8853 2.41398 69.3361 3.59138 68.2703 3.97932C68.2703 3.97932 68.2702 3.97926 68.2702 3.97926Z" fill="#006769" fill-rule="evenodd" transform="translate(93.967 121.641)" />
    <path id="Path" d="M68.2671 3.97928C68.2671 3.97928 2.75803 27.8234 2.75803 27.8234C2.06849 28.0746 1.29713 27.9393 0.734619 27.4684C0.172073 26.9975 -0.0960922 26.2626 0.0311432 25.5407C0.158356 24.8187 0.661667 24.2194 1.35136 23.9686C1.35136 23.9686 66.8605 0.124588 66.8605 0.124588C67.9263 -0.263382 69.1052 0.285065 69.4936 1.3495C69.8821 2.41394 69.333 3.59134 68.2671 3.97928C68.2671 3.97928 68.2671 3.97928 68.2671 3.97928Z" fill="#006769" fill-rule="evenodd" transform="translate(97.271 130.689)" />
    <path id="Path" d="M68.2703 3.97934C68.2703 3.97934 2.76113 27.8234 2.76113 27.8234C2.07124 28.076 1.29881 27.9413 0.735405 27.4702C0.172035 26.9991 -0.0964279 26.2634 0.0313416 25.5407C0.159119 24.818 0.663673 24.2186 1.35455 23.9686C1.35455 23.9686 66.8637 0.124588 66.8637 0.124588C67.9294 -0.263382 69.1083 0.285065 69.4968 1.3495C69.8852 2.41394 69.3361 3.59134 68.2703 3.97928C68.2703 3.97928 68.2703 3.97934 68.2703 3.97934Z" fill="#006769" fill-rule="evenodd" transform="translate(100.571 139.738)" />
    <path id="Path" d="M64.718 91.1247C64.718 91.1247 28.8512 176.845 28.8512 176.845C25.6672 184.392 17.0096 187.992 9.40381 184.932C9.40381 184.932 9.40381 184.932 9.40381 184.932C5.582 183.394 2.56082 180.355 1.04825 176.527C-0.464294 172.699 -0.335327 168.419 1.40494 164.689C1.40494 164.689 41.395 76.7869 41.395 76.7869C41.395 76.7869 63.4401 22.3514 63.4401 22.3514C59.5377 18.4641 58.4882 12.5534 60.8144 7.56304C63.1407 2.57271 68.3453 -0.430115 73.8359 0.0501709C79.3265 0.530426 83.9291 4.39111 85.3515 9.70931C86.7737 15.0275 84.7115 20.6661 80.1919 23.8166C80.1919 23.8166 64.718 91.1247 64.718 91.1247Z" fill="#FFB6B6" fill-rule="evenodd" transform="translate(311.983 77.722)" />
  </g>
</svg>