<?xml version="1.0" encoding="utf-8"?>
<svg width="31" height="31" viewBox="0 0 31 31" fill="none" xmlns="http://www.w3.org/2000/svg">
  <g>
    <rect width="31" height="31" />
    <path id="search_right-[#1505]" d="M6.57666 21.173L8.76835 23.2603L2.19325 29.5238L0 27.4365L6.57666 21.173L6.57666 21.173ZM18.5999 20.6666C13.4725 20.6666 9.29987 16.6927 9.29987 11.8095C9.29987 6.92475 13.4725 2.95232 18.5999 2.95232C23.7288 2.95232 27.8998 6.92475 27.8998 11.8095C27.8998 16.6927 23.7288 20.6666 18.5999 20.6666C18.5999 20.6666 18.5999 20.6666 18.5999 20.6666C18.5999 20.6666 18.5999 20.6666 18.5999 20.6666ZM18.6001 0C11.7522 0 6.20013 5.28772 6.20013 11.8095C6.20013 18.3313 11.7522 23.619 18.6001 23.619C25.4496 23.619 31.0001 18.3313 31.0001 11.8095C31.0001 5.28772 25.4496 0 18.6001 0C18.6001 0 18.6001 0 18.6001 0C18.6001 0 18.6001 0 18.6001 0Z" fill="#999999" fill-rule="evenodd" transform="translate(0 0.738)" />
  </g>
</svg>