<?xml version="1.0" encoding="utf-8"?>
<svg width="23" height="23" viewBox="0 0 23 23" fill="none" xmlns="http://www.w3.org/2000/svg">
  <g>
    <rect width="23" height="23" />
    <path id="trash" d="M16.5312 5.75C16.5312 5.75 2.15625 5.75 2.15625 5.75C1.7595 5.75 1.4375 5.42871 1.4375 5.03125C1.4375 4.6345 1.7595 4.3125 2.15625 4.3125C2.15625 4.3125 16.5312 4.3125 16.5312 4.3125C16.928 4.3125 17.25 4.6345 17.25 5.03125C17.25 5.42871 16.928 5.75 16.5312 5.75C16.5312 5.75 16.5312 5.75 16.5312 5.75L16.5312 5.75ZM15.8125 20.125C15.8125 20.9185 15.1685 21.5625 14.375 21.5625C14.375 21.5625 4.3125 21.5625 4.3125 21.5625C3.519 21.5625 2.875 20.9185 2.875 20.125C2.875 20.125 2.875 7.1875 2.875 7.1875L15.8125 7.1875L15.8125 20.125L15.8125 20.125C15.8125 20.125 15.8125 20.125 15.8125 20.125ZM7.1875 2.15625C7.1875 1.75879 7.5095 1.4375 7.90625 1.4375C7.90625 1.4375 10.7812 1.4375 10.7812 1.4375C11.178 1.4375 11.5 1.75879 11.5 2.15625C11.5 2.15625 11.5 2.875 11.5 2.875L7.1875 2.875L7.1875 2.15625L7.1875 2.15625C7.1875 2.15625 7.1875 2.15625 7.1875 2.15625ZM17.25 2.875L12.9375 2.875C12.9375 2.875 12.9375 1.4375 12.9375 1.4375C12.9375 0.643997 12.2935 0 11.5 0C11.5 0 7.1875 0 7.1875 0C6.394 0 5.75 0.643997 5.75 1.4375C5.75 1.4375 5.75 2.875 5.75 2.875C5.75 2.875 1.4375 2.875 1.4375 2.875C0.643997 2.875 0 3.519 0 4.3125C0 4.3125 0 5.75 0 5.75C0 6.5435 0.643997 7.1875 1.4375 7.1875C1.4375 7.1875 1.4375 20.125 1.4375 20.125C1.4375 21.7127 2.72477 23 4.3125 23C4.3125 23 14.375 23 14.375 23C15.9627 23 17.25 21.7127 17.25 20.125C17.25 20.125 17.25 7.1875 17.25 7.1875C18.0435 7.1875 18.6875 6.5435 18.6875 5.75C18.6875 5.75 18.6875 4.3125 18.6875 4.3125C18.6875 3.519 18.0435 2.875 17.25 2.875C17.25 2.875 17.25 2.875 17.25 2.875L17.25 2.875ZM9.34375 20.125C9.7405 20.125 10.0625 19.8037 10.0625 19.4062C10.0625 19.4062 10.0625 10.7812 10.0625 10.7812C10.0625 10.3845 9.7405 10.0625 9.34375 10.0625C8.947 10.0625 8.625 10.3845 8.625 10.7812C8.625 10.7812 8.625 19.4062 8.625 19.4062C8.625 19.8037 8.947 20.125 9.34375 20.125C9.34375 20.125 9.34375 20.125 9.34375 20.125C9.34375 20.125 9.34375 20.125 9.34375 20.125ZM5.75 20.125C6.14675 20.125 6.46875 19.8037 6.46875 19.4062C6.46875 19.4062 6.46875 10.7812 6.46875 10.7812C6.46875 10.3845 6.14675 10.0625 5.75 10.0625C5.35325 10.0625 5.03125 10.3845 5.03125 10.7812C5.03125 10.7812 5.03125 19.4062 5.03125 19.4062C5.03125 19.8037 5.35325 20.125 5.75 20.125C5.75 20.125 5.75 20.125 5.75 20.125C5.75 20.125 5.75 20.125 5.75 20.125ZM12.9375 20.125C13.3343 20.125 13.6562 19.8037 13.6562 19.4062C13.6562 19.4062 13.6562 10.7812 13.6562 10.7812C13.6562 10.3845 13.3343 10.0625 12.9375 10.0625C12.5407 10.0625 12.2188 10.3845 12.2188 10.7812C12.2188 10.7812 12.2188 19.4062 12.2188 19.4062C12.2188 19.8037 12.5407 20.125 12.9375 20.125C12.9375 20.125 12.9375 20.125 12.9375 20.125C12.9375 20.125 12.9375 20.125 12.9375 20.125Z" fill="#ECECEC" fill-rule="evenodd" transform="translate(2.156 0)" />
  </g>
</svg>