<?xml version="1.0" encoding="utf-8"?>
<svg width="629" height="675" viewBox="0 0 629 675" fill="none" xmlns="http://www.w3.org/2000/svg">
  <defs>
    <clipPath id="clip_path_1">
      <rect width="629" height="675" />
    </clipPath>
  </defs>
  <g clip-path="url(#clip_path_1)">
    <rect width="629" height="675" />
    <path id="Path" d="M37.1209 149.165C7.46906 120 -5.0545 89.5742 1.85624 63.4923C10.7249 30.0218 50.1242 6.8797 109.952 0C109.952 0 110.173 1.91994 110.173 1.91994C51.178 8.70341 12.3798 31.3261 3.72594 63.9867C-2.9997 89.3695 9.34207 119.131 38.4779 147.788C38.4779 147.788 37.1209 149.165 37.1209 149.165Z" fill="#F0F0F0" fill-rule="evenodd" transform="translate(99.032 124.205)" />
    <path id="Path" d="M248.147 74.6996C211.14 74.6996 170.925 69.205 130.98 58.6392C81.5822 45.5732 36.2902 25.8517 0 1.60577C0 1.60577 1.0746 0 1.0746 0C37.1901 24.1284 82.2815 43.7599 131.474 56.7711C175.929 68.5304 220.718 73.9789 260.981 72.5411C260.981 72.5411 261.051 74.4713 261.051 74.4713C256.799 74.6242 252.497 74.7003 248.147 74.6996C248.147 74.6996 248.147 74.6996 248.147 74.6996Z" fill="#F0F0F0" fill-rule="evenodd" transform="translate(174.097 302.196)" />
    <path id="Path" d="M143.566 226.561C143.566 226.561 142.946 224.731 142.946 224.731C176.044 213.55 196.746 195.539 202.813 172.643C210.525 143.537 193.771 109.761 155.636 77.5371C117.306 45.1496 62.0346 18.2762 0 1.86804C0 1.86804 0.494812 0 0.494812 0C62.8005 16.4803 118.341 43.4929 156.884 76.0621C195.621 108.794 212.597 143.27 204.683 173.137C198.442 196.69 177.308 215.163 143.566 226.561C143.566 226.561 143.566 226.561 143.566 226.561Z" fill="#F0F0F0" fill-rule="evenodd" transform="translate(363.578 138.184)" />
    <path id="Path" d="M157.78 118.784C85.0624 86.5613 29.0282 44.7562 0 1.06894C0 1.06894 1.61092 0 1.61092 0C30.4384 43.3849 86.1785 84.9423 158.563 117.018C158.563 117.018 157.78 118.784 157.78 118.784Z" fill="#F0F0F0" fill-rule="evenodd" transform="translate(45.446 258.919)" />
    <path id="Path" d="M22.8857 22.4514C15.3853 22.4514 7.75668 22.2841 0 21.9495C0 21.9495 0.0830994 20.0192 0.0830994 20.0192C57.9686 22.5232 109.042 15.602 147.792 0C147.792 0 148.515 1.79257 148.515 1.79257C114.712 15.4009 71.6286 22.4514 22.8857 22.4514C22.8857 22.4514 22.8857 22.4514 22.8857 22.4514Z" fill="#F0F0F0" fill-rule="evenodd" transform="translate(436.009 411.076)" />
    <path id="Path" d="M239.18 34.3063C227.161 30.3966 214.799 26.7563 202.436 23.4863C131.294 4.66902 61.3614 -2.01208 0.194519 4.16898C0.194519 4.16898 0 2.24622 0 2.24622C61.3949 -3.95513 131.567 2.742 202.931 21.6182C215.329 24.8977 227.726 28.5484 239.779 32.4694C239.779 32.4694 239.18 34.3063 239.18 34.3063Z" fill="#F0F0F0" fill-rule="evenodd" transform="translate(177.523 91.632)" />
    <path id="Path" d="M37.1209 149.165C7.46905 120 -5.0545 89.5742 1.85624 63.4923C10.7249 30.0218 50.1242 6.8797 109.952 0C109.952 0 110.173 1.91994 110.173 1.91994C51.178 8.70341 12.3798 31.3261 3.72594 63.9867C-2.99971 89.3695 9.34207 119.131 38.4779 147.788C38.4779 147.788 37.1209 149.165 37.1209 149.165Z" fill="#F0F0F0" fill-rule="evenodd" transform="translate(53.586 127.104)" />
    <path id="Path" d="M248.147 74.6996C211.14 74.6996 170.925 69.205 130.98 58.6392C81.5822 45.5732 36.2902 25.8517 0 1.60577C0 1.60577 1.0746 0 1.0746 0C37.1901 24.1284 82.2815 43.7599 131.474 56.7711C175.929 68.5304 220.718 73.9789 260.981 72.5411C260.981 72.5411 261.051 74.4713 261.051 74.4713C256.799 74.6242 252.497 74.7003 248.147 74.6996C248.147 74.6996 248.147 74.6996 248.147 74.6996Z" fill="#F0F0F0" fill-rule="evenodd" transform="translate(128.651 305.095)" />
    <path id="Path" d="M143.566 226.561C143.566 226.561 142.946 224.731 142.946 224.731C176.044 213.55 196.746 195.539 202.813 172.643C210.525 143.537 193.771 109.761 155.636 77.5371C117.306 45.1496 62.0346 18.2762 0 1.86804C0 1.86804 0.494812 0 0.494812 0C62.8004 16.4803 118.341 43.4929 156.884 76.0621C195.621 108.794 212.597 143.27 204.683 173.137C198.442 196.69 177.308 215.163 143.566 226.561C143.566 226.561 143.566 226.561 143.566 226.561Z" fill="#F0F0F0" fill-rule="evenodd" transform="translate(318.131 141.083)" />
    <path id="Path" d="M157.78 118.784C85.0624 86.5613 29.0282 44.7562 0 1.06894C0 1.06894 1.61092 0 1.61092 0C30.4384 43.3849 86.1785 84.9423 158.563 117.018C158.563 117.018 157.78 118.784 157.78 118.784Z" fill="#F0F0F0" fill-rule="evenodd" transform="translate(0 261.818)" />
    <path id="Path" d="M22.8857 22.4514C15.3853 22.4514 7.75668 22.2841 0 21.9495C0 21.9495 0.0830994 20.0192 0.0830994 20.0192C57.9686 22.5232 109.042 15.602 147.792 0C147.792 0 148.515 1.79257 148.515 1.79257C114.712 15.4009 71.6286 22.4514 22.8857 22.4514C22.8857 22.4514 22.8857 22.4514 22.8857 22.4514Z" fill="#F0F0F0" fill-rule="evenodd" transform="translate(390.562 413.974)" />
    <path id="Path" d="M239.18 34.3063C227.161 30.3966 214.799 26.7563 202.436 23.4863C131.294 4.66902 61.3614 -2.01208 0.194519 4.16898C0.194519 4.16898 0 2.24622 0 2.24622C61.3949 -3.95513 131.567 2.742 202.931 21.6182C215.329 24.8977 227.726 28.5484 239.779 32.4694C239.779 32.4694 239.18 34.3063 239.18 34.3063Z" fill="#F0F0F0" fill-rule="evenodd" transform="translate(132.076 94.53)" />
    <g id="a9a6faa7-f9f8-42ac-a25b-707af5da24b3" transform="translate(249.589 157.6)">
      <path id="b6badfe4-ecf7-40b3-ab9a-d2e442646810-383" d="M0 1.93221L16.4381 0L22.2397 50.2372C22.2397 50.2372 37.0524 119.611 37.0524 119.611C41.2831 121.67 43.6565 126.263 42.8875 130.901C42.1184 135.54 38.3899 139.123 33.7206 139.709C29.0512 140.295 24.5512 137.746 22.6571 133.442C20.7629 129.138 21.9249 124.102 25.5139 121.06C25.5139 121.06 10.6365 80.1864 10.6365 80.1864L0 1.93221Z" fill="#FFB6B6" fill-rule="evenodd" transform="translate(133.694 143.226)" />
      <path id="eb66624a-625c-4022-aac2-7acd24895291-384" d="M0.0019455 52.1936L13.545 52.1936L19.9887 0L0 0L0.0019455 52.1936Z" fill="#FFB6B6" fill-rule="evenodd" transform="translate(109.812 451.112)" />
      <path id="a67f4ff8-8ebc-49ff-bea4-e9dad041920e-385" d="M0 17.5338L43.6692 17.5338C43.6692 17.5338 43.6692 16.9821 43.6692 16.9821C43.6692 7.60468 36.0607 0.00158691 26.6742 0C26.6742 0 0 0 0 0L0 17.5338Z" fill="#2F2E41" fill-rule="evenodd" transform="translate(106.36 498.885)" />
      <path id="f2666089-6ab6-4bee-94c7-c04bd8c6f398-386" d="M0 51.2458L13.2974 53.8108L29.5305 3.78616L9.90157 0L0 51.2458Z" fill="#FFB6B6" fill-rule="evenodd" transform="translate(5.877 444.679)" />
      <path id="e202d012-54d0-4120-af29-b522f4befddf-387" d="M0 17.2169L42.8773 25.4896C42.8773 25.4896 42.9817 24.9476 42.9817 24.9476C44.761 15.7388 38.7326 6.83203 29.516 5.05267C29.516 5.05267 29.516 5.05267 29.516 5.05267L3.32818 0L0 17.2169Z" fill="#2F2E41" fill-rule="evenodd" transform="translate(0 490.932)" />
      <path id="a7799203-f10e-4175-b8b3-865436e3910e-388" d="M66.8053 62.8338L58.9363 77.9185L0 64.9312C0 64.9312 6.4563 35.6844 6.4563 35.6844C11.5666 12.5347 32.0533 -4.18365 55.2232 0.9222C78.3932 6.02805 89.2037 28.6541 84.0933 51.8038C84.0933 51.8038 74.596 81.3665 74.596 81.3665L64.9865 79.2488L66.8053 62.8338Z" fill="#2F2E41" fill-rule="evenodd" transform="translate(64.245 0)" />
      <path id="fb4efb0d-4e34-4aa4-af9b-85f1b453b517-389" d="M142.141 2.57628C142.141 2.57628 147.943 31.5593 140.207 74.0677C132.472 116.576 130.538 134.932 130.538 134.932C130.538 134.932 136.339 141.695 132.472 145.559C128.604 149.424 132.472 157.152 132.472 157.152C132.472 157.152 123.769 250.864 123.769 250.864L93.7937 246.034C93.7937 246.034 97.6615 158.118 97.6615 158.118C97.6615 158.118 93.7937 150.39 95.7276 148.457C97.6615 146.525 93.7937 134.932 93.7937 134.932C93.7937 134.932 88.959 43.1525 88.959 43.1525C88.959 43.1525 58.9837 143.627 58.9837 143.627C58.9837 143.627 61.8845 147.491 58.9837 150.39C56.0828 153.288 50.2812 167.78 50.2812 167.78C50.2812 167.78 30.9422 235.407 30.9422 235.407L0 229.61C0 229.61 17.405 152.322 17.405 152.322C17.405 152.322 15.4711 147.491 18.372 144.593C20.0895 142.793 20.8124 140.265 20.3059 137.83C20.3059 137.83 17.405 134.932 21.2728 131.068C25.1406 127.203 27.0745 111.746 27.0745 111.746C27.0745 111.746 29.9753 8.37288 39.6448 2.57628C49.3142 -3.22034 142.141 2.57628 142.141 2.57628C142.141 2.57628 142.141 2.57628 142.141 2.57628Z" fill="#2F2E41" fill-rule="evenodd" transform="translate(9.925 226.634)" />
      <path id="b01ade62-873d-4b0f-b59f-ba4b75076aa4" d="M0 27.0508C0 12.1111 12.1217 0 27.0745 0C42.0273 0 54.1489 12.1111 54.1489 27.0508C54.1489 41.9906 42.0273 54.1016 27.0745 54.1016C12.1217 54.1016 0 41.9906 0 27.0508Z" fill="#FFB6B6" fill-rule="evenodd" transform="translate(81.269 15.255)" />
      <path id="b558b83e-b369-42dd-8f4d-22a4c2c4f5e2-390" d="M25.4538 0.450378C25.4538 0.450378 5.80167 -1.84992 0 3.94669C0 3.94669 5.80167 120.845 5.80167 120.845C5.80167 120.845 1.93389 123.743 3.86778 130.506C4.99059 134.945 4.99059 139.593 3.86778 144.031C3.86778 144.031 -1.93389 150.794 0.966946 153.692C3.86778 156.591 108.298 154.658 108.298 154.658C108.298 154.658 112.166 147.896 106.364 144.031C100.562 140.167 103.463 129.54 103.463 129.54C103.463 129.54 105.397 126.641 100.562 121.811C95.7276 116.98 91.8598 77.3703 91.8598 77.3703C91.8598 77.3703 104.43 29.0653 104.43 29.0653C104.43 29.0653 91.7766 14.795 77.314 13.7188C77.314 13.7188 25.4538 0.450378 25.4538 0.450378Z" fill="#E6E6E6" fill-rule="evenodd" transform="translate(44.734 76.483)" />
      <path id="f8cef0e8-06d3-4209-b80b-8403fdc77134-391" d="M4.35805 0.664665C4.35805 0.664665 19.3389 0 19.3389 0C19.3389 0 28.0414 17.3898 29.0084 32.8474C29.0084 32.8474 34.3333 90.512 34.3333 90.512L0 95.644L4.35805 0.664665Z" fill="#E6E6E6" fill-rule="evenodd" transform="translate(129.824 105.547)" />
      <path id="f41dbfcb-858e-4d45-9b75-6131cbc8ec95-392" d="M48.5077 34.0742C48.5077 34.0742 58.5639 21.1459 58.5639 21.1459C59.7983 15.4796 56.2201 9.88116 50.5557 8.61654C50.5557 8.61654 12.5625 0.243353 12.5625 0.243353C6.89102 -0.990011 1.28741 2.58504 0.0212479 8.24461C0.0212479 8.24461 0 8.34123 0 8.34123L2.72101 23.9524C2.72101 23.9524 3.1987 23.8674 3.1987 23.8674C26.7777 19.6668 33.4941 21.145 48.122 33.7468C48.122 33.7468 48.5077 34.0742 48.5077 34.0742Z" fill="#2F2E41" fill-rule="evenodd" transform="translate(83.032 9.574)" />
      <path id="ed879564-5a8c-4e9d-a096-68f5b6ab9b62-393" d="M4.46595 130.172L6.27897 54.1016L8.21286 0L31.4195 2.8983C31.4195 2.8983 18.9566 132.206 18.9566 132.206C21.6369 135.568 22.0263 140.212 19.9431 143.973C17.86 147.734 13.7146 149.87 9.4399 149.387C5.16519 148.903 1.60306 145.894 0.414501 141.763C-0.774055 137.632 0.645025 133.193 4.00998 130.515C4.15882 130.396 4.31079 130.282 4.46589 130.171C4.46589 130.171 4.46595 130.172 4.46595 130.172Z" fill="#FFB6B6" fill-rule="evenodd" transform="translate(25.885 120.041)" />
      <path id="aaf783f1-6b30-4a3e-8412-451b817d63a0-394" d="M41.5777 1.63077C41.5777 1.63077 24.6494 0 24.6494 0C24.6494 0 21.7485 0 18.8477 9.66101C15.9469 19.322 0 121.427 0 121.427C0 121.427 35.2867 124.627 35.2867 124.627L41.5777 1.63077Z" fill="#E6E6E6" fill-rule="evenodd" transform="translate(20.084 80.428)" />
    </g>
    <path id="af8c7bff-6816-464a-b0a9-6a679aecd372" d="M0 43.9557C0 19.6796 19.6968 0 43.9941 0C68.2913 0 87.9882 19.6796 87.9882 43.9557C87.9882 68.2317 68.2913 87.9113 43.9941 87.9113C19.6968 87.9113 0 68.2317 0 43.9557Z" fill="#40A578" fill-rule="evenodd" transform="translate(107.01 18.875)" />
    <path id="Shape" d="M44.9624 89.8449C26.7774 89.8449 10.3829 78.9001 3.42377 62.114C-3.53535 45.3278 0.311333 26.0062 13.1701 13.1586C26.0289 0.311052 45.3675 -3.53226 62.1683 3.42079C78.9691 10.3739 89.9235 26.754 89.9235 44.9232C89.895 69.7218 69.7814 89.8173 44.9617 89.8449C44.9617 89.8449 44.9624 89.8449 44.9624 89.8449ZM44.9624 1.93351C27.5595 1.9335 11.8702 12.4076 5.21042 28.4717C-1.44937 44.5358 2.23186 63.0264 14.5375 75.3213C26.8432 87.6163 45.35 91.2943 61.4282 84.6403C77.5063 77.9863 87.9896 62.3108 87.9895 44.9231C87.9636 21.1936 68.7163 1.96147 44.9643 1.93351C44.9643 1.93351 44.9624 1.93351 44.9624 1.93351Z" fill="#3F3D56" transform="translate(116.361 -0.001)" />
    <path id="a60e3f6d-2e55-4ba4-880b-24129c1d171d" d="M0 30.1849C0 13.5142 13.5261 0 30.2112 0C46.8964 0 60.4225 13.5142 60.4225 30.1849C60.4225 46.8555 46.8964 60.3697 30.2112 60.3697C13.5261 60.3697 0 46.8555 0 30.1849Z" fill="#40A578" fill-rule="evenodd" transform="translate(525.618 189.526)" />
    <path id="Shape" d="M31.1783 62.3022C13.959 62.3022 0 48.3554 0 31.1511C0 13.9468 13.959 0 31.1783 0C48.3976 0 62.3566 13.9468 62.3566 31.1511C62.3361 48.3493 48.3876 62.2838 31.1763 62.3022C31.1763 62.3022 31.1783 62.3022 31.1783 62.3022ZM31.1783 1.93221C15.0271 1.93221 1.9339 15.0139 1.9339 31.1511C1.9339 47.2882 15.0271 60.37 31.1783 60.37C47.3296 60.37 60.4227 47.2882 60.4227 31.1511C60.4043 15.0209 47.3215 1.95001 31.1777 1.93221C31.1777 1.93221 31.1783 1.93221 31.1783 1.93221Z" fill="#3F3D56" transform="translate(531.738 176.262)" />
    <path id="aea90dfe-d7fa-4ce2-8106-f6b698b2b1f8-395" d="M581.134 1.93219C581.134 1.93219 0.966946 1.93219 0.966946 1.93219C0.432922 1.93219 0 1.49969 0 0.966125C0 0.432495 0.432922 0 0.966946 0C0.966946 0 581.134 0 581.134 0C581.668 0 582.101 0.432495 582.101 0.966125C582.101 1.49969 581.668 1.93219 581.134 1.93219C581.134 1.93219 581.134 1.93219 581.134 1.93219Z" fill="#CACACA" fill-rule="evenodd" transform="translate(46.899 673.068)" />
    <g id="baaccb77-fe9e-4683-9e52-b00664372613" transform="translate(535.493 586.118)">
      <path id="fb603159-8dea-4755-9c7c-d25bd7f9bc0c-396" d="M32.9806 49.588C26.7756 51.7673 19.8822 50.554 14.7961 46.3873C8.4269 41.0467 6.43015 32.2465 4.80569 24.0994C4.80569 24.0994 0 0 0 0C0 0 10.0611 6.92209 10.0611 6.92209C17.2967 11.8994 24.6948 17.0371 29.7055 24.2472C34.7163 31.4572 36.9025 41.2998 32.8772 49.102C32.8772 49.102 32.9806 49.588 32.9806 49.588Z" fill="#FCDC2A" fill-rule="evenodd" transform="translate(19.138 0)" />
      <path id="a8ec8a48-e4af-4fa0-8d27-3c92af74fe9a-397" d="M17.9253 59.8857C19.1919 50.6672 20.4944 41.3308 19.6058 32.0137C18.8168 23.739 16.2901 15.6576 11.146 9.03113C8.41555 5.5207 5.09333 2.5129 1.32854 0.143055C0.347073 -0.476206 -0.557022 1.07826 0.420547 1.69463C6.93486 5.80828 11.9734 11.8827 14.8097 19.0419C17.9425 27.0035 18.4454 35.682 17.9039 44.1393C17.577 49.2538 16.8857 54.3345 16.1885 59.4094C16.0747 59.8857 16.3494 60.3686 16.8171 60.5147C17.2957 60.6433 17.7889 60.3633 17.9233 59.8867C17.9233 59.8867 17.9253 59.8857 17.9253 59.8857Z" fill="#F2F2F2" fill-rule="evenodd" transform="translate(32.639 20.556)" />
      <path id="b09ba816-4f06-4578-8eb4-a29f6123e742-398" d="M41.4491 14.9949C38.788 19.0359 34.2094 21.397 29.371 21.2233C23.257 20.9335 18.1593 16.6701 13.5711 12.625C13.5711 12.625 0 0.649246 0 0.649246C0 0.649246 8.98196 0.220329 8.98196 0.220329C15.4411 -0.0888329 22.0677 -0.376705 28.2242 1.61346C34.3807 3.60363 40.0509 8.39356 41.1755 14.7524C41.1755 14.7524 41.4491 14.9949 41.4491 14.9949Z" fill="#E6E6E6" fill-rule="evenodd" transform="translate(0 50.657)" />
      <path id="add4fdd4-5f13-462c-8fd8-fbec5e5c357a-399" d="M37.3895 27.8154C31.2978 17.0376 24.2217 5.05894 11.5866 1.23027C8.07343 0.169407 4.38961 -0.210632 0.733583 0.110615C-0.419031 0.207203 -0.130848 1.98486 1.02366 1.88532C7.15205 1.37703 13.2686 2.99388 18.3436 6.46368C23.2276 9.78513 27.0296 14.4021 30.2476 19.2993C32.2192 22.2942 33.9848 25.4254 35.7505 28.5478C36.3104 29.5448 37.96 28.825 37.3895 27.8154C37.3895 27.8154 37.3895 27.8154 37.3895 27.8154Z" fill="#F2F2F2" fill-rule="evenodd" transform="translate(16.755 57.926)" />
    </g>
    <g id="ee656491-410e-4193-8926-ffe46b73d48a" transform="translate(108.177 613.206)">
      <path id="a6ee8b3a-6384-4722-b3cb-80bef4872a5a-400" d="M1.08706 35.0469C5.55497 36.9103 10.6722 36.3096 14.5862 33.4623C19.4928 29.8061 21.332 23.424 22.8726 17.5066C22.8726 17.5066 27.4236 0 27.4236 0C27.4236 0 19.7372 4.66263 19.7372 4.66263C14.2092 8.01509 8.55445 11.4787 4.56435 16.5683C0.574259 21.6579 -1.44444 28.7902 1.18521 34.6964C1.18521 34.6964 1.08706 35.0469 1.08706 35.0469Z" fill="#E6E6E6" fill-rule="evenodd" />
      <path id="f2bbd591-1ffb-4624-8852-7218542fde3c-401" d="M0.60289 43.5653C-0.378957 31.2266 -1.21689 17.3424 7.11525 7.10898C9.43424 4.2664 12.2758 1.89295 15.4869 0.116598C16.4965 -0.447295 17.2525 1.18742 16.2397 1.74996C10.8745 4.75246 6.70856 9.51025 4.44326 15.2223C2.25311 20.7046 1.68519 26.6565 1.75819 32.5144C1.79986 36.0988 2.08851 39.6811 2.3723 43.2561C2.46534 44.3961 0.694397 44.7203 0.60289 43.5653C0.60289 43.5653 0.60289 43.5653 0.60289 43.5653Z" fill="#F2F2F2" fill-rule="evenodd" transform="translate(1.204 15.23)" />
    </g>
    <path id="e41ec8f5-a87e-4b16-bc24-7a000bd09eb1" d="M0 43.3905C0 19.4266 19.4436 0 43.4284 0C67.4133 0 86.8568 19.4266 86.8568 43.3905C86.8568 67.3544 67.4133 86.7809 43.4284 86.7809C19.4436 86.7809 0 67.3544 0 43.3905Z" fill="#E4E4E4" fill-rule="evenodd" transform="translate(48.301 279.732)" />
    <path id="Shape" d="M44.3963 88.7142C26.4401 88.7141 10.252 77.9069 3.3806 61.332C-3.49086 44.7571 0.307514 25.6786 13.0045 12.9928C25.7016 0.307037 44.7968 -3.48782 61.3861 3.37781C77.9754 10.2434 88.7919 26.4175 88.7917 44.358C88.7637 68.8445 68.9031 88.687 44.3958 88.7142C44.3958 88.7142 44.3963 88.7142 44.3963 88.7142ZM44.3962 1.9335C20.9455 1.93362 1.93502 20.9276 1.93507 44.3578C1.9351 67.788 20.9456 86.782 44.3963 86.782C67.847 86.782 86.8576 67.7882 86.8577 44.358C86.8297 20.9356 67.8331 1.95825 44.3932 1.9335C44.3932 1.9335 44.3962 1.9335 44.3962 1.9335Z" fill="#2F2E41" transform="translate(57.52 261.087)" />
    <path id="Oval" d="M0 7.72881C0 3.4603 3.46333 0 7.73556 0C12.0078 0 15.4711 3.4603 15.4711 7.72881C15.4711 11.9973 12.0078 15.4576 7.73556 15.4576C3.46333 15.4576 0 11.9973 0 7.72881Z" fill="#F2F2F2" fill-rule="evenodd" transform="translate(57.776 156.839)" />
    <path id="Oval" d="M0 7.72881C0 3.4603 3.46332 0 7.73557 0C12.0078 0 15.4711 3.4603 15.4711 7.72881C15.4711 11.9973 12.0078 15.4576 7.73557 15.4576C3.46332 15.4576 0 11.9973 0 7.72881Z" fill="#FCDC2A" fill-rule="evenodd" transform="translate(455.191 118.195)" />
    <path id="Oval" d="M0 7.72882C0 3.4603 3.46332 0 7.7356 0C12.0078 0 15.4711 3.4603 15.4711 7.72882C15.4711 11.9973 12.0078 15.4576 7.7356 15.4576C3.46332 15.4576 0 11.9973 0 7.72882Z" fill="#F2F2F2" fill-rule="evenodd" transform="translate(506.439 392.568)" />
    <path id="Path" d="M0 0L0 0L0 0L0 0L0 0Z" fill="#F2F2F2" fill-rule="evenodd" transform="translate(206.987 199.845)" />
    <path id="Path" d="M10.8713 12.6855L11.1646 10.7753C11.1646 10.7753 48.9457 16.5663 48.9457 16.5663C45.0956 12.8528 32.3452 1.36812 20.7816 0.203598C6.96701 -1.18741 0.88884 4.72108 0.0855103 12.6842C-0.717804 20.6474 4.0575 27.6491 17.8723 29.0405C29.5826 30.22 44.6013 21.2703 48.9069 18.5154C48.9069 18.5154 10.8713 12.6855 10.8713 12.6855Z" fill="#F2F2F2" fill-rule="evenodd" transform="translate(156.874 182.122)" />
    <path id="Path" d="M0 0L0 0L0 0L0 0L0 0Z" fill="#F2F2F2" fill-rule="evenodd" transform="translate(560.255 67.896)" />
    <path id="Path" d="M10.8836 24.5579L9.71796 23.0156C9.71796 23.0156 40.2198 0 40.2198 0C34.871 0.16729 17.7408 1.28832 8.84119 8.75673C-1.79059 17.679 -1.79102 26.1519 3.36096 32.2804C8.51288 38.409 16.8657 39.8724 27.4979 30.9502C36.5104 23.3873 40.5643 6.39143 41.5908 1.38703C41.5908 1.38703 10.8836 24.5579 10.8836 24.5579Z" fill="#F2F2F2" fill-rule="evenodd" transform="translate(518.391 67.925)" />
    <path id="Path" d="M0 0L0 0L0 0L0 0L0 0Z" fill="#F2F2F2" fill-rule="evenodd" transform="translate(479.542 296.356)" />
    <path id="Path" d="M7.83008 17.6679L6.99146 16.5583C6.99146 16.5583 28.9357 0 28.9357 0C25.0875 0.120361 12.7634 0.926849 6.36072 6.29993C-1.28821 12.7189 -1.28851 18.8147 2.41803 23.2238C6.1246 27.633 12.1339 28.6858 19.7832 22.2668C26.2672 16.8257 29.1836 4.59827 29.9221 0.997894C29.9221 0.997894 7.83008 17.6679 7.83008 17.6679Z" fill="#F2F2F2" fill-rule="evenodd" transform="translate(449.424 296.377)" />
    <path id="Path" d="M4.35748 31.4136C10.303 15.442 24.3503 1.64156 41.3261 0C31.1201 15.473 26.7209 34.0542 28.9067 52.4561C29.7755 59.5498 31.481 67.3494 27.6536 73.387C25.2722 77.1437 21.0752 79.4565 16.749 80.5002C12.4225 81.5438 7.91446 81.463 3.46448 81.3762C3.46448 81.3762 2.46826 81.8677 2.46826 81.8677C-0.661438 65.1166 -1.58807 47.3851 4.35748 31.4136C4.35748 31.4136 4.35748 31.4136 4.35748 31.4136Z" fill="#F0F0F0" fill-rule="evenodd" transform="translate(279.18 19.067)" />
    <path id="Path" d="M39.1293 0.728638C27.5567 8.80641 18.8257 20.322 14.1765 33.6399C13.1247 36.4891 12.529 39.4862 12.4113 42.5208C12.3922 45.4806 13.1668 48.3915 14.6546 50.951C15.9938 53.3654 17.6434 55.6801 18.3719 58.3777C19.0845 61.1817 18.5655 64.1564 16.9453 66.5542C15.0262 69.5599 12.1407 71.6974 9.24606 73.6898C6.0322 75.9019 2.65894 78.1488 0.692444 81.6239C0.454193 82.0449 -0.185791 81.6509 0.052124 81.2305C3.47342 75.1844 10.6537 72.9882 15.0463 67.8525C17.0959 65.4561 18.4351 62.428 17.8015 59.237C17.2473 56.4467 15.5482 54.0583 14.1711 51.6254C12.6831 49.1497 11.8246 46.3477 11.6703 43.4641C11.6329 40.433 12.1122 37.418 13.0873 34.5478C15.1795 28.0511 18.281 21.9234 22.2784 16.3894C26.8054 10.0481 32.3848 4.52728 38.7751 0.0657864C39.1707 -0.21019 39.5224 0.454159 39.1293 0.728359C39.1293 0.728359 39.1293 0.728638 39.1293 0.728638Z" fill="#FFFFFF" fill-rule="evenodd" transform="translate(281.459 18.687)" />
    <path id="Path" d="M5.50983 12.2858C1.10965 10.0497 -1.0213 4.9578 0.476227 0.25779C0.624481 -0.20216 1.34683 0.0064621 1.19836 0.46703C-0.204742 4.84273 1.7923 9.58735 5.90366 11.6461C6.33585 11.8631 5.93967 12.5016 5.50995 12.2858C5.50995 12.2858 5.50983 12.2858 5.50983 12.2858Z" fill="#FFFFFF" fill-rule="evenodd" transform="translate(291.371 35.664)" />
    <path id="Path" d="M0.270691 9.06007C4.93002 7.58976 8.86343 4.41888 11.2867 0.179668C11.5264 -0.240524 12.1665 0.153343 11.927 0.573032C9.39706 4.97973 5.297 8.27122 0.445068 9.7906C-0.0174866 9.9351 -0.189362 9.20377 0.270691 9.06007C0.270691 9.06007 0.270691 9.06007 0.270691 9.06007Z" fill="#FFFFFF" fill-rule="evenodd" transform="translate(295.003 59.443)" />
    <path id="Path" d="M0.568207 0.0549908C2.06525 1.25457 4.06564 1.62165 5.8916 1.03182C6.35211 0.881535 6.5235 1.61305 6.06598 1.76237C4.04645 2.40435 1.83972 2.00447 0.1745 0.694759C0.00350952 0.582001 -0.0504456 0.355925 0.0512695 0.178186C0.160614 0.00240898 0.391266 -0.0525475 0.568237 0.0549755C0.568237 0.0549755 0.568207 0.0549908 0.568207 0.0549908Z" fill="#FFFFFF" fill-rule="evenodd" transform="translate(308.211 29.533)" />
    <path id="Path" d="M80.3551 5.50406C80.0702 5.60607 79.7853 5.70808 79.4987 5.81619C75.676 7.20748 71.9726 8.90676 68.4253 10.8973C68.1486 11.0468 67.8704 11.2026 67.5986 11.3597C59.1034 16.2463 51.5901 22.6663 45.4406 30.2932C42.9963 33.3304 40.7869 36.549 38.8314 39.9211C36.131 44.5783 33.574 49.8425 29.6083 53.2365C29.1985 53.5953 28.7669 53.9283 28.3159 54.2337C28.3159 54.2337 1.25671 47.8364 1.25671 47.8364C1.20255 47.791 1.14661 47.7517 1.09207 47.7062C1.09207 47.7062 0 47.5001 0 47.5001C0.0887146 47.3192 0.184601 47.1334 0.273254 46.9525C0.324249 46.8473 0.381317 46.7435 0.432312 46.6384C0.468231 46.5687 0.504486 46.4991 0.532867 46.4341C0.544739 46.4109 0.556885 46.3878 0.567322 46.3706C0.595795 46.3057 0.629059 46.2484 0.656036 46.1897C1.18915 45.1498 1.73053 44.1118 2.28003 43.0758C2.28149 43.0696 2.28149 43.0696 2.289 43.0649C6.40106 35.1306 11.4408 27.7117 17.3023 20.9637C17.4799 20.7647 17.6588 20.5594 17.8487 20.3634C20.5258 17.3958 23.4411 14.6517 26.5656 12.1587C28.2809 10.7991 30.0639 9.52708 31.9079 8.34759C36.6784 5.30914 41.8975 3.03931 47.3739 1.62133C58.2915 -1.20383 69.9919 -0.508926 79.6232 5.07054C79.8698 5.21346 80.1103 5.35497 80.3551 5.50406C80.3551 5.50406 80.3551 5.50406 80.3551 5.50406Z" fill="#F0F0F0" fill-rule="evenodd" transform="translate(281.069 54.275)" />
    <path id="Path" d="M79.9366 0.786861C65.8289 0.275066 51.9185 4.21757 40.1811 12.0544C37.6243 13.6967 35.3426 15.7313 33.42 18.0835C31.6212 20.4353 30.4856 23.2254 30.1311 26.164C29.7455 28.8973 29.6678 31.7378 28.6238 34.3299C27.5031 36.9975 25.2962 39.0604 22.5577 40.0002C19.2142 41.2457 15.6221 41.2166 12.1104 41.0662C8.21127 40.8992 4.16397 40.664 0.499786 42.2557C0.0557861 42.4486 -0.217743 41.7491 0.225525 41.5565C6.60062 38.7871 13.6571 41.3528 20.259 39.8945C23.3396 39.2141 26.2336 37.602 27.6505 34.6729C28.8895 32.1116 28.9721 29.1826 29.3387 26.4116C29.6424 23.5399 30.6454 20.7861 32.2599 18.3909C34.0563 15.9486 36.2558 13.8295 38.7639 12.1244C44.3494 8.19563 50.5183 5.16878 57.0449 3.15467C64.4807 0.814724 72.2624 -0.237099 80.0532 0.0447159C80.5353 0.0623589 80.4158 0.804344 79.9367 0.786819C79.9367 0.786819 79.9366 0.786861 79.9366 0.786861Z" fill="#FFFFFF" fill-rule="evenodd" transform="translate(281.346 59.321)" />
    <path id="Path" d="M1.02252 12.7034C-1.14331 8.27105 0.223602 2.9236 4.2514 0.0716972C4.647 -0.206341 5.09802 0.394745 4.7019 0.673153C0.944855 3.3229 -0.319733 8.3125 1.72235 12.4294C1.93665 12.8627 1.2355 13.1342 1.02246 12.7034C1.02246 12.7034 1.02252 12.7034 1.02252 12.7034Z" fill="#FFFFFF" fill-rule="evenodd" transform="translate(324.135 55.926)" />
    <path id="Path" d="M0.527039 0.496696C5.13318 2.1255 10.1845 1.95985 14.6739 0.0328064C15.1185 -0.158478 15.3923 0.540977 14.9482 0.732086C10.2727 2.72872 5.01562 2.89043 0.226105 1.18492C-0.230286 1.02204 0.0731812 0.334747 0.5271 0.496712C0.5271 0.496712 0.527039 0.496696 0.527039 0.496696Z" fill="#FFFFFF" fill-rule="evenodd" transform="translate(310.962 83.576)" />
    <path id="Path" d="M0.722412 0.238052C1.19482 2.09639 2.57089 3.59281 4.38422 4.22027C4.84241 4.37728 4.53848 5.06448 4.08322 4.90848C2.08383 4.20624 0.562866 2.55951 0.022522 0.512054C-0.0461121 0.319145 0.0469971 0.106159 0.235321 0.0254211C0.428558 -0.0491104 0.645844 0.0457344 0.722412 0.238052C0.722412 0.238052 0.722412 0.238052 0.722412 0.238052Z" fill="#FFFFFF" fill-rule="evenodd" transform="translate(345.001 60.888)" />
    <path id="Path" d="M4.35748 31.4136C10.303 15.442 24.3503 1.64153 41.3261 0C31.1201 15.4731 26.7208 34.0542 28.9067 52.4561C29.7754 59.5499 31.4809 67.3494 27.6535 73.387C25.2721 77.1438 21.0752 79.4565 16.7489 80.5002C12.4225 81.5439 7.91441 81.463 3.46445 81.3762C3.46445 81.3762 2.4682 81.8677 2.4682 81.8677C-0.661407 65.1166 -1.58804 47.3851 4.35748 31.4136C4.35748 31.4136 4.35748 31.4136 4.35748 31.4136Z" fill="#F0F0F0" fill-rule="evenodd" transform="translate(196.99 239.338)" />
    <path id="Path" d="M39.1293 0.728485C27.5567 8.80618 18.8257 20.3218 14.1765 33.6396C13.1247 36.4888 12.529 39.486 12.4113 42.5206C12.3922 45.4803 13.1668 48.3913 14.6545 50.9508C15.9938 53.3652 17.6434 55.6799 18.3718 58.3775C19.0845 61.1815 18.5655 64.1562 16.9453 66.5539C15.0262 69.5597 12.1407 71.6972 9.24608 73.6895C6.03221 75.9017 2.65894 78.1485 0.692474 81.6236C0.454208 82.0447 -0.185776 81.6507 0.052124 81.2303C3.47343 75.1842 10.6537 72.988 15.0463 67.8523C17.0959 65.4559 18.4352 62.4278 17.8015 59.2368C17.2473 56.4465 15.5482 54.0581 14.1712 51.6252C12.6832 49.1495 11.8246 46.3475 11.6703 43.4639C11.633 40.4331 12.1122 37.418 13.0874 34.5478C15.1796 28.0511 18.2811 21.9235 22.2784 16.3894C26.8054 10.0481 32.3848 4.52731 38.7751 0.0657959C39.1708 -0.210205 39.5224 0.454178 39.1294 0.728363C39.1294 0.728363 39.1293 0.728485 39.1293 0.728485Z" fill="#FFFFFF" fill-rule="evenodd" transform="translate(199.269 238.958)" />
    <path id="Path" d="M5.50992 12.2859C1.10966 10.0497 -1.02129 4.95781 0.476227 0.257797C0.624512 -0.202164 1.34683 0.00648499 1.19833 0.467056C-0.204712 4.8427 1.7923 9.58733 5.90363 11.6461C6.33577 11.8631 5.93959 12.5016 5.50992 12.2859C5.50992 12.2859 5.50992 12.2859 5.50992 12.2859Z" fill="#FFFFFF" fill-rule="evenodd" transform="translate(209.18 255.935)" />
    <path id="Path" d="M0.270645 9.06003C4.92995 7.58972 8.86339 4.41885 11.2867 0.179657C11.5264 -0.240509 12.1665 0.153351 11.927 0.573029C9.39708 4.97971 5.297 8.27118 0.445099 9.79056C-0.0174561 9.93503 -0.189346 9.2037 0.270706 9.06003C0.270706 9.06003 0.270645 9.06003 0.270645 9.06003Z" fill="#FFFFFF" fill-rule="evenodd" transform="translate(212.813 279.714)" />
    <path id="Path" d="M0.568283 0.0549622C2.06529 1.25453 4.06566 1.6216 5.89166 1.03178C6.35219 0.881516 6.52357 1.61302 6.06607 1.76234C4.04654 2.40434 1.83984 2.00447 0.174576 0.694733C0.00354004 0.582001 -0.0504303 0.355927 0.0512543 0.178162C0.160675 0.00241089 0.391312 -0.052536 0.568314 0.0549927C0.568314 0.0549927 0.568283 0.0549622 0.568283 0.0549622Z" fill="#FFFFFF" fill-rule="evenodd" transform="translate(226.021 249.804)" />
    <path id="Path" d="M80.355 5.50409C80.0701 5.60608 79.7852 5.7081 79.4986 5.81622C75.6758 7.20749 71.9725 8.90677 68.4252 10.8973C68.1485 11.0468 67.8703 11.2026 67.5984 11.3597C59.1033 16.2463 51.59 22.6663 45.4405 30.2932C42.9963 33.3304 40.7868 36.549 38.8313 39.9211C36.131 44.5783 33.574 49.8425 29.6082 53.2365C29.1985 53.5953 28.7669 53.9283 28.3159 54.2337C28.3159 54.2337 1.25673 47.8364 1.25673 47.8364C1.20251 47.791 1.14656 47.7517 1.09209 47.7062C1.09209 47.7062 0 47.5002 0 47.5002C0.0886993 47.3192 0.18457 47.1335 0.273285 46.9525C0.324295 46.8473 0.381348 46.7436 0.432327 46.6384C0.468246 46.5687 0.504486 46.4991 0.532898 46.4341C0.544769 46.4109 0.556946 46.3878 0.567368 46.3706C0.595779 46.3057 0.629105 46.2484 0.656067 46.1897C1.18918 45.1498 1.73051 44.1118 2.28009 43.0758C2.28154 43.0696 2.28154 43.0696 2.28903 43.0649C6.40117 35.1306 11.4408 27.7117 17.3024 20.9637C17.48 20.7646 17.6588 20.5594 17.8488 20.3633C20.5258 17.3957 23.4412 14.6517 26.5656 12.1587C28.2809 10.799 30.064 9.52704 31.908 8.34756C36.6784 5.30914 41.8976 3.03931 47.374 1.62134C58.2917 -1.20383 69.9921 -0.508911 79.6234 5.07053C79.8696 5.21347 80.1102 5.35498 80.355 5.50409C80.355 5.50409 80.355 5.50409 80.355 5.50409Z" fill="#F0F0F0" fill-rule="evenodd" transform="translate(198.879 274.546)" />
    <path id="Path" d="M79.9364 0.786835C65.8287 0.275055 51.9183 4.21756 40.181 12.0544C37.6242 13.6966 35.3425 15.7313 33.4199 18.0835C31.6211 20.4352 30.4855 23.2254 30.131 26.1639C29.7453 28.8973 29.6677 31.7378 28.6238 34.3298C27.5031 36.9974 25.2962 39.0603 22.5577 40.0002C19.2142 41.2457 15.6221 41.2166 12.1104 41.0661C8.21129 40.8991 4.16397 40.6639 0.499771 42.2557C0.0558167 42.4485 -0.217758 41.749 0.225555 41.5564C6.60062 38.787 13.6571 41.3527 20.259 39.8945C23.3396 39.2141 26.2336 37.6019 27.6505 34.6729C28.8896 32.1116 28.9721 29.1825 29.3387 26.4116C29.6424 23.5398 30.6454 20.7861 32.2598 18.3909C34.0564 15.9485 36.2558 13.8294 38.764 12.1243C44.3493 8.19559 50.5182 5.16876 57.0446 3.15469C64.4805 0.814728 72.2621 -0.237091 80.0529 0.0447083C80.5351 0.0623169 80.4156 0.804321 79.9365 0.786774C79.9365 0.786774 79.9364 0.786835 79.9364 0.786835Z" fill="#FFFFFF" fill-rule="evenodd" transform="translate(199.155 279.592)" />
    <path id="Path" d="M1.02252 12.7034C-1.14331 8.27103 0.223602 2.92361 4.25145 0.0717163C4.64705 -0.206329 5.09805 0.394745 4.70193 0.673157C0.944855 3.32288 -0.319717 8.3125 1.72237 12.4294C1.93665 12.8627 1.23552 13.1342 1.02246 12.7034C1.02246 12.7034 1.02252 12.7034 1.02252 12.7034Z" fill="#FFFFFF" fill-rule="evenodd" transform="translate(241.944 276.197)" />
    <path id="Path" d="M0.527054 0.496704C5.13324 2.12552 10.1846 1.9599 14.674 0.0328064C15.1186 -0.158478 15.3923 0.540985 14.9482 0.732086C10.2727 2.72873 5.01567 2.89041 0.226089 1.18491C-0.230286 1.02203 0.0731506 0.334717 0.527084 0.496704C0.527084 0.496704 0.527054 0.496704 0.527054 0.496704Z" fill="#FFFFFF" fill-rule="evenodd" transform="translate(228.772 303.847)" />
    <path id="Path" d="M0.722412 0.238129C1.19482 2.09647 2.57089 3.5929 4.38422 4.22037C4.84241 4.37735 4.53848 5.06454 4.08322 4.90854C2.08383 4.2063 0.562866 2.55957 0.022522 0.512085C-0.0461121 0.319183 0.0469971 0.106201 0.235321 0.0254517C0.428558 -0.0491333 0.645844 0.0457458 0.722412 0.238068C0.722412 0.238068 0.722412 0.238129 0.722412 0.238129Z" fill="#FFFFFF" fill-rule="evenodd" transform="translate(262.81 281.159)" />
    <path id="Path" d="M1.2525 32.3553C-1.78162 21.0224 0.598022 7.68179 9.47211 0C9.91583 12.7497 14.859 24.9317 23.427 34.3907C26.7446 38.0266 30.8134 41.7255 31.0735 46.6387C31.0884 49.7349 29.9131 52.7187 27.7901 54.9742C25.6779 57.1969 23.2892 59.14 20.6827 60.7562C20.6827 60.7562 20.3195 61.4288 20.3195 61.4288C11.8804 53.2723 4.28668 43.6883 1.2525 32.3553C1.2525 32.3553 1.2525 32.3553 1.2525 32.3553Z" fill="#F0F0F0" fill-rule="evenodd" transform="translate(536.925 358.111)" />
    <path id="Path" d="M3.21252 0.377747C-0.0610352 9.52054 -0.368042 19.4615 2.33514 28.7885C2.88141 30.8068 3.74268 32.7264 4.88715 34.4766C6.05725 36.1456 7.65326 37.4711 9.5094 38.3154C11.2952 39.004 12.9908 39.9067 14.5587 41.0038C16.0774 42.294 16.9727 44.1704 17.0198 46.1616C17.0073 48.5937 16.5056 50.9984 15.5447 53.2331C14.6232 55.7546 13.626 58.3592 13.9085 61.093C13.9427 61.4242 13.4263 61.4579 13.3922 61.1272C12.9006 56.3708 16.055 52.2786 16.4719 47.6466C16.7934 45.4833 16.0955 43.2929 14.5815 41.7133C13.1572 40.3677 11.2507 39.7036 9.50714 38.8864C7.68427 38.0894 6.08447 36.8585 4.84753 35.3012C3.61755 33.6148 2.68372 31.7316 2.08612 29.7322C0.668762 25.2523 -0.034729 20.5775 0.00134277 15.8793C0.0125732 10.5181 0.941895 5.1972 2.74896 0.14801C2.86096 -0.164459 3.32336 0.0684204 3.21216 0.378906C3.21216 0.378906 3.21252 0.377747 3.21252 0.377747Z" fill="#FFFFFF" fill-rule="evenodd" transform="translate(543.37 357.895)" />
    <path id="Path" d="M7.63745 5.08661C4.27539 5.58374 1.04791 3.57413 0.0134888 0.339569C-0.086731 0.0223083 0.401978 -0.148254 0.50238 0.169434C1.46039 3.18436 4.47412 5.05234 7.60327 4.57068C7.93237 4.52045 7.96472 5.03659 7.63751 5.08658C7.63751 5.08658 7.63745 5.08661 7.63745 5.08661Z" fill="#FFFFFF" fill-rule="evenodd" transform="translate(537.02 378.645)" />
    <path id="Path" d="M0.0560913 9.63788C2.0849 6.95706 3.02789 3.61075 2.69702 0.266144C2.66394 -0.0652161 3.18036 -0.0990295 3.21332 0.231934C3.55121 3.71304 2.56281 7.19339 0.445435 9.97845C0.243408 10.2438 -0.144836 9.9017 0.0560913 9.63785C0.0560913 9.63785 0.0560913 9.63788 0.0560913 9.63788Z" fill="#FFFFFF" fill-rule="evenodd" transform="translate(551.899 386.271)" />
    <path id="Path" d="M0.241516 1.66882C1.56036 1.74603 2.82965 1.15546 3.61938 0.0971985C3.81787 -0.170532 4.20593 0.171814 4.00867 0.437836C3.13123 1.60245 1.73303 2.25677 0.275818 2.18475C0.134766 2.18964 0.0143433 2.0842 0.000488281 1.94394C-0.00817871 1.80176 0.0993652 1.67905 0.241638 1.66891C0.241638 1.66891 0.241516 1.66882 0.241516 1.66882Z" fill="#FFFFFF" fill-rule="evenodd" transform="translate(543.77 367.017)" />
    <path id="Path" d="M29.594 0C29.4748 0.170715 29.3556 0.3414 29.2379 0.516235C27.6471 2.81958 26.2462 5.24823 25.0491 7.7782C24.9534 7.97232 24.8594 8.17053 24.7695 8.367C21.9504 14.493 20.2941 21.0887 19.8849 27.8188C19.7245 30.497 19.7682 33.1836 20.0159 35.8551C20.358 39.5446 21.0227 43.5179 20.1506 47.0023C20.0637 47.3669 19.9543 47.7258 19.8229 48.0768C19.8229 48.0768 2.08185 55.2617 2.08185 55.2617C2.03333 55.2578 1.98627 55.2581 1.93756 55.2542C1.93756 55.2542 1.24231 55.5735 1.24231 55.5735C1.21997 55.4365 1.19965 55.2941 1.17725 55.1572C1.16388 55.0779 1.15448 54.9969 1.14124 54.9175C1.13361 54.8641 1.12616 54.8106 1.11621 54.7628C1.11359 54.7451 1.11121 54.7272 1.11023 54.7135C1.10034 54.6657 1.09613 54.6203 1.08783 54.5766C0.972168 53.7806 0.862 52.9824 0.757202 52.1819C0.755554 52.1779 0.755554 52.1779 0.757874 52.1723C-0.0991211 46.081 -0.229858 39.9097 0.368347 33.7876C0.388611 33.6052 0.407166 33.4187 0.435608 33.233C0.754395 30.5011 1.2962 27.7999 2.05554 25.1562C2.47601 23.7099 2.96948 22.2859 3.53406 20.8895C4.99969 17.2841 7.02374 13.9316 9.53217 10.9547C14.5334 5.02118 21.3784 0.75177 29.0105 0.0481567C29.2056 0.0301819 29.3971 0.0138245 29.594 0C29.594 0 29.594 0 29.594 0Z" fill="#F0F0F0" fill-rule="evenodd" transform="translate(556.012 364.668)" />
    <path id="Path" d="M28.5192 0.504578C20.396 5.83542 14.1605 13.588 10.6984 22.6612C9.91833 24.6013 9.44928 26.652 9.30841 28.738C9.23694 30.7744 9.71252 32.7928 10.6858 34.5835C11.6968 36.2075 12.5065 37.9483 13.0974 39.7674C13.5325 41.7111 13.1167 43.7479 11.9544 45.366C10.4788 47.3003 8.62909 48.9186 6.51532 50.1248C4.26001 51.5838 1.89435 53.0636 0.472534 55.4163C0.300293 55.7013 -0.132385 55.4176 0.0396729 55.1329C2.51331 51.0396 7.49786 49.6697 10.6219 46.222C12.1823 44.6881 12.9449 42.5195 12.6879 40.3475C12.3616 38.4163 11.2394 36.7393 10.3398 35.0379C9.36469 33.305 8.82916 31.36 8.77991 29.3727C8.81396 27.2861 9.20319 25.2208 9.93091 23.2648C11.4988 18.8352 13.7541 14.6795 16.6141 10.9499C19.8545 6.67529 23.8029 2.98596 28.2885 0.0415955C28.5662 -0.140503 28.795 0.323608 28.5192 0.504517C28.5192 0.504517 28.5192 0.504578 28.5192 0.504578Z" fill="#FFFFFF" fill-rule="evenodd" transform="translate(557.139 364.405)" />
    <path id="Path" d="M3.61755 8.54694C0.633545 6.92145 -0.732422 3.37546 0.390808 0.170593C0.501953 -0.143005 0.994934 0.014801 0.883606 0.328796C-0.168213 3.31235 1.11249 6.6167 3.90106 8.11441C4.19421 8.27231 3.909 8.70389 3.61749 8.54694C3.61749 8.54694 3.61755 8.54694 3.61755 8.54694Z" fill="#FFFFFF" fill-rule="evenodd" transform="translate(565.162 375.532)" />
    <path id="Path" d="M0.193726 6.01221C3.42914 5.09216 6.19849 2.98755 7.94971 0.118011C8.12299 -0.166443 8.55573 0.117218 8.38257 0.401337C6.55463 3.38397 3.66821 5.56833 0.299316 6.51831C-0.0218506 6.60864 -0.125671 6.10202 0.193726 6.01215C0.193726 6.01215 0.193726 6.01221 0.193726 6.01221Z" fill="#FFFFFF" fill-rule="evenodd" transform="translate(567.075 392.179)" />
    <path id="Path" d="M0.3974 0.0418091C1.40399 0.89679 2.77325 1.18878 4.0415 0.818848C4.36139 0.724518 4.4649 1.23129 4.14709 1.32501C2.74469 1.72702 1.23395 1.40839 0.113831 0.474335C-0.00164795 0.393341 -0.0343018 0.236694 0.0391846 0.116394C0.11792 -0.00238037 0.27771 -0.035675 0.3974 0.0418091C0.3974 0.0418091 0.3974 0.0418091 0.3974 0.0418091Z" fill="#FFFFFF" fill-rule="evenodd" transform="translate(576.933 371.635)" />
  </g>
</svg>