<?xml version="1.0" encoding="utf-8"?>
<svg width="18.667" height="17.993" viewBox="0 0 18.667 17.993" fill="none" xmlns="http://www.w3.org/2000/svg">
  <g id="SingleElement">
    <path id="Path" d="M15 9.99524C15 9.99524 15 13.327 15 13.327C15 14.247 14.2538 14.9929 13.3334 14.9929C13.3334 14.9929 1.66663 14.9929 1.66663 14.9929C0.746216 14.9929 0 14.247 0 13.327C0 13.327 0 1.66586 0 1.66586C0 0.74585 0.746216 0 1.66663 0C1.66663 0 5 0 5 0" fill="none" stroke-width="2" stroke="#000000" stroke-linecap="round" stroke-linejoin="round" transform="translate(1436 426)" />
    <path id="Path" d="M3.75 11.4945L11.6666 3.49832L8.16663 0L0.25 7.9129L0 11.6611L3.75 11.4945L3.75 11.4945Z" fill="none" stroke-width="2" stroke="#000000" stroke-linecap="round" stroke-linejoin="round" transform="translate(1441 425)" />
  </g>
</svg>