<?xml version="1.0" encoding="utf-8"?>
<svg width="79" height="79" viewBox="0 0 79 79" fill="none" xmlns="http://www.w3.org/2000/svg">
  <g>
    <rect width="79" height="79" />
    <path id="Path" d="M11.5808 5.15259C11.5808 5.15259 2.57629 5.15259 2.57629 5.15259C1.15321 5.15259 0 3.99937 0 2.57629C0 1.15321 1.15321 0 2.57629 0C2.57629 0 11.5808 0 11.5808 0C13.0038 0 14.157 1.15321 14.157 2.57629C14.157 3.99953 13.0038 5.15259 11.5808 5.15259C11.5808 5.15259 11.5808 5.15259 11.5808 5.15259Z" fill="#E65C64" fill-rule="evenodd" transform="translate(45.074 43.4)" />
    <path id="Path" d="M2.5763 14.157C1.15322 14.157 0 13.0038 0 11.5808C0 11.5808 0 2.5763 0 2.5763C0 1.15322 1.15322 0 2.5763 0C3.99938 0 5.1526 1.15322 5.1526 2.5763C5.1526 2.5763 5.1526 11.5808 5.1526 11.5808C5.1526 13.0038 3.99938 14.157 2.5763 14.157C2.5763 14.157 2.5763 14.157 2.5763 14.157Z" fill="#F26D76" fill-rule="evenodd" transform="translate(30.5 19.822)" />
    <path id="Shape" d="M13.1776 2.26712C10.1719 -0.755708 5.25998 -0.755708 2.25428 2.26712C-0.751425 5.27283 -0.751425 10.1849 2.25428 13.1906C3.71408 14.6505 5.65498 15.4577 7.71577 15.4577C9.77656 15.4577 11.7178 14.6504 13.1774 13.1906C16.2007 10.185 16.2007 5.27283 13.1776 2.26712C13.1776 2.26712 13.1776 2.26712 13.1776 2.26712ZM9.54438 9.53697C8.49825 10.5831 6.8931 10.5411 5.89804 9.54777C4.91177 8.56151 4.91177 6.89603 5.89804 5.90976C6.91084 4.89294 8.53682 4.90837 9.52432 5.89958C10.5732 6.94355 10.5169 8.57061 9.54438 9.53697C9.54438 9.53697 9.54438 9.53697 9.54438 9.53697Z" fill="#FFC033" transform="translate(24.009 -0)" />
    <path id="Oval" d="M0 2.5763C0 1.15345 1.15345 0 2.57629 0C3.99914 0 5.15258 1.15345 5.15258 2.5763C5.15258 3.99915 3.99914 5.15259 2.57629 5.15259C1.15345 5.15259 0 3.99915 0 2.5763Z" fill="#43BFBF" fill-rule="evenodd" transform="translate(63.291 28.827)" />
    <path id="Oval" d="M0 2.57629C0 1.15345 1.15345 0 2.57629 0C3.99915 0 5.15259 1.15345 5.15259 2.57629C5.15259 3.99914 3.99915 5.15259 2.57629 5.15259C1.15345 5.15259 0 3.99914 0 2.57629Z" fill="#36D9D9" fill-rule="evenodd" transform="translate(45.073 10.609)" />
    <path id="Oval" d="M0 2.57629C0 1.15345 1.15345 0 2.57629 0C3.99914 0 5.15258 1.15345 5.15258 2.57629C5.15258 3.99914 3.99914 5.15259 2.57629 5.15259C1.15345 5.15259 0 3.99914 0 2.57629Z" fill="#43BFBF" fill-rule="evenodd" transform="translate(63.291 57.974)" />
    <path id="Oval" d="M0 2.57629C0 1.15345 1.15345 0 2.57629 0C3.99914 0 5.15259 1.15345 5.15259 2.57629C5.15259 3.99914 3.99914 5.15259 2.57629 5.15259C1.15345 5.15259 0 3.99914 0 2.57629Z" fill="#36D9D9" fill-rule="evenodd" transform="translate(15.927 10.609)" />
    <path id="Path" d="M2.57629 7.72888C1.15321 7.72888 0 6.57567 0 5.15259C0 5.15259 0 2.5763 0 2.5763C0 1.15322 1.15321 0 2.57629 0C3.99937 0 5.15259 1.15321 5.15259 2.5763C5.15259 2.5763 5.15259 5.15259 5.15259 5.15259C5.1526 6.57567 3.99953 7.72888 2.57629 7.72888C2.57629 7.72888 2.57629 7.72888 2.57629 7.72888Z" fill="#FFC033" fill-rule="evenodd" transform="translate(65.868 0.304)" />
    <path id="Path" d="M2.57629 7.72889C1.15321 7.72889 0 6.57567 0 5.15259C0 5.15259 0 2.57629 0 2.57629C0 1.15321 1.15321 0 2.57629 0C3.99937 0 5.15259 1.15321 5.15259 2.57629C5.15259 2.57629 5.15259 5.15259 5.15259 5.15259C5.1526 6.57567 3.99953 7.72889 2.57629 7.72889C2.57629 7.72889 2.57629 7.72889 2.57629 7.72889Z" fill="#F9A926" fill-rule="evenodd" transform="translate(65.868 13.185)" />
    <path id="Path" d="M5.15259 5.15259C5.15259 5.15259 2.57629 5.15259 2.57629 5.15259C1.15321 5.15259 0 3.99937 0 2.57629C0 1.15321 1.15321 0 2.57629 0C2.57629 0 5.15259 0 5.15259 0C6.57567 0 7.72888 1.15321 7.72888 2.57629C7.72888 3.99937 6.57582 5.15259 5.15259 5.15259C5.15259 5.15259 5.15259 5.15259 5.15259 5.15259Z" fill="#FFC033" fill-rule="evenodd" transform="translate(58.139 8.033)" />
    <g id="Group" transform="translate(63.512 8.033)">
      <path id="Path" d="M5.15259 5.15259C5.15259 5.15259 2.57629 5.15259 2.57629 5.15259C1.15322 5.15259 0 3.99937 0 2.57629C0 1.15321 1.15322 0 2.57629 0C2.57629 0 5.15259 0 5.15259 0C6.5749 0 7.72888 1.15321 7.72888 2.57629C7.72888 3.99937 6.5749 5.15259 5.15259 5.15259C5.15259 5.15259 5.15259 5.15259 5.15259 5.15259Z" fill="#F9A926" fill-rule="evenodd" transform="translate(7.508 0)" />
      <path id="Shape" d="M13.1776 2.26712C10.1719 -0.755707 5.25999 -0.755707 2.25428 2.26712C-0.751427 5.27283 -0.751427 10.1849 2.25428 13.1906C3.71408 14.6505 5.65499 15.4576 7.71593 15.4576C9.77687 15.4576 11.7179 14.6504 13.1776 13.1906C16.2006 10.1849 16.2006 5.27267 13.1776 2.26712C13.1776 2.26712 13.1776 2.26712 13.1776 2.26712ZM9.54438 9.53605C8.50257 10.5796 6.89788 10.5459 5.89804 9.54777C4.91177 8.56151 4.91177 6.89602 5.89804 5.90976C6.91084 4.89295 8.53682 4.90838 9.52433 5.89958C10.5689 6.94047 10.5214 8.56521 9.54438 9.53605C9.54438 9.53605 9.54438 9.53605 9.54438 9.53605Z" fill="#F9A926" transform="translate(0 29.753)" />
    </g>
    <path id="Path" d="M2.57621 21.2353C1.91706 21.2353 1.2579 20.9837 0.754742 20.4805C-0.251583 19.4751 -0.251583 17.8431 0.754742 16.8374C0.754742 16.8374 16.8374 0.754744 16.8374 0.754744C17.8437 -0.251581 19.4742 -0.251581 20.4805 0.754744C21.4868 1.76014 21.4868 3.39214 20.4805 4.39785C20.4805 4.39785 4.39784 20.4804 4.39784 20.4804C3.89453 20.9837 3.23537 21.2353 2.57621 21.2353C2.57621 21.2353 2.57621 21.2353 2.57621 21.2353Z" fill="#FFC033" fill-rule="evenodd" transform="translate(38.854 18.963)" />
    <path id="Path" d="M0 19.7258C0.503159 20.2289 1.16247 20.4806 1.82147 20.4806C2.48048 20.4806 3.13979 20.2289 3.64295 19.7258C3.64295 19.7258 19.7256 3.6431 19.7256 3.6431C20.7319 2.6377 20.7319 1.00571 19.7256 0C19.7256 0 0 19.7258 0 19.7258L0 19.7258C0 19.7258 0 19.7258 0 19.7258Z" fill="#F9A926" fill-rule="evenodd" transform="translate(39.609 19.718)" />
    <path id="Path" d="M20.003 6.72766L20.003 14.0014C20.003 14.0014 3.43742 19.8341 3.43742 19.8341C2.4189 20.193 1.42107 19.8839 0.764996 19.2313C0.10368 18.5735 -0.208771 17.5704 0.151821 16.5468C0.151821 16.5468 5.99149 0 5.99149 0L13.2823 0L16.6366 3.35781L20.003 6.72766L20.003 6.72766Z" fill="#F26D76" fill-rule="evenodd" transform="translate(0.043 59.014)" />
    <path id="Path" d="M19.238 3.36985L19.238 10.6436C19.238 10.6436 2.67242 16.4763 2.67242 16.4763C1.65391 16.8352 0.65607 16.5261 0 15.8734C0 15.8734 15.8717 0 15.8717 0L19.238 3.36985L19.238 3.36985Z" fill="#E65C64" fill-rule="evenodd" transform="translate(0.808 62.372)" />
    <path id="Path" d="M9.53674e-07 20.4533L17.099 37.5588L26.1609 37.5588C26.1609 37.5588 35.8106 34.1581 35.8106 34.1581C37.1539 33.6759 37.854 32.2164 37.3906 30.8605C37.3906 30.8605 6.66424 0.151052 6.66424 0.151052C5.32802 -0.328655 3.84816 0.372314 3.38373 1.71408C3.38373 1.71408 0 11.3009 0 11.3009L0 20.4534L9.53674e-07 20.4534L9.53674e-07 20.4533Z" fill="#F26D76" fill-rule="evenodd" transform="translate(12.695 28.824)" />
    <path id="Path" d="M8.56008 22.0526L17.6219 22.0526C17.6219 22.0526 27.2717 18.6519 27.2717 18.6519C28.615 18.1697 29.315 16.7102 28.8517 15.3542C28.8517 15.3542 13.4891 0 13.4891 0L0 13.4891L8.56008 22.0526L8.56008 22.0526Z" fill="#E65C64" fill-rule="evenodd" transform="translate(21.234 44.33)" />
    <path id="Path" d="M6.64649 0L0 18.8586L14.0149 32.8564L14.0665 32.8393L32.8561 26.2096L6.64649 0L6.64649 0Z" fill="#FFC033" fill-rule="evenodd" transform="translate(6.031 40.156)" />
    <path id="Path" d="M7.00709 19.7466L7.05862 19.7295L25.8481 13.0998L12.7485 0L0 12.7482L7.00709 19.7466Z" fill="#F9A926" fill-rule="evenodd" transform="translate(13.039 53.266)" />
    <path id="Path" d="M39.0111 41.5871C38.352 41.5871 37.6928 41.3354 37.1896 40.8323C37.1896 40.8323 0.754744 4.39785 0.754744 4.39785C-0.251581 3.39245 -0.251581 1.76045 0.754744 0.754744C1.76107 -0.251581 3.39152 -0.251581 4.39785 0.754744C4.39785 0.754744 40.8324 37.1893 40.8324 37.1893C41.8388 38.1947 41.8388 39.8267 40.8324 40.8324C40.3293 41.3354 39.6703 41.5871 39.0111 41.5871C39.0111 41.5871 39.0111 41.5871 39.0111 41.5871Z" fill="#36D9D9" fill-rule="evenodd" transform="translate(12.283 25.183)" />
    <path id="Path" d="M18.2174 21.8602C18.7205 22.3633 19.3798 22.615 20.0388 22.615C20.6978 22.615 21.3572 22.3633 21.8603 21.8602C22.8666 20.8548 22.8666 19.2228 21.8603 18.2171C21.8603 18.2171 3.6431 0 3.6431 0L0 3.6431L18.2174 21.8602C18.2174 21.8602 18.2174 21.8602 18.2174 21.8602Z" fill="#43BFBF" fill-rule="evenodd" transform="translate(31.255 44.155)" />
  </g>
</svg>